<svg width="288" height="62" viewBox="0 0 288 62" fill="none" xmlns="http://www.w3.org/2000/svg">
<g id="logo_wyborek" clip-path="url(#clip0_717_23)">
<g id="logo_wyborek_2">
<g id="color_accent">
<path id="Vector" d="M160.934 11.2074C149.278 11.2074 139.877 19.0811 139.877 30.7798C139.877 42.4107 149.288 50.1387 161.018 50.1387C172.749 50.1387 182.16 42.4107 182.16 30.7798C182.15 19.0811 172.735 11.2074 160.934 11.2074ZM174.906 36.4445L167.536 44.1691L161.008 37.9792L154.491 44.1691L147.121 36.4445L153.258 30.6205L147.121 24.7932L154.491 17.072L161.008 23.2585L167.522 17.072L174.906 24.7932L168.758 30.6205L174.906 36.4445Z" fill="#2AF5BA"></path>
</g>
<g id="color_stroke">
<g id="Vector_2">
<path d="M0.427979 13.7925H12.3895L16.594 33.7205C16.834 34.8883 16.9636 36.0759 16.9812 37.2678H17.1136C17.2228 36.0747 17.4203 34.8913 17.7046 33.7273L22.3778 13.7925H32.1046L36.7676 33.7205C37.0525 34.8842 37.2288 36.0717 37.294 37.2678H37.4265C37.4883 36.0777 37.6415 34.894 37.885 33.7273L42.0929 13.7992H53.9219L44.4567 47.5537H31.7751L27.9646 31.952C27.6732 30.7634 27.4532 29.5586 27.3057 28.3438H27.1699C27.0226 29.5584 26.8038 30.7632 26.5144 31.952L22.7072 47.5537H9.89326L0.427979 13.7925Z" fill="#07064E"></path>
<path d="M62.9253 50.6333C62.9253 50.6333 64.7661 51.8801 66.4099 51.8801C68.2506 51.8801 70.6823 51.355 71.8642 48.4718L72.5197 46.8964L58.1299 13.7925H71.0084L76.0042 29.3297C76.5951 31.1626 77.254 34.5743 77.254 34.5743H77.3831C77.3831 34.5743 78.0419 31.3625 78.5004 29.5262L82.7729 13.7925H95.1929L81.3261 51.1585C78.5004 58.6967 72.5876 61.3224 67.1978 61.3224C64.4008 61.2683 61.6727 60.4478 59.3118 58.9508L62.9253 50.6333Z" fill="#07064E"></path>
<path d="M98.6129 0.677597H109.98V13.7213C109.984 14.6851 109.94 15.6485 109.848 16.6079H109.98C109.98 16.6079 113.135 13.0031 119.116 13.0031C128.316 13.0031 134.362 20.2127 134.362 30.7019C134.362 41.3875 127.593 48.3363 118.589 48.3363C112.347 48.3363 109.325 44.535 109.325 44.535H109.192C109.192 44.535 109.257 45.3854 109.257 46.4356V47.5503H98.6129V0.677597ZM116.29 38.9618C119.836 38.9618 122.926 36.0786 122.926 30.8984C122.926 25.8503 120.233 22.5741 116.29 22.5741C112.87 22.5741 109.651 25.0643 109.651 30.8984C109.651 34.9673 111.821 38.9618 116.29 38.9618Z" fill="#07064E"></path>
<path d="M187.944 13.7925H198.853V19.4944C198.85 20.1954 198.807 20.8956 198.723 21.5916H198.853C200.299 17.0043 204.572 13.2131 209.632 13.2131C210.073 13.2191 210.513 13.2622 210.946 13.3419V24.4883C210.187 24.3498 209.416 24.284 208.644 24.2918C205.951 24.2918 201.549 25.1422 199.905 30.1903C199.477 31.6819 199.277 33.2297 199.314 34.781V47.5638H187.944V13.7925Z" fill="#07064E"></path>
<path d="M231.001 13.0064C240.993 13.0064 246.644 19.9552 246.644 29.3297C246.644 30.4444 246.379 32.8668 246.379 32.8668H225.024C225.876 37.0001 229.293 38.9008 232.906 38.9008C237.77 38.9008 242.239 35.4891 242.239 35.4891L246.447 43.4237C246.447 43.4237 240.993 48.3397 231.99 48.3397C219.896 48.3397 213.392 39.619 213.392 30.6409C213.392 20.7412 220.093 13.0064 231.001 13.0064ZM235.209 26.3788C235.209 23.8209 233.433 21.5272 230.74 21.5272C227.452 21.5272 225.876 23.8988 225.285 26.3788H235.209Z" fill="#07064E"></path>
<path d="M252.543 0.677597H263.914V24.9355H267.134L273.838 13.7925H286.19L276.27 29.1366V29.2654L287.572 47.5604H274.626L267.463 34.449H263.914V47.5604H252.543V0.677597Z" fill="#07064E"></path>
</g>
</g>
</g>
</g>
<defs>
<clipPath id="clip0_717_23">
<rect width="288" height="62" fill="white"></rect>
</clipPath>
</defs>
</svg>