<svg width="26" height="26" viewBox="0 0 26 26" fill="none" xmlns="http://www.w3.org/2000/svg">
<g id="icon_ui_question" clip-path="url(#clip0_1967_1192)">
<g id="icon_ui_question_2">
<g id="color_stroke">
<g id="Group">
<path id="Vector" d="M12.2927 18.6523C11.9409 18.6523 11.6566 18.368 11.6566 18.0161V17.8601C11.6566 15.6848 13.0987 14.468 14.709 13.2529C16.2638 12.0656 17.7614 10.8505 17.7614 8.59028C17.7614 5.99028 15.8963 3.87041 13.0138 3.87041C10.575 3.87041 8.55048 5.69561 8.27141 8.03561C8.23328 8.35281 7.96114 8.59028 7.64221 8.59028H7.61448C7.23488 8.59028 6.93674 8.25921 6.98181 7.88134C7.33714 4.88614 9.92154 2.59814 13.0155 2.59814C16.7179 2.59814 19.0631 5.28308 19.0631 8.59028C19.0631 11.4728 17.2258 12.9149 15.5306 14.1855C13.8909 15.4005 12.9306 16.3331 12.9306 17.8601V18.0161C12.9306 18.368 12.6463 18.6523 12.2945 18.6523H12.2927ZM10.8385 21.8451C10.8385 20.9975 11.5457 20.2903 12.421 20.2903C13.2409 20.2903 13.9463 20.9975 13.9463 21.8451C13.9463 22.6927 13.2391 23.3999 12.421 23.3999C11.5457 23.3999 10.8385 22.6927 10.8385 21.8451Z" fill="#07064E"></path>
</g>
</g>
</g>
</g>
<defs>
<clipPath id="clip0_1967_1192">
<rect width="26" height="26" fill="white"></rect>
</clipPath>
</defs>
</svg>
