<svg width="42" height="42" viewBox="0 0 42 42" fill="none" xmlns="http://www.w3.org/2000/svg">
<g id="icon_ui_mp4" clip-path="url(#clip0_693_320)">
<g id="icon_ui_mp4_2">
<g id="color_stroke">
<g id="Vector">
<path d="M25.5978 24.1779C25.9225 24.1779 26.1605 24.2455 26.3116 24.3771C26.4628 24.5087 26.5382 24.7162 26.5382 24.9933C26.5381 25.2703 26.4486 25.4805 26.2667 25.6232C26.0847 25.7658 25.8103 25.838 25.4464 25.838H25.0568V24.1779H25.5978Z" fill="#151752"></path>
<path d="M30.6603 24.5616C30.6519 24.6092 30.643 24.7856 30.629 25.0851C30.615 25.3844 30.6095 25.614 30.6095 25.7736V26.7257H29.2628L30.2872 25.1749C30.4216 24.9762 30.5338 24.7716 30.629 24.5616H30.6603Z" fill="#151752"></path>
<path fill-rule="evenodd" clip-rule="evenodd" d="M28.672 6.68079C30.4471 6.68079 31.8916 8.12544 31.8917 9.90051V19.8468H33.5323L33.5353 19.8409C34.7532 19.8409 35.7392 20.8262 35.7394 22.0441V29.9513C35.7394 31.1693 34.7533 32.1554 33.5353 32.1554H31.8947V34.6134C31.8947 36.3886 30.4501 37.8331 28.6749 37.8331H9.50012C7.72505 37.833 6.2804 36.3885 6.2804 34.6134V15.2599C6.28041 15.2347 6.28625 15.2119 6.28625 15.1896C6.2556 14.8987 6.35324 14.5995 6.56848 14.3868L14.0499 6.96106C14.0918 6.92194 14.1371 6.88538 14.1818 6.85461C14.1929 6.84627 14.2069 6.83757 14.2208 6.82922C14.2544 6.80687 14.2911 6.78741 14.3302 6.77063C14.347 6.76223 14.3642 6.75377 14.381 6.74817C14.4257 6.72861 14.4731 6.71443 14.5206 6.70325C14.529 6.70325 14.5376 6.69739 14.546 6.69739C14.602 6.6862 14.6611 6.68079 14.7198 6.68079H28.672ZM15.7159 8.64075V13.3253C15.7159 14.8373 14.4867 16.0665 12.9747 16.0665H8.2345V34.6193C8.23454 35.3136 8.80086 35.879 9.49524 35.879H28.6691C29.3634 35.879 29.9288 35.3136 29.9288 34.6193H29.9318V32.1613H14.8068C13.5888 32.1613 12.6027 31.1752 12.6027 29.9572V22.0499C12.6027 20.832 13.5888 19.8468 14.8068 19.8468H29.9318V9.90051C29.9316 9.20624 29.3663 8.64075 28.672 8.64075H15.7159ZM23.8673 23.2062V28.8038H25.0548V26.8126H25.5636C26.2579 26.8126 26.793 26.6532 27.171 26.3341C27.5489 26.015 27.7364 25.5531 27.7365 24.9513L27.7316 24.9532C27.7315 24.3738 27.555 23.9396 27.2023 23.6456C26.8495 23.3517 26.331 23.2062 25.6534 23.2062H23.8673ZM16.4777 23.2032V28.8009H17.5392V26.1964C17.5392 25.8995 17.5135 25.3031 17.4659 24.4103H17.5001L18.8468 28.8009H19.9357L21.3781 24.4191H21.4113C21.3833 25.1245 21.367 25.5584 21.3615 25.7208C21.3559 25.8832 21.3556 26.0265 21.3556 26.1525V28.8009H22.462V23.2032H20.8458L19.4406 27.4845H19.4181L18.0939 23.2032H16.4777ZM30.674 23.2032L28.2208 26.8185V27.6417H30.6095V28.8009H31.7657V27.6417H32.4406V26.7208H31.7657V23.2032H30.674ZM13.7511 10.0187L9.62903 14.1095H12.9728C13.4037 14.1093 13.7539 13.7592 13.754 13.3282V10.0157L13.7511 10.0187Z" fill="#151752"></path>
</g>
</g>
</g>
</g>
<defs>
<clipPath id="clip0_693_320">
<rect width="42" height="42" fill="white"></rect>
</clipPath>
</defs>
</svg>