<svg width="42" height="42" viewBox="0 0 42 42" fill="none" xmlns="http://www.w3.org/2000/svg">
<g id="icon_ui_pdf">
<g id="icon_ui_pdf_2">
<g id="color_stroke">
<path id="Vector" d="M33.5328 19.8464H31.892V9.90082C31.892 8.12562 30.4472 6.68082 28.672 6.68082H14.7364C14.7364 6.68082 14.7252 6.68082 14.7196 6.68082C14.6608 6.68082 14.602 6.68642 14.5432 6.69762C14.5348 6.69762 14.5264 6.70322 14.5208 6.70322C14.4732 6.71442 14.4256 6.72842 14.378 6.74802C14.3612 6.75362 14.3444 6.76202 14.3276 6.77042C14.2884 6.78722 14.252 6.80682 14.2156 6.82922C14.2016 6.83762 14.1876 6.84602 14.1764 6.85442C14.1316 6.88522 14.0868 6.92162 14.0448 6.96082L6.56319 14.3864C6.56319 14.3864 6.56319 14.3892 6.56039 14.392C6.52119 14.4312 6.48759 14.4732 6.45399 14.518C6.44279 14.532 6.43439 14.546 6.42599 14.5628C6.40359 14.5964 6.38399 14.6328 6.36719 14.6692C6.35879 14.686 6.35039 14.7028 6.34479 14.7196C6.32519 14.7672 6.31119 14.8176 6.29999 14.868C6.29999 14.8736 6.29719 14.8792 6.29439 14.8848C6.28319 14.9436 6.27759 14.9996 6.27759 15.0584C6.27759 15.064 6.27759 15.0724 6.27759 15.078V34.608C6.27759 36.3832 7.72239 37.828 9.49759 37.828H28.672C30.4472 37.828 31.892 36.3832 31.892 34.608V32.1496H33.5328C34.7508 32.1496 35.7364 31.164 35.7364 29.946V22.0388C35.7364 20.8208 34.7508 19.8352 33.5328 19.8352V19.8464ZM13.7536 10.0156V13.328C13.7536 13.7592 13.4036 14.1092 12.9724 14.1092H9.62919L13.7508 10.0184L13.7536 10.0156ZM29.9292 34.6192C29.9292 35.3136 29.3636 35.8792 28.6692 35.8792H9.49479C8.80039 35.8792 8.23479 35.3136 8.23479 34.6192V16.0664H12.9752C14.4872 16.0664 15.7164 14.8372 15.7164 13.3252V8.64082H28.672C29.3664 8.64082 29.932 9.20642 29.932 9.90082V19.8464H14.8064C13.5884 19.8464 12.6028 20.832 12.6028 22.05V29.9572C12.6028 31.1752 13.5884 32.1608 14.8064 32.1608H29.932V34.6192H29.9292Z" fill="#151752"></path>
<g id="Vector_2">
<path d="M21.0672 24.9507C21.0672 25.5527 20.8796 26.0147 20.5016 26.3339C20.1236 26.6531 19.5888 26.8127 18.8944 26.8127H18.3848V28.8035H17.1976V23.2063H18.984C19.6616 23.2063 20.1796 23.3519 20.5324 23.6459C20.8852 23.9399 21.0616 24.3739 21.0616 24.9535L21.0672 24.9507ZM18.3876 25.8383H18.7768C19.1408 25.8383 19.4152 25.7655 19.5972 25.6227C19.7792 25.4799 19.8688 25.2699 19.8688 24.9927C19.8688 24.7155 19.7932 24.5083 19.642 24.3767C19.4908 24.2451 19.2528 24.1779 18.928 24.1779H18.3876V25.8383Z" fill="white"></path>
<path d="M26.768 25.9504C26.768 26.8716 26.5048 27.5772 25.9812 28.0672C25.4576 28.5572 24.6988 28.8008 23.7104 28.8008H22.1256V23.2036H23.884C24.7968 23.2036 25.508 23.4444 26.012 23.926C26.516 24.4076 26.7708 25.0824 26.7708 25.9476L26.768 25.9504ZM25.5332 25.9812C25.5332 24.78 25.0012 24.178 23.94 24.178H23.3072V27.8236H23.8168C24.9592 27.8236 25.5304 27.2104 25.5304 25.9812H25.5332Z" fill="white"></path>
<path d="M29.0948 28.8008H27.9272V23.2036H31.136V24.1752H29.0948V25.6172H30.9932V26.586H29.0948V28.8008Z" fill="white"></path>
</g>
</g>
</g>
</g>
</svg>