<svg width="42" height="42" viewBox="0 0 42 42" fill="none" xmlns="http://www.w3.org/2000/svg">
<g id="icon_ui_png" clip-path="url(#clip0_693_290)">
<g id="icon_ui_png_2">
<g id="color_stroke">
<g id="Vector">
<path d="M18.0736 24.1837C18.3984 24.1837 18.6373 24.2504 18.7885 24.382C18.9396 24.5135 19.015 24.7211 19.015 24.9982C19.015 25.2752 18.9253 25.4853 18.7435 25.6281C18.5616 25.7708 18.287 25.8438 17.9232 25.8439H17.5336V24.1837H18.0736Z" fill="#151752"></path>
<path fill-rule="evenodd" clip-rule="evenodd" d="M28.6722 6.68079C30.4472 6.68093 31.8918 8.12552 31.892 9.90051V19.8468H33.5326L33.5297 19.8409C34.7476 19.8409 35.7336 20.8262 35.7338 22.0441V29.9513C35.7338 31.1693 34.7477 32.1554 33.5297 32.1554H31.889V34.6134C31.889 36.3886 30.4445 37.8331 28.6693 37.8331H9.49451C7.71943 37.833 6.27478 36.3885 6.27478 34.6134V15.2599C6.27479 15.2347 6.28064 15.2119 6.28064 15.1896C6.24998 14.8987 6.34763 14.5995 6.56287 14.3868L14.0443 6.96106C14.0862 6.92194 14.1314 6.88538 14.1761 6.85461C14.1873 6.84627 14.2013 6.83757 14.2152 6.82922C14.2516 6.80685 14.2884 6.78742 14.3275 6.77063C14.3443 6.76223 14.3615 6.75377 14.3783 6.74817C14.4258 6.72861 14.4733 6.71443 14.5209 6.70325C14.5265 6.70319 14.535 6.69739 14.5433 6.69739C14.6019 6.68624 14.6605 6.68082 14.7191 6.68079H28.6722ZM15.7162 8.64075V13.3253C15.7161 14.8373 14.4869 16.0665 12.975 16.0665H8.23474V34.6193C8.23478 35.3135 8.80026 35.8789 9.49451 35.879H28.6693C29.3636 35.879 29.929 35.3136 29.9291 34.6193H29.932V32.1613H14.806C13.5882 32.1611 12.6029 31.175 12.6029 29.9572V22.0499C12.6029 20.8321 13.5882 19.847 14.806 19.8468H29.932V9.90051C29.9319 9.20632 29.3664 8.64089 28.6722 8.64075H15.7162ZM30.3217 23.1251C29.4034 23.1251 28.6892 23.3773 28.1713 23.8839C27.6533 24.3907 27.3949 25.0686 27.3949 25.9982C27.3949 26.9277 27.6196 27.6413 28.0648 28.1368C28.51 28.6324 29.1538 28.882 29.9994 28.882C30.3325 28.882 30.6577 28.8592 30.974 28.8116C31.2902 28.7641 31.6287 28.683 31.9896 28.5656V25.6652H29.7699V26.6505H30.8304V27.8175C30.5757 27.8679 30.3238 27.8937 30.0775 27.8937C29.6017 27.8937 29.2407 27.7312 28.9916 27.4122C28.7424 27.0931 28.6186 26.6029 28.6185 26.0206C28.6185 25.4385 28.7727 24.9763 29.0804 24.632C29.3884 24.2876 29.8005 24.1134 30.3129 24.1134C30.7525 24.1134 31.1785 24.2147 31.5873 24.4191L31.9818 23.4698C31.4499 23.2403 30.8955 23.1252 30.3217 23.1251ZM16.3441 23.212V28.8087H17.5306V26.8185H18.0404C18.7348 26.8185 19.2698 26.6591 19.6478 26.34C20.0258 26.0208 20.2133 25.5582 20.2133 24.9562L20.2074 24.9591C20.2074 24.3795 20.0309 23.9455 19.6781 23.6515C19.3253 23.3577 18.8076 23.2121 18.1302 23.212H16.3441ZM21.2689 23.2091V28.8068H22.3304V26.172C22.3304 25.8556 22.3048 25.32 22.2572 24.5724H22.2904L24.7269 28.8068H26.2328V23.2091H25.1664V25.8575C25.1664 26.1599 25.1858 26.6727 25.225 27.4005H25.1976L22.767 23.2091H21.2689ZM13.7504 10.0187L9.62927 14.1095H12.972C13.4032 14.1095 13.7532 13.7593 13.7533 13.3282V10.0157L13.7504 10.0187Z" fill="#151752"></path>
</g>
</g>
</g>
</g>
<defs>
<clipPath id="clip0_693_290">
<rect width="42" height="42" fill="white"></rect>
</clipPath>
</defs>
</svg>