<svg width="42" height="42" viewBox="0 0 42 42" fill="none" xmlns="http://www.w3.org/2000/svg">
<g id="icon_ui_rar" clip-path="url(#clip0_693_314)">
<g id="icon_ui_rar_2">
<g id="color_stroke">
<g id="Subtract">
<path d="M18.5385 24.1779C18.9219 24.1779 19.2051 24.2339 19.3871 24.3458C19.569 24.4578 19.6614 24.6426 19.6615 24.9113C19.6615 25.1799 19.572 25.3761 19.3929 25.5021C19.2137 25.6281 18.9361 25.6896 18.5609 25.6896H18.1781V24.1779H18.5385Z" fill="#151752"></path>
<path d="M24.1722 24.0519C24.1918 24.1442 24.2253 24.2703 24.2728 24.4269C24.3204 24.5837 24.5305 25.2672 24.9056 26.4738H23.4496C23.8472 25.1858 24.0882 24.3795 24.1722 24.0519Z" fill="#151752"></path>
<path d="M29.1254 24.1779C29.5089 24.1779 29.792 24.2339 29.974 24.3458C30.1559 24.4578 30.2483 24.6426 30.2484 24.9113C30.2484 25.1799 30.1588 25.3761 29.9799 25.5021C29.8007 25.6281 29.523 25.6896 29.1478 25.6896H28.764V24.1779H29.1254Z" fill="#151752"></path>
<path fill-rule="evenodd" clip-rule="evenodd" d="M28.6722 6.68079C30.4472 6.68093 31.8918 8.12552 31.892 9.90051V19.8468H33.5326L33.5297 19.8409C34.7476 19.8409 35.7336 20.8262 35.7338 22.0441V29.9513C35.7338 31.1693 34.7477 32.1554 33.5297 32.1554H31.889V34.6134C31.889 36.3886 30.4445 37.8331 28.6693 37.8331H9.49451C7.71943 37.833 6.27478 36.3885 6.27478 34.6134V15.2599C6.27479 15.2347 6.28064 15.2119 6.28064 15.1896C6.24998 14.8987 6.34763 14.5995 6.56287 14.3868L14.0443 6.96106C14.0862 6.92194 14.1314 6.88538 14.1761 6.85461C14.1901 6.84625 14.2042 6.83758 14.2181 6.82922C14.2545 6.80685 14.2912 6.78741 14.3275 6.77063C14.3471 6.76223 14.3644 6.75377 14.3812 6.74817C14.4259 6.73143 14.4705 6.71735 14.5179 6.70618C14.5291 6.70338 14.5379 6.69739 14.5463 6.69739C14.602 6.68626 14.6606 6.68082 14.7191 6.68079H28.6722ZM15.7162 8.64075V13.3253C15.7161 14.8373 14.4869 16.0665 12.975 16.0665H8.23474V34.6193C8.23478 35.3135 8.80026 35.8789 9.49451 35.879H28.6693C29.3636 35.879 29.929 35.3136 29.9291 34.6193H29.932V32.1613H14.806C13.5882 32.1611 12.6029 31.175 12.6029 29.9572V22.0499C12.6029 20.8321 13.5882 19.847 14.806 19.8468H29.932V9.90051C29.9319 9.20632 29.3664 8.64089 28.6722 8.64075H15.7162ZM16.9906 23.2032V28.8009H18.1781V26.6505H18.8099L20.1459 28.798H21.4623C21.2075 28.4312 20.6585 27.6165 19.8158 26.3595C20.149 26.2139 20.4033 26.0145 20.5853 25.757C20.7673 25.4994 20.8568 25.2084 20.8568 24.8781C20.8568 24.3153 20.672 23.8955 20.308 23.6183C19.9441 23.3412 19.3817 23.2033 18.6205 23.2032H16.9906ZM23.4359 23.1808L21.4623 28.8009H22.7416L23.1478 27.4679H25.1888L25.5951 28.8009H26.8685L24.8861 23.1808H23.4359ZM27.5775 23.2032V28.8009H28.764V26.6505H29.3969L30.7328 28.798H32.0492C31.7944 28.4312 31.2454 27.6165 30.4027 26.3595C30.7358 26.2139 30.9903 26.0145 31.1722 25.757C31.3542 25.4994 31.4437 25.2084 31.4437 24.8781C31.4437 24.3153 31.2589 23.8955 30.8949 23.6183C30.5309 23.3411 29.968 23.2032 29.2064 23.2032H27.5775ZM13.7533 10.0187L9.6322 14.1095H12.975C13.4061 14.1095 13.7561 13.7593 13.7562 13.3282V10.0157L13.7533 10.0187Z" fill="#151752"></path>
</g>
</g>
</g>
</g>
<defs>
<clipPath id="clip0_693_314">
<rect width="42" height="42" fill="white"></rect>
</clipPath>
</defs>
</svg>