<svg width="42" height="42" viewBox="0 0 42 42" fill="none" xmlns="http://www.w3.org/2000/svg">
<g id="icon_ui_ppt" clip-path="url(#clip0_693_281)">
<g id="icon_ui_ppt_2">
<g id="color-stroke">
<g id="Vector">
<path d="M19.132 24.1779C19.4568 24.1779 19.6956 24.2455 19.8468 24.3771C19.9978 24.5087 20.0734 24.7163 20.0734 24.9933C20.0733 25.2702 19.9838 25.4805 19.8019 25.6232C19.6199 25.7659 19.3454 25.838 18.9816 25.838H18.5919V24.1779H19.132Z" fill="#151752"></path>
<path d="M24.0548 24.1779C24.3796 24.1779 24.6175 24.2455 24.7687 24.3771C24.9198 24.5087 24.9952 24.7161 24.9952 24.9933C24.9951 25.2703 24.9057 25.4805 24.7238 25.6232C24.5418 25.7658 24.2672 25.838 23.9034 25.838H23.5148V24.1779H24.0548Z" fill="#151752"></path>
<path fill-rule="evenodd" clip-rule="evenodd" d="M28.672 6.68079C30.4471 6.68079 31.8916 8.12544 31.8917 9.90051V19.8468H33.5323L33.5353 19.8409C34.7532 19.8409 35.7392 20.8262 35.7394 22.0441V29.9513C35.7394 31.1693 34.7533 32.1554 33.5353 32.1554H31.8947V34.6134C31.8947 36.3886 30.4501 37.8331 28.6749 37.8331H9.50012C7.72505 37.833 6.2804 36.3885 6.2804 34.6134V15.2599C6.28041 15.2347 6.28625 15.2119 6.28625 15.1896C6.2556 14.8987 6.35324 14.5995 6.56848 14.3868L14.0499 6.96106C14.0918 6.92194 14.1371 6.88538 14.1818 6.85461C14.1929 6.84627 14.2069 6.83757 14.2208 6.82922C14.2544 6.80687 14.2911 6.78741 14.3302 6.77063C14.347 6.76223 14.3642 6.75377 14.381 6.74817C14.4257 6.72861 14.4731 6.71443 14.5206 6.70325C14.529 6.70325 14.5376 6.69739 14.546 6.69739C14.602 6.6862 14.6611 6.68079 14.7198 6.68079H28.672ZM15.7159 8.64075V13.3253C15.7159 14.8373 14.4867 16.0665 12.9747 16.0665H8.2345V34.6193C8.23454 35.3136 8.80086 35.879 9.49524 35.879H28.6691C29.3634 35.879 29.9288 35.3136 29.9288 34.6193H29.9318V32.1613H14.8068C13.5888 32.1613 12.6027 31.1752 12.6027 29.9572V22.0499C12.6027 20.832 13.5888 19.8468 14.8068 19.8468H29.9318V9.90051C29.9316 9.20624 29.3663 8.64075 28.672 8.64075H15.7159ZM17.4025 23.2062V28.8038H18.589V26.8126H19.0988C19.7932 26.8126 20.3282 26.6533 20.7062 26.3341C21.084 26.015 21.2715 25.553 21.2716 24.9513L21.2657 24.9532C21.2657 24.3738 21.0892 23.9396 20.7365 23.6456C20.3837 23.3519 19.8658 23.2062 19.1886 23.2062H17.4025ZM22.3243 23.2062V28.8038H23.5118V26.8126H24.0216C24.7157 26.8126 25.2501 26.6531 25.6281 26.3341C26.006 26.015 26.1944 25.5531 26.1945 24.9513L26.1886 24.9532C26.1885 24.3738 26.012 23.9396 25.6593 23.6456C25.3065 23.3517 24.788 23.2062 24.1105 23.2062H22.3243ZM26.7032 23.2032V24.1915H28.2238V28.8009H29.4083V24.1915H30.9288V23.2032H26.7032ZM13.7511 10.0187L9.62903 14.1095H12.9728C13.4037 14.1093 13.7539 13.7592 13.754 13.3282V10.0157L13.7511 10.0187Z" fill="#151752"></path>
</g>
</g>
</g>
</g>
<defs>
<clipPath id="clip0_693_281">
<rect width="42" height="42" fill="white"></rect>
</clipPath>
</defs>
</svg>