<svg viewBox="0 0 26 26" fill="none" xmlns="http://www.w3.org/2000/svg">
    <g id="icon_ui_arrow-right" clip-path="url(#clip0_545_95)">
        <g id="icon_ui_arrow-right_2">
            <g id="color_stroke">
                <path id="Vector"
                      d="M24.4799 12.6568L17.9972 6.0129C17.7632 5.7737 17.3801 5.7685 17.1392 6.0025C16.9 6.2365 16.8948 6.6213 17.1288 6.8605L22.5281 12.3933H1.93613C1.6016 12.3933 1.32947 12.6654 1.32947 13C1.32947 13.3345 1.6016 13.6066 1.93613 13.6066H22.6373L16.978 19.129C16.7388 19.363 16.7336 19.7478 16.9676 19.987C17.0872 20.1084 17.2449 20.1708 17.4027 20.1708C17.5604 20.1708 17.7077 20.1136 17.8256 19.9974L24.4695 13.5148C24.7087 13.2808 24.7139 12.896 24.4799 12.6568Z"
                      fill="#151752"></path>
            </g>
        </g>
    </g>
    <defs>
        <clipPath id="clip0_545_95">
            <rect width="26" height="26" fill="white"></rect>
        </clipPath>
    </defs>
</svg>
