<svg width="42" height="42" viewBox="0 0 42 42" fill="none" xmlns="http://www.w3.org/2000/svg">
<g id="icon_ui_xml" clip-path="url(#clip0_693_307)">
<g id="icon_ui_xml_2">
<g id="color_stroke">
<path id="Vector" fill-rule="evenodd" clip-rule="evenodd" d="M28.6721 6.68079C30.4472 6.68086 31.8917 8.12548 31.8918 9.90051V19.8468H33.5325V19.8409C34.7504 19.8409 35.7364 20.8262 35.7366 22.0441V29.9513C35.7366 31.1693 34.7505 32.1554 33.5325 32.1554H31.8918V34.6134C31.8918 36.3886 30.4473 37.8331 28.6721 37.8331H9.49731C7.72224 37.833 6.27759 36.3885 6.27759 34.6134V15.2599C6.2776 15.2347 6.28345 15.2119 6.28345 15.1896C6.25279 14.8987 6.35044 14.5995 6.56567 14.3868L14.0471 6.96106C14.089 6.92194 14.1342 6.88538 14.179 6.85461C14.1929 6.84625 14.207 6.83758 14.2209 6.82922C14.2573 6.80685 14.294 6.78741 14.3303 6.77063C14.3471 6.76223 14.3643 6.75377 14.3811 6.74817C14.4258 6.72862 14.4732 6.71443 14.5208 6.70325C14.5292 6.70325 14.5377 6.69739 14.5461 6.69739C14.6021 6.68621 14.6612 6.68079 14.72 6.68079H28.6721ZM15.7161 8.64075V13.3253C15.716 14.8373 14.4868 16.0665 12.9749 16.0665H8.23462V34.6193C8.23466 35.3135 8.80019 35.8788 9.49438 35.879H28.6692C29.3636 35.879 29.9289 35.3136 29.929 34.6193H29.9319V32.1613H14.8059C13.5881 32.161 12.6028 31.175 12.6028 29.9572V22.0499C12.6028 20.8321 13.5881 19.8471 14.8059 19.8468H29.9319V9.90051C29.9317 9.20628 29.3664 8.64082 28.6721 8.64075H15.7161ZM15.7581 23.2032L17.4973 25.9142L15.6409 28.8009H16.9124L18.2141 26.6837L19.5159 28.8009H20.8684L18.9788 25.9786L20.7366 23.2032H19.4573L18.2756 25.2169L17.0686 23.2032H15.7581ZM21.5764 23.2032V28.8009H22.6379V26.1964C22.6379 25.8995 22.6133 25.3031 22.5657 24.4103H22.5989L23.9456 28.8009H25.0344L26.4768 24.4191H26.51C26.482 25.1245 26.4658 25.5584 26.4602 25.7208C26.4546 25.8832 26.4543 26.0265 26.4543 26.1525V28.8009H27.5608V23.2032H25.9446L24.5393 27.4845H24.5168L23.1926 23.2032H21.5764ZM28.969 23.2032V28.8009H32.427V27.8204H30.1565V23.2032H28.969ZM13.7532 10.0187L9.63208 14.1095H12.9749C13.406 14.1095 13.756 13.7593 13.7561 13.3282V10.0157L13.7532 10.0187Z" fill="#151752"></path>
</g>
</g>
</g>
<defs>
<clipPath id="clip0_693_307">
<rect width="42" height="42" fill="white"></rect>
</clipPath>
</defs>
</svg>