<svg width="24" height="24" viewBox="0 0 24 24" fill="none" xmlns="http://www.w3.org/2000/svg">
<g id="icon_ui_united-kingdom" clip-path="url(#clip0_631_108)">
<g id="icon_ui_united-kingdom_2">
<g id="color_stroke">
<path id="Vector" d="M11.74 21.73C6.23 21.73 1.76 17.25 1.76 11.74C1.76 6.23001 6.23 1.76001 11.74 1.76001C17.25 1.76001 21.73 6.24001 21.73 11.75C21.73 17.26 17.25 21.74 11.74 21.74V21.73ZM11.74 3.76001C7.34 3.76001 3.76 7.34001 3.76 11.75C3.76 16.16 7.34 19.74 11.74 19.74C16.14 19.74 19.73 16.16 19.73 11.75C19.73 7.34001 16.15 3.76001 11.74 3.76001Z" fill="#07064E"></path>
<path id="Vector_2" d="M8.3 3.44001C3.72 5.34001 1.54 10.59 3.44 15.18C4.86 18.61 8.16 20.69 11.64 20.73H11.72C12.87 20.73 14.04 20.51 15.17 20.05C19.75 18.15 21.93 12.9 20.03 8.31001C18.61 4.89001 15.32 2.81001 11.84 2.76001H11.73C10.58 2.76001 9.42 2.98001 8.29 3.44001H8.3Z" fill="#0037A6"></path>
<path id="Vector_3" d="M19.74 7.67006C19.32 6.84006 18.78 6.09006 18.15 5.45006L13.79 8.58006V3.00006C12.47 2.69006 11.07 2.68006 9.69 3.00006V8.59006L5.32 5.46006C4.68 6.12006 4.15 6.87006 3.74 7.68006L5.55 8.98006H3.21C2.64 10.7301 2.61 12.6501 3.21 14.5101H5.57L3.75 15.8101C4.17 16.6401 4.71 17.3901 5.34 18.0301L9.7 14.9001V20.4901C11.02 20.8001 12.42 20.8101 13.8 20.4901V14.9001L18.18 18.0301C18.82 17.3701 19.35 16.6201 19.76 15.8101L17.95 14.5201H20.29C20.86 12.7701 20.89 10.8501 20.29 8.99006H17.93L19.75 7.68006L19.74 7.67006Z" fill="white"></path>
<path id="Vector_4" d="M12.97 2.84996C12.16 2.73996 11.34 2.73996 10.51 2.84996V10.08H2.91C2.71 11.16 2.7 12.28 2.91 13.4H10.51V20.63C11.32 20.74 12.14 20.74 12.97 20.63V13.4H20.56C20.76 12.32 20.77 11.2 20.56 10.08H12.96V2.84996H12.97Z" fill="#F20000"></path>
<path id="Vector_5" d="M15.32 9.17004L19.03 6.50004C18.85 6.25004 18.66 6.01004 18.46 5.79004L13.68 9.23004L15.32 9.17004Z" fill="#F20000"></path>
<path id="Vector_6" d="M19.53 16.2001L16.96 14.3601L15.32 14.3101L19.04 16.9701C19.22 16.7201 19.38 16.4701 19.53 16.2001Z" fill="#F20000"></path>
<path id="Vector_7" d="M4.45 16.98C4.63 17.23 4.82 17.47 5.02 17.69L9.8 14.25L8.16 14.31L4.45 16.98Z" fill="#F20000"></path>
<path id="Vector_8" d="M3.95 7.28001L6.52 9.12001L8.16 9.17001L4.44 6.51001C4.26 6.76001 4.1 7.01001 3.95 7.28001Z" fill="#F20000"></path>
</g>
</g>
</g>
<defs>
<clipPath id="clip0_631_108">
<rect width="24" height="24" fill="white"></rect>
</clipPath>
</defs>
</svg>