<svg width="42" height="42" viewBox="0 0 42 42" fill="none" xmlns="http://www.w3.org/2000/svg">
<g id="icon_ui_rtf" clip-path="url(#clip0_693_311)">
<g id="icon_ui_rtf_2">
<g id="color_stroke">
<g id="Vector">
<path d="M19.4094 24.1779C19.793 24.1779 20.0761 24.2338 20.2581 24.3458C20.44 24.4578 20.5324 24.6426 20.5325 24.9113C20.5325 25.1799 20.4429 25.3761 20.2639 25.5021C20.0847 25.6281 19.8071 25.6896 19.4319 25.6896H19.0481V24.1779H19.4094Z" fill="#151752"></path>
<path fill-rule="evenodd" clip-rule="evenodd" d="M28.6721 6.68079C30.4472 6.68086 31.8917 8.12548 31.8918 9.90051V19.8468H33.5325V19.8409C34.7504 19.8409 35.7364 20.8262 35.7366 22.0441V29.9513C35.7366 31.1693 34.7505 32.1554 33.5325 32.1554H31.8918V34.6134C31.8918 36.3886 30.4473 37.8331 28.6721 37.8331H9.49731C7.72224 37.833 6.27759 36.3885 6.27759 34.6134V15.2599C6.2776 15.2347 6.28345 15.2119 6.28345 15.1896C6.25279 14.8987 6.35044 14.5995 6.56567 14.3868L14.0471 6.96106C14.089 6.92194 14.1342 6.88538 14.179 6.85461C14.1929 6.84625 14.207 6.83758 14.2209 6.82922C14.2573 6.80685 14.294 6.78741 14.3303 6.77063C14.3471 6.76223 14.3643 6.75377 14.3811 6.74817C14.4258 6.72862 14.4732 6.71443 14.5208 6.70325C14.5292 6.70325 14.5377 6.69739 14.5461 6.69739C14.6021 6.68621 14.6612 6.68079 14.72 6.68079H28.6721ZM15.7161 8.64075V13.3253C15.716 14.8373 14.4868 16.0665 12.9749 16.0665H8.23462V34.6193C8.23466 35.3135 8.80019 35.8788 9.49438 35.879H28.6692C29.3636 35.879 29.9289 35.3136 29.929 34.6193H29.9319V32.1613H14.8059C13.5881 32.161 12.6028 31.175 12.6028 29.9572V22.0499C12.6028 20.8321 13.5881 19.8471 14.8059 19.8468H29.9319V9.90051C29.9317 9.20628 29.3664 8.64082 28.6721 8.64075H15.7161ZM17.8616 23.2032V28.8009H19.0481V26.6505H19.6809L21.0168 28.798H22.3333C22.0785 28.4312 21.5294 27.6165 20.6868 26.3595C21.0199 26.2139 21.2743 26.0145 21.4563 25.757C21.6382 25.4994 21.7278 25.2084 21.7278 24.8781C21.7278 24.3153 21.543 23.8955 21.179 23.6183C20.815 23.3411 20.2521 23.2032 19.4905 23.2032H17.8616ZM22.4895 23.2032V24.1915H24.01V28.8009H25.1946V24.1915H26.7151V23.2032H22.4895ZM27.5803 23.2032V28.8009H28.7473V26.5861H30.6458V25.6173H28.7473V24.1749H30.7883V23.2032H27.5803ZM13.7532 10.0187L9.63208 14.1095H12.9749C13.406 14.1095 13.756 13.7593 13.7561 13.3282V10.0157L13.7532 10.0187Z" fill="#151752"></path>
</g>
</g>
</g>
</g>
<defs>
<clipPath id="clip0_693_311">
<rect width="42" height="42" fill="white"></rect>
</clipPath>
</defs>
</svg>