<svg width="42" height="42" viewBox="0 0 42 42" fill="none" xmlns="http://www.w3.org/2000/svg">
<g id="icon_ui_jpg" clip-path="url(#clip0_693_287)">
<g id="icon_ui_jpg_2">
<g id="color_stroke">
<g id="Vector">
<path d="M23.2013 24.1808C23.5258 24.1809 23.764 24.2485 23.9152 24.38C24.066 24.5116 24.1417 24.7185 24.1417 24.9952C24.1417 25.2722 24.052 25.4823 23.8702 25.6251C23.6883 25.7679 23.4138 25.8409 23.0499 25.8409H22.6603V24.1808H23.2013Z" fill="#151752"></path>
<path fill-rule="evenodd" clip-rule="evenodd" d="M28.672 6.68079C30.4471 6.68079 31.8916 8.12544 31.8917 9.90051V19.8468H33.5323L33.5353 19.8409C34.7532 19.8409 35.7392 20.8262 35.7394 22.0441V29.9513C35.7394 31.1693 34.7533 32.1554 33.5353 32.1554H31.8947V34.6134C31.8947 36.3886 30.4501 37.8331 28.6749 37.8331H9.50012C7.72505 37.833 6.2804 36.3885 6.2804 34.6134V15.2599C6.28041 15.2347 6.28625 15.2119 6.28625 15.1896C6.2556 14.8987 6.35324 14.5995 6.56848 14.3868L14.0499 6.96106C14.0918 6.92194 14.1371 6.88538 14.1818 6.85461C14.1929 6.84627 14.2069 6.83757 14.2208 6.82922C14.2544 6.80687 14.2911 6.78741 14.3302 6.77063C14.347 6.76223 14.3642 6.75377 14.381 6.74817C14.4257 6.72861 14.4731 6.71443 14.5206 6.70325C14.529 6.70325 14.5376 6.69739 14.546 6.69739C14.602 6.6862 14.6611 6.68079 14.7198 6.68079H28.672ZM15.7159 8.64075V13.3253C15.7159 14.8373 14.4867 16.0665 12.9747 16.0665H8.2345V34.6193C8.23454 35.3136 8.80086 35.879 9.49524 35.879H28.6691C29.3634 35.879 29.9288 35.3136 29.9288 34.6193H29.9318V32.1613H14.8068C13.5888 32.1613 12.6027 31.1752 12.6027 29.9572V22.0499C12.6027 20.832 13.5888 19.8468 14.8068 19.8468H29.9318V9.90051C29.9316 9.20624 29.3663 8.64075 28.672 8.64075H15.7159ZM18.88 23.2062V28.4513C18.88 28.7954 18.8268 29.0478 18.712 29.2101C18.5972 29.3721 18.4126 29.4532 18.1525 29.4532C17.9818 29.4532 17.7971 29.4284 17.5929 29.3781V30.3663C17.7915 30.4222 18.0237 30.4503 18.2921 30.4503L18.295 30.4474C18.8802 30.4474 19.3197 30.2762 19.6193 29.9347C19.9188 29.5931 20.0675 29.0949 20.0675 28.4425V23.2062H18.88ZM29.0753 23.1222C28.157 23.1222 27.4429 23.3743 26.9249 23.881C26.4069 24.3878 26.1495 25.0656 26.1495 25.9952C26.1495 26.9248 26.3733 27.6393 26.8185 28.1349C27.2636 28.6303 27.9077 28.879 28.7531 28.879C29.0862 28.879 29.4113 28.8573 29.7277 28.8097C30.0441 28.7621 30.3831 28.6802 30.7443 28.5626V25.6622H28.5236V26.6476H29.5851V27.8156C29.3303 27.866 29.0776 27.8907 28.8312 27.8907C28.3554 27.8906 27.9944 27.7284 27.7452 27.4093C27.4961 27.0901 27.3732 26.6001 27.3732 26.0177C27.3732 25.4353 27.5271 24.9734 27.8351 24.629C28.143 24.2847 28.5543 24.1105 29.0665 24.1105C29.5061 24.1105 29.9321 24.2117 30.3409 24.4161L30.7355 23.4669C30.2035 23.2374 29.6493 23.1222 29.0753 23.1222ZM21.4708 23.2091V28.8068H22.6573V26.8156H23.1671C23.8615 26.8156 24.3965 26.6562 24.7745 26.337C25.1525 26.0178 25.34 25.5552 25.34 24.9532L25.3341 24.9562C25.3341 24.3767 25.1576 23.9425 24.8048 23.6486C24.452 23.3548 23.9343 23.2091 23.257 23.2091H21.4708ZM13.754 10.0187L9.63196 14.1095H12.9747C13.4058 14.1095 13.7558 13.7593 13.756 13.3282V10.0157L13.754 10.0187Z" fill="#151752"></path>
</g>
</g>
</g>
</g>
<defs>
<clipPath id="clip0_693_287">
<rect width="42" height="42" fill="white"></rect>
</clipPath>
</defs>
</svg>