<svg width="42" height="42" viewBox="0 0 42 42" fill="none" xmlns="http://www.w3.org/2000/svg">
<g id="icon_ui_csv" clip-path="url(#clip0_693_293)">
<g id="icon_ui_csv_2">
<g id="color_stroke">
<path id="Vector" fill-rule="evenodd" clip-rule="evenodd" d="M28.6723 6.68079C30.4473 6.68093 31.8919 8.12552 31.892 9.90051V19.8468H33.5327L33.5297 19.8409C34.7476 19.8409 35.7337 20.8262 35.7338 22.0441V29.9513C35.7338 31.1693 34.7477 32.1554 33.5297 32.1554H31.8891V34.6134C31.8891 36.3886 30.4445 37.8331 28.6694 37.8331H9.49457C7.71949 37.833 6.27484 36.3885 6.27484 34.6134V15.2599C6.27486 15.2347 6.2807 15.2119 6.2807 15.1896C6.25004 14.8987 6.34769 14.5995 6.56293 14.3868L14.0444 6.96106C14.0863 6.92194 14.1315 6.88538 14.1762 6.85461C14.1873 6.84627 14.2014 6.83757 14.2153 6.82922C14.2516 6.80685 14.2884 6.78742 14.3276 6.77063C14.3444 6.76223 14.3616 6.75377 14.3784 6.74817C14.4259 6.72861 14.4734 6.71443 14.5209 6.70325C14.5265 6.70319 14.535 6.69739 14.5434 6.69739C14.602 6.68624 14.6606 6.68082 14.7192 6.68079H28.6723ZM15.7162 8.64075V13.3253C15.7162 14.8373 14.487 16.0665 12.975 16.0665H8.2348V34.6193C8.23484 35.3135 8.80032 35.8789 9.49457 35.879H28.6694C29.3637 35.879 29.9291 35.3136 29.9291 34.6193H29.9321V32.1613H14.8061C13.5883 32.1611 12.603 31.175 12.603 29.9572V22.0499C12.603 20.8321 13.5883 19.847 14.8061 19.8468H29.9321V9.90051C29.9319 9.20632 29.3665 8.64089 28.6723 8.64075H15.7162ZM20.0424 23.1281C19.5104 23.1281 19.0455 23.2425 18.6479 23.4777C18.2503 23.7129 17.9448 24.0497 17.7348 24.4865C17.525 24.9231 17.4194 25.4326 17.4194 26.0148C17.4194 26.9387 17.6347 27.6442 18.0659 28.1398C18.497 28.6353 19.1184 28.8819 19.933 28.882C20.5013 28.882 21.014 28.7842 21.4731 28.5939V27.5997C20.9132 27.7957 20.4373 27.8937 20.0453 27.8937C19.1074 27.8937 18.6401 27.2693 18.6401 26.0206C18.6401 25.4214 18.7599 24.9533 19.0063 24.6173C19.2527 24.2814 19.6002 24.1134 20.0453 24.1134L20.0395 24.1163C20.2439 24.1163 20.4517 24.1558 20.6645 24.2286C20.8771 24.3014 21.0874 24.3877 21.2973 24.4884L21.6801 23.5226C21.1314 23.2595 20.5743 23.1281 20.0424 23.1281ZM24.2787 23.1281C23.688 23.1281 23.2231 23.2711 22.8871 23.5538C22.5514 23.8365 22.3833 24.2255 22.3832 24.7208C22.3832 24.984 22.4367 25.2115 22.5375 25.4103C22.6383 25.6088 22.7752 25.7824 22.9457 25.9279C23.1165 26.0735 23.3746 26.2302 23.7162 26.3898C24.0798 26.5631 24.3231 26.6893 24.4409 26.7677C24.5585 26.8461 24.6488 26.928 24.7104 27.0148C24.7718 27.1015 24.8022 27.1997 24.8022 27.3087C24.8021 27.5074 24.7321 27.6561 24.5922 27.754C24.4523 27.8518 24.2536 27.9024 23.9936 27.9025C23.778 27.9025 23.5371 27.8651 23.2768 27.798C23.0164 27.7308 22.6968 27.6105 22.3188 27.4425V28.546C22.778 28.77 23.3073 28.882 23.9037 28.882C24.5505 28.8819 25.0573 28.7366 25.4213 28.4454C25.7853 28.1542 25.9672 27.7531 25.9672 27.2491H25.9643C25.9642 26.8853 25.8664 26.5772 25.6733 26.3253C25.48 26.0734 25.1216 25.8215 24.5981 25.5724C24.2009 25.385 23.9518 25.2536 23.8452 25.1808C23.7388 25.108 23.6603 25.0316 23.6127 24.9532C23.5652 24.8749 23.5395 24.7824 23.5395 24.6788C23.5396 24.511 23.5989 24.3742 23.7192 24.2706C23.8396 24.1671 24.0128 24.1134 24.2368 24.1134C24.4272 24.1134 24.6179 24.1362 24.8139 24.1866C25.0099 24.2371 25.2566 24.3213 25.5561 24.4445L25.9389 23.5226C25.6507 23.3967 25.3738 23.3015 25.1108 23.2316C24.8476 23.1616 24.5699 23.1281 24.2787 23.1281ZM26.2778 23.2062L28.1762 28.8038H29.4702L31.3715 23.2062H30.1782L29.1176 26.5353C28.9524 27.1205 28.8566 27.5325 28.8286 27.7677C28.8118 27.6641 28.7729 27.4821 28.7114 27.2218C28.6498 26.9614 28.5885 26.7313 28.5297 26.5353L27.476 23.2062H26.2778ZM13.7534 10.0187L9.63226 14.1095H12.975C13.4061 14.1095 13.7561 13.7593 13.7563 13.3282V10.0157L13.7534 10.0187Z" fill="#151752"></path>
</g>
</g>
</g>
<defs>
<clipPath id="clip0_693_293">
<rect width="42" height="42" fill="white"></rect>
</clipPath>
</defs>
</svg>