<svg width="42" height="42" viewBox="0 0 42 42" fill="none" xmlns="http://www.w3.org/2000/svg">
<g id="icon_ui_dwg">
<g id="icon_ui_dwg_2">
<g id="color_stroke">
<g id="Vector">
<path d="M17.1614 24.0909C18.2225 24.091 18.7542 24.6935 18.7542 25.8947H18.7512C18.7511 27.1235 18.1804 27.7363 17.0383 27.7365H16.5286V24.0909H17.1614Z" fill="#151752"></path>
<path fill-rule="evenodd" clip-rule="evenodd" d="M28.6721 6.68079C30.4472 6.68086 31.8917 8.12548 31.8918 9.90051V19.8468H33.5325V19.8409C34.7504 19.8409 35.7364 20.8262 35.7366 22.0441V29.9513C35.7366 31.1693 34.7505 32.1554 33.5325 32.1554H31.8918V34.6134C31.8918 36.3886 30.4473 37.8331 28.6721 37.8331H9.49731C7.72224 37.833 6.27759 36.3885 6.27759 34.6134V15.2599C6.2776 15.2347 6.28345 15.2119 6.28345 15.1896C6.25279 14.8987 6.35044 14.5995 6.56567 14.3868L14.0471 6.96106C14.089 6.92194 14.1342 6.88538 14.179 6.85461C14.1929 6.84625 14.207 6.83758 14.2209 6.82922C14.2573 6.80685 14.294 6.78741 14.3303 6.77063C14.3471 6.76223 14.3643 6.75377 14.3811 6.74817C14.4258 6.72862 14.4732 6.71443 14.5208 6.70325C14.5292 6.70325 14.5377 6.69739 14.5461 6.69739C14.6021 6.68621 14.6612 6.68079 14.72 6.68079H28.6721ZM15.7161 8.64075V13.3253C15.716 14.8373 14.4868 16.0665 12.9749 16.0665H8.23462V34.6193C8.23466 35.3135 8.80019 35.8788 9.49438 35.879H28.6692C29.3636 35.879 29.9289 35.3136 29.929 34.6193H29.9319V32.1613H14.8059C13.5881 32.161 12.6028 31.175 12.6028 29.9572V22.0499C12.6028 20.8321 13.5881 19.8471 14.8059 19.8468H29.9319V9.90051C29.9317 9.20628 29.3664 8.64082 28.6721 8.64075H15.7161ZM31.4016 23.0323C30.4834 23.0324 29.7691 23.2844 29.2512 23.7911C28.7333 24.2979 28.4759 24.9759 28.4758 25.9054C28.4758 26.835 28.6996 27.5494 29.1448 28.045C29.59 28.5406 30.2347 28.7892 31.0803 28.7892C31.4132 28.7892 31.7378 28.7674 32.054 28.7198C32.3703 28.6723 32.7094 28.5904 33.0706 28.4728V25.5724H30.8508V26.5577H31.9114V27.7257C31.6567 27.7761 31.4048 27.8009 31.1584 27.8009C30.6824 27.8009 30.3207 27.6387 30.0715 27.3195C29.8225 27.0003 29.6995 26.5101 29.6995 25.9279C29.6995 25.3456 29.8535 24.8835 30.1614 24.5392C30.4694 24.1948 30.8814 24.0216 31.3938 24.0216C31.8332 24.0216 32.2586 24.122 32.6672 24.3263L33.0627 23.3771C32.5307 23.1475 31.9756 23.0323 31.4016 23.0323ZM20.4397 23.1163L21.8684 28.714H23.2151L23.968 25.7823C24.0016 25.6536 24.049 25.4351 24.1106 25.13C24.1722 24.8248 24.2118 24.6031 24.2258 24.4659C24.237 24.5779 24.2758 24.7995 24.343 25.1271C24.4101 25.4543 24.4576 25.6727 24.4856 25.7765L25.2444 28.7169H26.5969V28.714L28.0227 23.1163H26.8547L26.1438 26.172C26.0962 26.3567 26.0454 26.5972 25.9895 26.8937C25.9335 27.1905 25.8917 27.44 25.8665 27.6388C25.8385 27.4316 25.7966 27.185 25.7434 26.8966C25.6902 26.6084 25.645 26.393 25.6086 26.2531L24.7942 23.1163H23.6711L22.8567 26.2531C22.8091 26.4238 22.7584 26.6589 22.7024 26.964C22.6464 27.2692 22.6099 27.4932 22.5959 27.6388C22.54 27.2245 22.4504 26.7346 22.3245 26.172L21.6077 23.1163H20.4397ZM15.344 23.1163V28.714H16.929C17.9172 28.714 18.6759 28.4705 19.1995 27.9806C19.7231 27.4906 19.9866 26.7846 19.9866 25.8634L19.9895 25.8605C19.9894 24.9955 19.7346 24.3205 19.2307 23.839C18.7268 23.3575 18.0154 23.1164 17.1028 23.1163H15.344ZM13.7532 10.0187L9.63208 14.1095H12.9749C13.406 14.1095 13.756 13.7593 13.7561 13.3282V10.0157L13.7532 10.0187Z" fill="#151752"></path>
</g>
</g>
</g>
</g>
</svg>