<svg width="42" height="42" viewBox="0 0 42 42" fill="none" xmlns="http://www.w3.org/2000/svg">
<g id="icon_ui_tif" clip-path="url(#clip0_693_299)">
<g id="icon_ui_tif_2">
<g id="color_stroke">
<path id="Vector" fill-rule="evenodd" clip-rule="evenodd" d="M28.6722 6.68079C30.4472 6.68093 31.8918 8.12552 31.892 9.90051V19.8468H33.5326L33.5297 19.8439C34.7476 19.8439 35.7337 20.8291 35.7338 22.047V29.9542C35.7338 31.1722 34.7477 32.1583 33.5297 32.1583H31.889V34.6163C31.889 36.3915 30.4445 37.836 28.6693 37.8361H9.49451C7.71943 37.8359 6.27478 36.3914 6.27478 34.6163V15.2628C6.27478 15.2376 6.28064 15.2149 6.28064 15.1925C6.24992 14.9014 6.34733 14.6015 6.56287 14.3888L14.0443 6.96399C14.0862 6.92488 14.1315 6.8883 14.1761 6.85754C14.1873 6.84921 14.2013 6.84048 14.2152 6.83215C14.2516 6.80978 14.2884 6.78742 14.3275 6.77063C14.3443 6.76223 14.3615 6.75377 14.3783 6.74817C14.4258 6.72861 14.4733 6.71443 14.5209 6.70325C14.5292 6.70321 14.535 6.69739 14.5433 6.69739C14.6019 6.68624 14.6605 6.68082 14.7191 6.68079H28.6722ZM15.7162 8.64075V13.3253C15.7161 14.8373 14.4869 16.0665 12.975 16.0665H8.23474V34.6193C8.23478 35.3135 8.80026 35.8789 9.49451 35.879H28.6693C29.3636 35.879 29.929 35.3136 29.9291 34.6193H29.932V32.1613H14.806C13.5882 32.1611 12.6029 31.175 12.6029 29.9572V22.0499C12.6029 20.8321 13.5882 19.847 14.806 19.8468H29.932V9.90051C29.9319 9.20632 29.3664 8.64089 28.6722 8.64075H15.7162ZM18.6029 23.2032V24.1915H20.1234V28.8009H21.308V24.1915H22.8285V23.2032H18.6029ZM23.6937 23.2032V28.8009H24.8812V23.2032H23.6937ZM26.2894 23.2032V28.8009H27.4564V26.5861H29.3549V25.6173H27.4564V24.1749H29.4984V23.2032H26.2894ZM13.7504 10.0187L9.62927 14.1095H12.972C13.4032 14.1095 13.7532 13.7593 13.7533 13.3282V10.0157L13.7504 10.0187Z" fill="#151752"></path>
</g>
</g>
</g>
<defs>
<clipPath id="clip0_693_299">
<rect width="42" height="42" fill="white"></rect>
</clipPath>
</defs>
</svg>