<svg width="42" height="42" viewBox="0 0 42 42" fill="none" xmlns="http://www.w3.org/2000/svg">
<g id="icon_ui_pdf">
<g id="icon_ui_pdf_2">
<g id="color_stroke">
<g id="Vector">
<path d="M18.928 24.1779C19.2528 24.1779 19.4906 24.2455 19.6418 24.3771C19.7929 24.5086 19.8683 24.7154 19.8684 24.9923C19.8684 25.2695 19.7789 25.4794 19.5969 25.6222C19.4149 25.765 19.1406 25.838 18.7766 25.838H18.3879V24.1779H18.928Z" fill="#151752"></path>
<path d="M23.9397 24.1779C25.0009 24.1779 25.5334 24.7804 25.5334 25.9816H25.5305C25.5304 27.2105 24.9589 27.8234 23.8167 27.8234H23.3069V24.1779H23.9397Z" fill="#151752"></path>
<path fill-rule="evenodd" clip-rule="evenodd" d="M28.6721 6.68079C30.4472 6.68086 31.8917 8.12549 31.8918 9.90051V19.8468H33.5325V19.8351C34.7505 19.8351 35.7366 20.8212 35.7366 22.0392V29.9464C35.7364 31.1642 34.7503 32.1495 33.5325 32.1495H31.8918V34.6075C31.8918 36.3827 30.4473 37.8282 28.6721 37.8282H9.49731C7.72224 37.8281 6.27759 36.3827 6.27759 34.6075V15.0587C6.27759 15 6.283 14.9436 6.29419 14.8849C6.29694 14.8794 6.29996 14.8738 6.30005 14.8683C6.31124 14.8179 6.3254 14.7674 6.34497 14.7198C6.35057 14.703 6.35903 14.6859 6.36743 14.6691C6.38421 14.6327 6.40367 14.5962 6.42603 14.5626C6.4344 14.5459 6.44318 14.5317 6.45435 14.5177C6.48785 14.473 6.5217 14.4308 6.56079 14.3917C6.56261 14.3897 6.56274 14.3868 6.56274 14.3868L14.0452 6.96106C14.087 6.92199 14.1314 6.88534 14.176 6.85461C14.1872 6.84621 14.2021 6.83762 14.2161 6.82922C14.2523 6.80696 14.2884 6.78735 14.3274 6.77063C14.3442 6.76223 14.3614 6.75377 14.3782 6.74817C14.4257 6.7286 14.4732 6.71444 14.5208 6.70325C14.5264 6.70325 14.5348 6.69739 14.5432 6.69739C14.602 6.6862 14.6612 6.68079 14.72 6.68079H28.6721ZM15.7161 8.64075V13.3253C15.716 14.8373 14.4868 16.0665 12.9749 16.0665H8.23462V34.6193C8.23464 35.3135 8.80018 35.8788 9.49438 35.879H28.6692C29.3636 35.879 29.9289 35.3136 29.929 34.6193H29.9319V32.1613H14.8059C13.5881 32.161 12.6028 31.175 12.6028 29.9572V22.0499C12.6028 20.8321 13.5882 19.8471 14.8059 19.8468H29.9319V9.90051C29.9317 9.20629 29.3664 8.64082 28.6721 8.64075H15.7161ZM17.1975 23.2062V28.8038H18.385V26.8126H18.8948C19.5888 26.8126 20.1233 26.6531 20.5012 26.3341C20.8792 26.0149 21.0676 25.5523 21.0676 24.9503L21.0618 24.9532C21.0617 24.3738 20.8852 23.9396 20.5325 23.6456C20.1797 23.3517 19.6612 23.2062 18.9836 23.2062H17.1975ZM22.1252 23.2032V28.8009H23.7102C24.6986 28.8009 25.4581 28.5575 25.9817 28.0675C26.5052 27.5775 26.7678 26.8715 26.7678 25.9503L26.7708 25.9474C26.7707 25.0823 26.5159 24.4075 26.012 23.9259C25.508 23.4444 24.7968 23.2032 23.884 23.2032H22.1252ZM27.927 23.2032V28.8009H29.095V26.5861H30.9934V25.6173H29.095V24.1749H31.136V23.2032H27.927ZM13.7512 10.0187L9.62915 14.1095H12.9719C13.403 14.1095 13.753 13.7593 13.7532 13.3282V10.0157L13.7512 10.0187Z" fill="#151752"></path>
</g>
</g>
</g>
</g>
</svg>