<svg width="15" height="15" viewBox="0 0 15 15" fill="none" xmlns="http://www.w3.org/2000/svg">
<g id="icon_menu_voting_simple" clip-path="url(#clip0_369_34)">
<g id="icon_menu_voting_simple_2">
<g id="color_stroke">
<path id="Vector" d="M13.0249 7.49999H12.0333L12.6083 6.89166C12.9249 6.55832 12.9083 6.04166 12.5833 5.72499L7.59158 0.866656C7.26658 0.54999 6.74158 0.54999 6.41658 0.87499L2.40825 4.90832C2.08325 5.23332 2.08325 5.75832 2.40825 6.08332L3.82492 7.49999H2.00825C1.38325 7.49999 0.866585 8.00832 0.866585 8.63332L0.833252 13.0167C0.833252 13.325 0.949919 13.6167 1.16659 13.8333C1.38325 14.05 1.67492 14.175 1.97492 14.175H13.0166C13.6499 14.175 14.1583 13.6583 14.1583 13.0333V8.65832C14.1583 8.02499 13.6416 7.51666 13.0166 7.51666L13.0249 7.49999ZM4.17492 5.49999L7.01659 2.64166L10.8249 6.34166L9.73325 7.49999H6.17492L4.17492 5.49999ZM12.4999 12.5H2.49992L2.52492 9.16666H12.4999V12.5Z" fill="#151752"></path>
</g>
</g>
</g>
<defs>
<clipPath id="clip0_369_34">
<rect width="15" height="15" fill="white"></rect>
</clipPath>
</defs>
</svg>