<svg width="15" height="15" viewBox="0 0 15 15" fill="none" xmlns="http://www.w3.org/2000/svg">
<g id="icon_menu_attachment_simple" clip-path="url(#clip0_369_30)">
<g id="icon_menu_attachment_simple_2">
<g id="color_stroke">
<path id="Vector" d="M8.14159 0.833313H7.99992C5.94159 0.833313 4.09992 2.15831 3.52492 4.05831C3.39159 4.49998 3.64159 4.96665 4.08325 5.09998C4.52492 5.23331 4.99159 4.98331 5.12492 4.54165C5.49159 3.34165 6.67492 2.49998 7.99992 2.49998H8.14159C9.62492 2.49998 10.8333 3.70831 10.8333 5.19165V9.79998C10.8333 11.2833 9.62492 12.4916 8.14159 12.4916H7.84159C6.27492 12.4916 4.99992 11.2166 4.99992 9.64998V8.53331C4.99992 7.95831 5.46659 7.49165 6.04159 7.49165C6.61659 7.49165 7.08325 7.95831 7.08325 8.53331C7.08325 8.99165 7.45825 9.36665 7.91659 9.36665C8.37492 9.36665 8.74992 8.99165 8.74992 8.53331C8.74992 7.04165 7.53325 5.82498 6.04159 5.82498C4.54992 5.82498 3.33325 7.04165 3.33325 8.53331V9.64998C3.33325 12.1333 5.35825 14.1583 7.84159 14.1583H8.14159C10.5499 14.1583 12.4999 12.2 12.4999 9.79998V5.19165C12.4999 2.78331 10.5416 0.833313 8.14159 0.833313Z" fill="#151752"></path>
</g>
</g>
</g>
<defs>
<clipPath id="clip0_369_30">
<rect width="15" height="15" fill="white"></rect>
</clipPath>
</defs>
</svg>