<svg width="182" height="56" viewBox="0 0 182 56" fill="none" xmlns="http://www.w3.org/2000/svg">
<g id="logo_votey" clip-path="url(#clip0_717_24)">
<g id="logo_votey_2">
<g id="color_stroke">
<g id="Vector">
<path d="M0 9.01038H11.8453L17.0529 26.7692C17.5649 28.6688 17.9781 30.5934 18.2907 32.5354H18.4223C18.4223 32.5354 19.0058 28.9722 19.6567 26.7692L24.8002 9.01038H36.713L25.3197 42.3887H11.5856L0 9.01038Z" fill="#07064E"></path>
<path d="M88.5935 18.3431H84.2966V9.59136H88.9173V0H99.8519V9.59136H106.884V18.3431H99.8519V28.5827C99.8519 32.3406 103.694 32.8612 105.842 32.8612C106.342 32.8645 106.842 32.8421 107.34 32.794V42.5163C106.326 42.6532 105.303 42.7182 104.28 42.7111C98.9413 42.7111 88.5935 41.2872 88.5935 30.0738V18.3431Z" fill="#07064E"></path>
<path d="M128.949 8.23124C138.845 8.23124 144.44 15.1024 144.44 24.3713C144.44 25.4729 144.181 27.8707 144.181 27.8707H123.026C123.873 31.9544 127.256 33.8317 130.838 33.8317C135.654 33.8317 140.079 30.4734 140.079 30.4734L144.248 38.3151C144.248 38.3151 138.852 43.1746 129.927 43.1746C117.95 43.1746 111.505 34.5571 111.505 25.6777C111.505 15.8781 118.146 8.23124 128.949 8.23124ZM133.115 21.453C133.115 18.9241 131.357 16.6573 128.689 16.6573C125.435 16.6573 123.873 18.9913 123.293 21.453H133.115Z" fill="#07064E"></path>
<path d="M150.039 45.4347C150.039 45.4347 151.864 46.6672 153.49 46.6672C155.314 46.6672 157.723 46.1467 158.886 43.3089L159.537 41.754L145.29 9.01038H158.046L162.994 24.3713C163.581 26.1949 164.232 29.5532 164.232 29.5532H164.36C164.36 29.5532 165.011 26.3796 165.467 24.5628L169.699 9.01038H182L168.266 45.9519C165.467 53.4074 159.608 56 154.272 56C151.503 55.9506 148.8 55.1431 146.461 53.666L150.039 45.4347Z" fill="#07064E"></path>
</g>
<path id="Vector_2" d="M59.4289 6.3808C47.8534 6.3808 38.5175 14.1855 38.5175 25.7852C38.5175 37.3109 47.8669 44.9713 59.5132 44.9713C71.1595 44.9713 80.5123 37.3109 80.5123 25.7852C80.4988 14.1956 71.1662 6.3808 59.4289 6.3808ZM73.2911 31.4003L65.9721 39.0539L59.4997 32.9317L53.0306 39.064L45.7117 31.4104L51.8063 25.6341L45.7117 19.8611L53.0306 12.2041L59.4997 18.3398L65.9721 12.2041L73.2911 19.8611L67.1964 25.6341L73.2911 31.4003Z" fill="#2AF5BA"></path>
</g>
</g>
</g>
<defs>
<clipPath id="clip0_717_24">
<rect width="182" height="56" fill="white"></rect>
</clipPath>
</defs>
</svg>