<svg width="42" height="42" viewBox="0 0 42 42" fill="none" xmlns="http://www.w3.org/2000/svg">
<g id="icon_ui_doc">
<g id="icon_ui_doc_2">
<g id="color_stroke">
<g id="vector">
<path d="M24.0908 24.4297C25.0316 24.4297 25.502 25.0631 25.502 26.3203C25.5019 27.5773 25.0284 28.207 24.082 28.207C23.6091 28.2069 23.2565 28.0448 23.0186 27.7314C22.7806 27.4179 22.6631 26.9446 22.6631 26.3203C22.6631 25.6959 22.7864 25.2226 23.0244 24.9062C23.2624 24.5899 23.6176 24.4297 24.0908 24.4297Z" fill="#151752"></path>
<path d="M17.6816 24.5029C18.7427 24.5029 19.2743 25.1047 19.2744 26.3057H19.2725C19.2725 27.5348 18.7009 28.1484 17.5586 28.1484H17.0488V24.5029H17.6816Z" fill="#151752"></path>
<path fill-rule="evenodd" clip-rule="evenodd" d="M28.3975 7C30.1725 7.00014 31.617 8.44474 31.6172 10.2197V20.166H33.2578L33.2549 20.1602C34.4728 20.1602 35.4588 21.1454 35.459 22.3633V30.2705C35.459 31.4885 34.4729 32.4746 33.2549 32.4746H31.6143V34.9326C31.6143 36.7078 30.1697 38.1523 28.3945 38.1523H9.21973C7.44465 38.1522 6 36.7077 6 34.9326V15.5791C6.00001 15.5539 6.00586 15.5312 6.00586 15.5088C5.9752 15.2179 6.07285 14.9187 6.28809 14.7061L13.7695 7.28027C13.8114 7.24115 13.8567 7.20459 13.9014 7.17383C13.9125 7.16549 13.9265 7.15678 13.9404 7.14844C13.9768 7.12606 14.0136 7.10663 14.0527 7.08984C14.0695 7.08144 14.0867 7.07298 14.1035 7.06738C14.151 7.04783 14.1986 7.03364 14.2461 7.02246C14.2517 7.0224 14.2602 7.0166 14.2686 7.0166C14.3271 7.00545 14.3858 7.00003 14.4443 7H28.3975ZM15.4414 8.95996V13.6445C15.4413 15.1565 14.2122 16.3857 12.7002 16.3857H7.95996V34.9385C7.96 35.6328 8.52548 36.1981 9.21973 36.1982H28.3945C29.0888 36.1982 29.6543 35.6328 29.6543 34.9385H29.6572V32.4805H14.5312C13.3134 32.4803 12.3281 31.4943 12.3281 30.2764V22.3691C12.3282 21.1513 13.3134 20.1662 14.5312 20.166H29.6572V10.2197C29.6571 9.52554 29.0917 8.9601 28.3975 8.95996H15.4414ZM30.2812 23.4531C29.7496 23.4532 29.2851 23.5677 28.8877 23.8027C28.4902 24.0379 28.1846 24.3739 27.9746 24.8105C27.7646 25.2473 27.6582 25.7574 27.6582 26.3398C27.6582 27.2637 27.8736 27.9693 28.3047 28.4648C28.7359 28.9604 29.3581 29.207 30.1729 29.207C30.7411 29.207 31.2538 29.1083 31.7129 28.918V27.9248C31.1529 28.1208 30.6762 28.2188 30.2842 28.2188C29.3465 28.2186 28.879 27.5941 28.8789 26.3457C28.8789 25.7465 28.9997 25.2784 29.2461 24.9424C29.4924 24.6066 29.8392 24.4385 30.2842 24.4385L30.2793 24.4414C30.4835 24.4415 30.6907 24.48 30.9033 24.5527C31.1161 24.6255 31.3261 24.7127 31.5361 24.8135L31.9199 23.8477C31.3711 23.5845 30.8133 23.4531 30.2812 23.4531ZM24.0967 23.4414C23.2344 23.4414 22.5762 23.6879 22.1143 24.1777C21.6523 24.6677 21.4229 25.3792 21.4229 26.3115C21.4229 27.2438 21.6522 27.9577 22.1113 28.4561C22.5705 28.9544 23.2283 29.204 24.085 29.2041C24.9418 29.2041 25.6004 28.9545 26.0596 28.4561C26.5185 27.9577 26.748 27.2467 26.748 26.3203H26.7539C26.7539 25.3907 26.5267 24.6792 26.0703 24.1836C25.614 23.6881 24.9589 23.4415 24.0967 23.4414ZM15.8643 23.5283V29.126H17.4492C18.4376 29.126 19.1961 28.8816 19.7197 28.3916C20.2433 27.9016 20.5068 27.1965 20.5068 26.2754L20.5098 26.2725C20.5098 25.4073 20.2549 24.7326 19.751 24.251C19.247 23.7694 18.5357 23.5284 17.623 23.5283H15.8643ZM13.4785 10.3379L9.35742 14.4287H12.7002C13.1313 14.4287 13.4813 14.0785 13.4814 13.6475V10.335L13.4785 10.3379Z" fill="#151752"></path>
</g>
</g>
</g>
</g>
</svg>