<svg width="42" height="42" viewBox="0 0 42 42" fill="none" xmlns="http://www.w3.org/2000/svg">
<g id="icon_ui_eml" clip-path="url(#clip0_693_304)">
<g id="icon_ui_eml_2">
<g id="color_stroke">
<path id="Vector" fill-rule="evenodd" clip-rule="evenodd" d="M28.672 6.68079C30.4471 6.68079 31.8916 8.12544 31.8917 9.90051V19.8468H33.5323L33.5353 19.8409C34.7532 19.8409 35.7392 20.8262 35.7394 22.0441V29.9513C35.7394 31.1693 34.7533 32.1554 33.5353 32.1554H31.8947V34.6134C31.8947 36.3886 30.4501 37.8331 28.6749 37.8331H9.50012C7.72505 37.833 6.2804 36.3885 6.2804 34.6134V15.2599C6.28041 15.2347 6.28625 15.2119 6.28625 15.1896C6.2556 14.8987 6.35324 14.5995 6.56848 14.3868L14.0499 6.96106C14.0918 6.92194 14.1371 6.88538 14.1818 6.85461C14.1929 6.84627 14.2069 6.83757 14.2208 6.82922C14.2544 6.80687 14.2911 6.78741 14.3302 6.77063C14.347 6.76223 14.3642 6.75377 14.381 6.74817C14.4257 6.72861 14.4731 6.71443 14.5206 6.70325C14.529 6.70325 14.5376 6.69739 14.546 6.69739C14.602 6.6862 14.6611 6.68079 14.7198 6.68079H28.672ZM15.7159 8.64075V13.3253C15.7159 14.8373 14.4867 16.0665 12.9747 16.0665H8.2345V34.6193C8.23454 35.3136 8.80086 35.879 9.49524 35.879H28.6691C29.3634 35.879 29.9288 35.3136 29.9288 34.6193H29.9318V32.1613H14.8068C13.5888 32.1613 12.6027 31.1752 12.6027 29.9572V22.0499C12.6027 20.832 13.5888 19.8468 14.8068 19.8468H29.9318V9.90051C29.9316 9.20624 29.3663 8.64075 28.672 8.64075H15.7159ZM16.7667 23.2032V28.8009H19.9894V27.8185H17.9532V26.3761H19.8488V25.4044H17.9532V24.1749H19.9894V23.2032H16.7667ZM21.1564 23.2032V28.8009H22.2179V26.1964C22.2179 25.8995 22.1932 25.3031 22.1456 24.4103H22.1788L23.5255 28.8009H24.6144L26.0568 24.4191H26.09C26.062 25.1245 26.0458 25.5584 26.0402 25.7208C26.0346 25.8832 26.0343 26.0265 26.0343 26.1525V28.8009H27.1407V23.2032H25.5245L24.1193 27.4845H24.0968L22.7726 23.2032H21.1564ZM28.549 23.2032V28.8009H32.007V27.8204H29.7365V23.2032H28.549ZM13.754 10.0187L9.63196 14.1095H12.9747C13.4058 14.1095 13.7558 13.7593 13.756 13.3282V10.0157L13.754 10.0187Z" fill="#151752"></path>
</g>
</g>
</g>
<defs>
<clipPath id="clip0_693_304">
<rect width="42" height="42" fill="white"></rect>
</clipPath>
</defs>
</svg>