<svg width="24" height="24" viewBox="0 0 24 24" fill="none" xmlns="http://www.w3.org/2000/svg">
<g id="icon_ui_poland" clip-path="url(#clip0_631_110)">
<g id="icon_ui_poland_2">
<g id="stroke">
<path id="Vector" d="M11.74 21.73C10.45 21.73 9.15 21.48 7.92 20.97C5.46 19.95 3.54 18.03 2.52 15.57C0.410002 10.48 2.83 4.62002 7.92 2.52002C13.01 0.410016 18.86 2.84002 20.97 7.92002C21.99 10.38 21.99 13.1 20.97 15.56C19.95 18.02 18.03 19.94 15.57 20.96C14.34 21.47 13.04 21.73 11.75 21.73H11.74ZM11.73 3.76002C10.71 3.76002 9.68 3.96002 8.69 4.37002C4.62 6.06002 2.68 10.74 4.37 14.8C5.19 16.77 6.72 18.31 8.69 19.12C10.66 19.94 12.83 19.94 14.8 19.12C16.77 18.3 18.31 16.77 19.12 14.8C19.94 12.83 19.94 10.66 19.12 8.69001C17.85 5.62001 14.87 3.76002 11.73 3.76002Z" fill="#07064E"></path>
<path id="Vector_2" d="M8.3 3.44001C3.72 5.34001 1.54 10.59 3.44 15.18C4.86 18.61 8.15999 20.69 11.65 20.73H11.71C12.87 20.73 14.04 20.52 15.18 20.05C19.76 18.15 21.94 12.89 20.04 8.31001C18.62 4.89001 15.34 2.81001 11.86 2.76001H11.72C10.58 2.76001 9.42 2.98001 8.3 3.44001Z" fill="white"></path>
<path id="Vector_3" d="M3.44001 15.18C4.86001 18.61 8.17001 20.7 11.66 20.73H11.7C12.86 20.73 14.04 20.52 15.18 20.04C18.64 18.61 20.72 15.26 20.73 11.74H2.76001C2.76001 12.89 2.98001 14.05 3.44001 15.18Z" fill="#F00014"></path>
</g>
</g>
</g>
<defs>
<clipPath id="clip0_631_110">
<rect width="24" height="24" fill="white"></rect>
</clipPath>
</defs>
</svg>