<svg width="42" height="42" viewBox="0 0 42 42" fill="none" xmlns="http://www.w3.org/2000/svg">
<g id="icon_ui_zip" clip-path="url(#clip0_693_291)">
<g id="icon_ui_zip_2">
<g id="color_stroke">
<g id="Vector">
<path d="M27.7875 24.1779C28.1121 24.1779 28.3502 24.2455 28.5014 24.3771C28.6524 24.5087 28.7279 24.7162 28.7279 24.9933C28.7278 25.2703 28.6383 25.4805 28.4565 25.6232C28.2745 25.7659 28 25.838 27.6361 25.838H27.2465V24.1779H27.7875Z" fill="#151752"></path>
<path fill-rule="evenodd" clip-rule="evenodd" d="M28.6723 6.68079C30.4473 6.68093 31.8918 8.12552 31.892 9.90051V19.8468H33.5326L33.5297 19.8409C34.7476 19.8409 35.7336 20.8262 35.7338 22.0441V29.9513C35.7338 31.1693 34.7477 32.1554 33.5297 32.1554H31.8891V34.6134C31.8891 36.3886 30.4445 37.8331 28.6693 37.8331H9.49454C7.71946 37.833 6.27481 36.3885 6.27481 34.6134V15.2599C6.27483 15.2347 6.28067 15.2119 6.28067 15.1896C6.25001 14.8987 6.34766 14.5995 6.5629 14.3868L14.0443 6.96106C14.0863 6.92194 14.1315 6.88538 14.1762 6.85461C14.1873 6.84627 14.2013 6.83757 14.2152 6.82922C14.2516 6.80685 14.2884 6.78742 14.3275 6.77063C14.3443 6.76223 14.3615 6.75377 14.3783 6.74817C14.4259 6.72861 14.4734 6.71443 14.5209 6.70325C14.5265 6.70319 14.535 6.69739 14.5434 6.69739C14.6019 6.68624 14.6606 6.68082 14.7191 6.68079H28.6723ZM15.7162 8.64075V13.3253C15.7161 14.8373 14.487 16.0665 12.975 16.0665H8.23477V34.6193C8.23481 35.3135 8.80029 35.8789 9.49454 35.879H28.6693C29.3637 35.879 29.9291 35.3136 29.9291 34.6193H29.932V32.1613H14.8061C13.5882 32.1611 12.6029 31.175 12.6029 29.9572V22.0499C12.603 20.8321 13.5882 19.847 14.8061 19.8468H29.932V9.90051C29.9319 9.20632 29.3665 8.64089 28.6723 8.64075H15.7162ZM26.057 23.2062V28.8038H27.2436V26.8126H27.7533C28.4477 26.8126 28.9828 26.6533 29.3607 26.3341C29.7386 26.015 29.9261 25.5531 29.9262 24.9513L29.9203 24.9532C29.9202 24.3739 29.7447 23.9396 29.392 23.6456C29.0392 23.3516 28.5208 23.2062 27.8432 23.2062H26.057ZM18.4799 23.2032V24.1837H21.0893L18.4076 28.0304V28.8009H22.5736V27.8185H19.8207L22.5004 23.9679V23.2032H18.4799ZM23.4672 23.2032V28.8009H24.6537V23.2032H23.4672ZM13.7504 10.0187L9.6293 14.1095H12.9721C13.4032 14.1095 13.7532 13.7593 13.7533 13.3282V10.0157L13.7504 10.0187Z" fill="#151752"></path>
</g>
</g>
</g>
</g>
<defs>
<clipPath id="clip0_693_291">
<rect width="42" height="42" fill="white"></rect>
</clipPath>
</defs>
</svg>