<svg width="42" height="42" viewBox="0 0 42 42" fill="none" xmlns="http://www.w3.org/2000/svg">
<g id="icon_ui_xls" clip-path="url(#clip0_693_284)">
<g id="icon_ui_xls_2">
<g id="color_stroke">
<path id="Vector" fill-rule="evenodd" clip-rule="evenodd" d="M28.6722 6.68079C30.4472 6.68093 31.8918 8.12552 31.892 9.90051V19.8468H33.5326L33.5297 19.8409C34.7476 19.8409 35.7336 20.8262 35.7338 22.0441V29.9513C35.7338 31.1693 34.7477 32.1554 33.5297 32.1554H31.889V34.6134C31.889 36.3886 30.4445 37.8331 28.6693 37.8331H9.49451C7.71943 37.833 6.27478 36.3885 6.27478 34.6134V15.2599C6.27479 15.2347 6.28064 15.2119 6.28064 15.1896C6.24998 14.8987 6.34763 14.5995 6.56287 14.3868L14.0443 6.96106C14.0862 6.92194 14.1314 6.88538 14.1761 6.85461C14.1873 6.84627 14.2013 6.83757 14.2152 6.82922C14.2516 6.80685 14.2884 6.78742 14.3275 6.77063C14.3443 6.76223 14.3615 6.75377 14.3783 6.74817C14.4258 6.72861 14.4733 6.71443 14.5209 6.70325C14.5265 6.70319 14.535 6.69739 14.5433 6.69739C14.6019 6.68624 14.6605 6.68082 14.7191 6.68079H28.6722ZM15.7162 8.64075V13.3253C15.7161 14.8373 14.4869 16.0665 12.975 16.0665H8.23474V34.6193C8.23478 35.3135 8.80026 35.8789 9.49451 35.879H28.6693C29.3636 35.879 29.929 35.3136 29.9291 34.6193H29.932V32.1613H14.806C13.5882 32.1611 12.6029 31.175 12.6029 29.9572V22.0499C12.6029 20.8321 13.5882 19.847 14.806 19.8468H29.932V9.90051C29.9319 9.20632 29.3664 8.64089 28.6722 8.64075H15.7162ZM29.3129 23.131C28.7222 23.131 28.2572 23.274 27.9213 23.5568C27.5856 23.8395 27.4174 24.2285 27.4174 24.7238C27.4174 24.987 27.4709 25.2144 27.5717 25.4132C27.6724 25.6119 27.8101 25.7853 27.9808 25.9308C28.1516 26.0763 28.409 26.2332 28.7504 26.3927C29.1144 26.5663 29.3584 26.6922 29.476 26.7706C29.5933 26.8489 29.6829 26.9301 29.7445 27.0167C29.8061 27.1035 29.8363 27.2024 29.8363 27.3116C29.8362 27.5102 29.7662 27.6581 29.6263 27.756C29.4864 27.8539 29.288 27.9044 29.0277 27.9044C28.8121 27.9044 28.5713 27.8681 28.3109 27.8009C28.0505 27.7337 27.7309 27.6134 27.3529 27.4454V28.549C27.8121 28.7729 28.3415 28.8849 28.9379 28.8849C29.5845 28.8849 30.0915 28.7394 30.4554 28.4484C30.8194 28.1572 31.0013 27.7561 31.0013 27.2521H30.9984C30.9984 26.8882 30.9005 26.5802 30.7074 26.3282C30.5142 26.0763 30.1557 25.8245 29.6322 25.5753C29.2347 25.3877 28.9857 25.2555 28.8793 25.1827C28.7729 25.11 28.6944 25.0345 28.6469 24.9562C28.5993 24.8778 28.5736 24.7853 28.5736 24.6818C28.5737 24.5139 28.633 24.3771 28.7533 24.2736C28.8736 24.17 29.047 24.1164 29.2709 24.1163C29.4613 24.1163 29.652 24.1392 29.848 24.1896C30.044 24.24 30.2907 24.3232 30.5902 24.4464L30.974 23.5255C30.6856 23.3995 30.4081 23.3045 30.1449 23.2345C29.8817 23.1645 29.6041 23.131 29.3129 23.131ZM17.4525 23.2091L19.1908 25.92L17.3344 28.8068H18.6058L19.9076 26.6896L21.2103 28.8068H22.5629L20.6722 25.9835L22.431 23.2091H21.1508L19.9691 25.2228L18.7631 23.2091H17.4525ZM23.2679 23.2091V28.8068H26.726V27.8263H24.4554V23.2091H23.2679ZM13.7533 10.0187L9.6322 14.1095H12.975C13.4061 14.1095 13.7561 13.7593 13.7562 13.3282V10.0157L13.7533 10.0187Z" fill="#151752"></path>
</g>
</g>
</g>
<defs>
<clipPath id="clip0_693_284">
<rect width="42" height="42" fill="white"></rect>
</clipPath>
</defs>
</svg>