<svg width="42" height="42" viewBox="0 0 42 42" fill="none" xmlns="http://www.w3.org/2000/svg">
<g id="icon_ui_mp3" clip-path="url(#clip0_693_317)">
<g id="icon_ui_mp3_2">
<g id="color_stroke">
<g id="Vector">
<path d="M25.5978 24.1808C25.9225 24.1808 26.1605 24.2484 26.3116 24.38C26.4626 24.5116 26.5381 24.7183 26.5382 24.9952C26.5382 25.2724 26.4486 25.4823 26.2667 25.6251C26.0847 25.7679 25.8104 25.8409 25.4464 25.8409H25.0568V24.1808H25.5978Z" fill="#151752"></path>
<path fill-rule="evenodd" clip-rule="evenodd" d="M28.672 6.68079C30.4471 6.68079 31.8916 8.12544 31.8917 9.90051V19.8468H33.5323L33.5353 19.8409C34.7532 19.8409 35.7392 20.8262 35.7394 22.0441V29.9513C35.7394 31.1693 34.7533 32.1554 33.5353 32.1554H31.8947V34.6134C31.8947 36.3886 30.4501 37.8331 28.6749 37.8331H9.50012C7.72505 37.833 6.2804 36.3885 6.2804 34.6134V15.2599C6.28041 15.2347 6.28625 15.2119 6.28625 15.1896C6.2556 14.8987 6.35324 14.5995 6.56848 14.3868L14.0499 6.96106C14.0918 6.92194 14.1371 6.88538 14.1818 6.85461C14.1929 6.84627 14.2069 6.83757 14.2208 6.82922C14.2544 6.80687 14.2911 6.78741 14.3302 6.77063C14.347 6.76223 14.3642 6.75377 14.381 6.74817C14.4257 6.72861 14.4731 6.71443 14.5206 6.70325C14.529 6.70325 14.5376 6.69739 14.546 6.69739C14.602 6.6862 14.6611 6.68079 14.7198 6.68079H28.672ZM15.7159 8.64075V13.3253C15.7159 14.8373 14.4867 16.0665 12.9747 16.0665H8.2345V34.6193C8.23454 35.3136 8.80086 35.879 9.49524 35.879H28.6691C29.3634 35.879 29.9288 35.3136 29.9288 34.6193H29.9318V32.1613H14.8068C13.5888 32.1613 12.6027 31.1752 12.6027 29.9572V22.0499C12.6027 20.832 13.5888 19.8468 14.8068 19.8468H29.9318V9.90051C29.9316 9.20624 29.3663 8.64075 28.672 8.64075H15.7159ZM30.2208 23.1251C29.5152 23.1251 28.9043 23.3101 28.3947 23.6769L28.9435 24.4913C29.1759 24.3429 29.3859 24.2365 29.5763 24.1749C29.7667 24.1133 29.952 24.0831 30.1368 24.0831C30.6658 24.0832 30.9318 24.2962 30.9318 24.7189C30.9316 24.993 30.8334 25.1862 30.632 25.3009C30.4304 25.4157 30.1137 25.4718 29.6798 25.4718H29.2491V26.379H29.674C30.1416 26.379 30.4837 26.4321 30.6993 26.5441C30.9148 26.656 31.0215 26.8407 31.0216 27.1036C31.0216 27.3948 30.9289 27.6107 30.7413 27.7423C30.5537 27.8739 30.2653 27.9415 29.8761 27.9415C29.6215 27.9415 29.3639 27.9079 29.1036 27.838C28.8433 27.768 28.6024 27.6776 28.3868 27.5685V28.5773C28.8571 28.7787 29.3947 28.879 30.0021 28.879C30.7244 28.879 31.2848 28.7284 31.674 28.4288C32.0632 28.1292 32.2589 27.7086 32.2589 27.171C32.2589 26.8015 32.1436 26.5076 31.9113 26.2892C31.6789 26.0709 31.3375 25.934 30.8868 25.8781V25.8556C31.2704 25.766 31.5704 25.5971 31.7804 25.3507C31.9901 25.1044 32.0968 24.8078 32.0968 24.4581C32.0968 24.0382 31.9288 23.7129 31.5929 23.4777C31.257 23.2425 30.8002 23.1252 30.2208 23.1251ZM23.8673 23.2091V28.8068H25.0548V26.8156H25.5636C26.2578 26.8156 26.793 26.6561 27.171 26.337C27.549 26.0178 27.7365 25.5552 27.7365 24.9532L27.7316 24.9562C27.7315 24.3767 27.555 23.9425 27.2023 23.6486C26.8495 23.3546 26.331 23.2091 25.6534 23.2091H23.8673ZM16.4777 23.2062V28.8038H17.5392V26.1993C17.5392 25.9025 17.5135 25.3062 17.4659 24.4132H17.5001L18.8468 28.8038H19.9357L21.3781 24.422H21.4113C21.3833 25.1273 21.367 25.5614 21.3615 25.7238C21.3559 25.8859 21.3556 26.0286 21.3556 26.1544V28.8038H22.462V23.2062H20.8458L19.4406 27.4874H19.4181L18.0939 23.2062H16.4777ZM13.7511 10.0187L9.62903 14.1095H12.9728C13.4037 14.1093 13.7539 13.7592 13.754 13.3282V10.0157L13.7511 10.0187Z" fill="#151752"></path>
</g>
</g>
</g>
</g>
<defs>
<clipPath id="clip0_693_317">
<rect width="42" height="42" fill="white"></rect>
</clipPath>
</defs>
</svg>