<svg width="26" height="26" viewBox="0 0 26 26" fill="none" xmlns="http://www.w3.org/2000/svg">
<g id="icon_ui_not-visible" clip-path="url(#clip0_420_173)">
<g id="icon_ui_not-visible_2">
<g id="color_stroke">
<path id="Vector" d="M19.0562 7.88665L24.6064 2.33652C24.8438 2.09905 24.8438 1.71598 24.6064 1.47852C24.3689 1.24105 23.9858 1.24105 23.7484 1.47852L17.8741 7.35278C16.3124 6.73225 14.6674 6.40465 13 6.40465C8.60077 6.40465 4.36277 8.67531 1.37104 12.636C1.20811 12.8526 1.20811 13.1508 1.37104 13.3674C2.96571 15.4786 4.91571 17.1097 7.05464 18.1722L1.56171 23.6652C1.32424 23.9026 1.32424 24.2857 1.56171 24.5232C1.67957 24.641 1.83557 24.7 1.99157 24.7C2.14757 24.7 2.30184 24.641 2.42144 24.5232L8.24891 18.6957C9.77424 19.285 11.3776 19.597 13.0017 19.597C17.4009 19.597 21.6389 17.3264 24.6306 13.3657C24.7936 13.149 24.7936 12.8509 24.6306 12.6342C23.0637 10.5594 21.1536 8.94918 19.058 7.88665H19.0562ZM2.62424 13C5.36291 9.57318 9.12077 7.61625 13 7.61625C14.3381 7.61625 15.6606 7.84852 16.9312 8.29398L15.3226 9.90252C14.6744 9.41545 13.8701 9.12598 12.9982 9.12598C10.8628 9.12598 9.12424 10.8645 9.12424 13C9.12424 13.8718 9.41371 14.6761 9.90077 15.3244L7.96464 17.2605C5.97304 16.347 4.14091 14.8997 2.62251 13H2.62424ZM15.6606 13C15.6606 14.4664 14.4664 15.6606 13 15.6606C12.5077 15.6606 12.0484 15.5237 11.6532 15.2897L15.2914 11.6514C15.5254 12.0466 15.6624 12.5077 15.6624 12.9982L15.6606 13ZM10.3393 13C10.3393 11.5336 11.5336 10.3393 13 10.3393C13.5356 10.3393 14.0348 10.5005 14.4525 10.7744L10.7744 14.4525C10.5005 14.0348 10.3393 13.5356 10.3393 13ZM13 18.3837C11.7069 18.3837 10.4277 18.1653 9.19531 17.7493L10.7744 16.1702C11.4053 16.614 12.1714 16.8757 13 16.8757C15.1354 16.8757 16.874 15.1372 16.874 13.0017C16.874 12.1732 16.6122 11.407 16.1685 10.7761L18.1497 8.79492C20.098 9.71012 21.8885 11.1384 23.3774 13.0017C20.6388 16.4285 16.8809 18.3854 13.0017 18.3854L13 18.3837Z" fill="#151752"></path>
</g>
</g>
</g>
<defs>
<clipPath id="clip0_420_173">
<rect width="26" height="26" fill="white"></rect>
</clipPath>
</defs>
</svg>