<svg width="15" height="15" viewBox="0 0 15 15" fill="none" xmlns="http://www.w3.org/2000/svg">
<g id="icon_menu_proxy_simple" clip-path="url(#clip0_369_26)">
<g id="icon_menu_proxy_simple_2">
<g id="color_stroke">
<g id="Vector">
<path d="M6.66658 12.5H2.49992V11.7C2.49992 10.3 3.74159 9.16666 5.25825 9.16666H6.66658C7.12492 9.16666 7.49992 8.79166 7.49992 8.33333C7.49992 7.875 7.12492 7.5 6.66658 7.5H5.25825C2.81659 7.5 0.833252 9.38333 0.833252 11.7V13.3333C0.833252 13.7917 1.20825 14.1667 1.66659 14.1667H6.66658C7.12492 14.1667 7.49992 13.7917 7.49992 13.3333C7.49992 12.875 7.12492 12.5 6.66658 12.5Z" fill="#151752"></path>
<path d="M6.24992 6.60833C7.82492 6.60833 9.10825 5.325 9.10825 3.75C9.10825 2.175 7.82492 0.891663 6.24992 0.891663C4.67492 0.891663 3.39159 2.175 3.39159 3.75C3.39159 5.325 4.67492 6.60833 6.24992 6.60833ZM6.24992 2.44166C6.97492 2.44166 7.55825 3.03333 7.55825 3.75C7.55825 4.46666 6.96659 5.05833 6.24992 5.05833C5.53325 5.05833 4.94159 4.46666 4.94159 3.75C4.94159 3.03333 5.53325 2.44166 6.24992 2.44166Z" fill="#151752"></path>
<path d="M13.3333 10H11.6666V8.33333C11.6666 7.875 11.2916 7.5 10.8333 7.5C10.3749 7.5 9.99992 7.875 9.99992 8.33333V10H8.33325C7.87492 10 7.49992 10.375 7.49992 10.8333C7.49992 11.2917 7.87492 11.6667 8.33325 11.6667H9.99992V13.3333C9.99992 13.7917 10.3749 14.1667 10.8333 14.1667C11.2916 14.1667 11.6666 13.7917 11.6666 13.3333V11.6667H13.3333C13.7916 11.6667 14.1666 11.2917 14.1666 10.8333C14.1666 10.375 13.7916 10 13.3333 10Z" fill="#151752"></path>
</g>
</g>
</g>
</g>
<defs>
<clipPath id="clip0_369_26">
<rect width="15" height="15" fill="white"></rect>
</clipPath>
</defs>
</svg>