<svg width="42" height="42" viewBox="0 0 42 42" fill="none" xmlns="http://www.w3.org/2000/svg">
<g id="icon_ui_txt" clip-path="url(#clip0_693_295)">
<g id="icon_ui_txt_2">
<g id="color_stroke">
<path id="Vector" fill-rule="evenodd" clip-rule="evenodd" d="M28.6721 6.68082C30.4472 6.68089 31.8917 8.12551 31.8918 9.90054V19.8468H33.5325V19.841C34.7504 19.841 35.7364 20.8262 35.7366 22.0441V29.9513C35.7366 31.1693 34.7505 32.1554 33.5325 32.1554H31.8918V34.6134C31.8918 36.3886 30.4473 37.8331 28.6721 37.8332H9.49731C7.72224 37.833 6.27759 36.3885 6.27759 34.6134V15.2599C6.2776 15.2348 6.28345 15.212 6.28345 15.1896C6.25279 14.8987 6.35044 14.5996 6.56567 14.3869L14.0471 6.96109C14.089 6.92197 14.1342 6.88541 14.179 6.85464C14.1929 6.84628 14.207 6.83762 14.2209 6.82925C14.2573 6.80688 14.294 6.78745 14.3303 6.77066C14.3471 6.76226 14.3643 6.7538 14.3811 6.7482C14.4258 6.72865 14.4732 6.71446 14.5208 6.70328C14.5292 6.70328 14.5377 6.69742 14.5461 6.69742C14.6021 6.68624 14.6612 6.68082 14.72 6.68082H28.6721ZM15.7161 8.64078V13.3253C15.716 14.8373 14.4868 16.0666 12.9749 16.0666H8.23462V34.6193C8.23466 35.3135 8.80019 35.8788 9.49438 35.8791H28.6692C29.3636 35.8791 29.9289 35.3137 29.929 34.6193H29.9319V32.1613H14.8059C13.5881 32.161 12.6028 31.175 12.6028 29.9572V22.05C12.6028 20.8321 13.5881 19.8471 14.8059 19.8468H29.9319V9.90054C29.9317 9.20631 29.3664 8.64085 28.6721 8.64078H15.7161ZM17.1692 23.2033V24.1916H18.6897V28.8009H19.8743V24.1916H21.3948V23.2033H17.1692ZM21.6692 23.2033L23.4084 25.9142L21.552 28.8009H22.8225L24.1252 26.6837L25.427 28.8009H26.7795L24.8889 25.9787L26.6477 23.2033H25.3684L24.1868 25.2169L22.9797 23.2033H21.6692ZM26.9387 23.2033V24.1916H28.4592V28.8009H29.6438V24.1916H31.1643V23.2033H26.9387ZM13.7512 10.0187L9.62915 14.1095H12.9719C13.403 14.1095 13.753 13.7594 13.7532 13.3283V10.0158L13.7512 10.0187Z" fill="#151752"></path>
</g>
</g>
</g>
<defs>
<clipPath id="clip0_693_295">
<rect width="42" height="42" fill="white"></rect>
</clipPath>
</defs>
</svg>