<svg width="200" height="140" viewBox="0 0 200 140" fill="none" xmlns="http://www.w3.org/2000/svg">
<g id="Size=Default" clip-path="url(#clip0_527_239)">
<g id="illu_bg_vote-as-proxy">
<g id="background">
<path d="M194.435 123.935C193.12 121.385 189.385 120.695 186.09 122.395C182.795 124.095 181.195 127.54 182.51 130.085C183.825 132.635 187.56 133.325 190.855 131.625C194.15 129.925 195.75 126.48 194.435 123.935Z" fill="#2BF5BA"></path>
<path d="M193.01 114.675C193.7 114.32 193.97 113.47 193.615 112.78C193.26 112.09 192.41 111.82 191.72 112.175C191.03 112.53 190.76 113.38 191.115 114.07C191.47 114.76 192.32 115.03 193.01 114.675Z" fill="#2BF5BA"></path>
<path d="M21.4299 25.0035C27.6019 22.6195 31.2219 17.1056 29.5154 12.6878C27.809 8.27012 21.4223 6.62149 15.2504 9.00551C9.07845 11.3895 5.45845 16.9035 7.16488 21.3212C8.87131 25.7389 15.258 27.3875 21.4299 25.0035Z" fill="#2BF5BA"></path>
<path d="M145.225 16.3101C108.15 -1.30991 57.7598 5.67009 44.9898 13.5051C14.3598 32.2901 31.0998 47.6701 17.7948 65.2451C-2.94519 92.6451 5.39481 148.365 90.6748 131.61C122.015 125.455 167.335 145.915 183.315 111.675C200.665 74.5001 185.14 35.2651 145.23 16.3051L145.225 16.3101Z" fill="#2BF5BA"></path>
</g>
<g id="illu_bg_vote-as-proxy_2">
<g id="stroke">
<path id="Vector" d="M129.095 116.41H41.5146V118.285H129.095V116.41Z" fill="#2AEDB4"></path>
<path id="Vector_2" d="M83.4747 79.2698C83.2797 83.8848 80.5397 88.0448 77.8897 91.0198C75.2847 93.9448 70.6797 93.9198 68.1047 90.9648C65.2997 87.7498 62.2747 83.3648 62.1797 79.3348C64.8597 77.6748 66.8297 75.6748 66.7347 67.6948C70.5247 71.9998 73.7897 72.4748 78.8597 67.6948C78.7597 74.3248 80.1697 77.7448 83.4797 79.2648L83.4747 79.2698Z" fill="white"></path>
<path id="Vector_3" d="M72.76 31.885C68.75 26.69 56.26 30.53 54.97 46.185C54.34 53.84 49.9799 59.12 48.9049 63.165C46.0599 73.915 66.54 71.88 66.54 71.88H78.9649C78.9649 71.88 99.1999 73.48 96.5999 63.165C95.5749 59.105 91.17 53.835 90.535 46.185C89.245 30.53 76.76 26.685 72.745 31.885" fill="#EDEDED"></path>
<path id="Vector_4" d="M62.1748 58.0198C59.7398 58.3348 58.5948 53.8198 58.2348 52.0698C57.7448 49.6948 58.7798 48.5648 59.8898 48.4148C60.7148 48.3048 61.3598 49.1048 61.3598 50.7798C61.4898 53.7098 61.6548 56.5498 62.1798 58.0148L62.1748 58.0198Z" fill="white"></path>
<path id="Vector_5" d="M62.1747 44.2499C61.4197 46.9199 61.4847 48.3599 61.4347 51.5399C61.2597 63.1799 68.5497 71.7499 72.7047 71.4899C76.5497 71.2549 83.6547 62.5049 84.7847 52.2799C85.3747 46.9499 82.4447 39.4399 82.4447 39.4399C82.4447 39.4399 75.1197 45.5849 68.7447 45.3849C62.3697 45.1849 62.8997 44.2499 62.1747 44.2499Z" fill="white"></path>
<path id="Vector_6" d="M83.6296 43.6751C83.6296 43.6751 83.2146 40.6451 82.5196 39.6401C82.2146 39.2001 81.9797 40.3801 81.4947 40.2951C84.7747 51.2651 78.7546 68.6001 71.2646 71.2651C71.7696 71.4351 72.2547 71.5151 72.7047 71.4901C76.5497 71.2551 84.6347 62.5651 84.7847 52.2801C84.8347 48.7301 83.6347 43.6801 83.6347 43.6801L83.6296 43.6751Z" fill="#EDEDED"></path>
<path id="Vector_7" d="M72.7698 64.2351C71.1298 64.2351 69.4898 63.6951 68.0898 62.6151C67.9798 62.5301 67.9598 62.3751 68.0448 62.2651C68.1298 62.1551 68.2848 62.1351 68.3948 62.2201C71.0098 64.2401 74.5298 64.2401 77.1548 62.2201C77.2648 62.1351 77.4198 62.1551 77.5048 62.2651C77.5898 62.3751 77.5698 62.5301 77.4598 62.6151C76.0548 63.6951 74.4098 64.2351 72.7698 64.2351Z" fill="#07064E"></path>
<path id="Vector_8" d="M83.9601 58.0198C86.3951 58.3348 87.5401 53.8198 87.9001 52.0698C88.3901 49.6948 87.3551 48.5648 86.2451 48.4148C85.4201 48.3048 84.7751 49.1048 84.7751 50.7798C84.5301 53.7098 84.4801 56.5498 83.9551 58.0148L83.9601 58.0198Z" fill="white"></path>
<path id="Vector_9" d="M72.635 57.8648C72.16 57.8648 71.725 57.6398 71.43 57.2298C71.06 56.7148 71.015 56.0248 71.315 55.4698C71.945 54.2998 72.33 52.7148 72.56 50.3248C72.575 50.1848 72.695 50.0948 72.835 50.0998C72.97 50.1148 73.075 50.2348 73.06 50.3748C72.82 52.8348 72.42 54.4798 71.755 55.7098C71.545 56.0998 71.58 56.5798 71.835 56.9398C72.07 57.2648 72.425 57.4148 72.81 57.3498C72.92 57.3298 73.015 57.2998 73.095 57.2548C73.215 57.1898 73.37 57.2298 73.435 57.3498C73.505 57.4698 73.46 57.6198 73.34 57.6898C73.21 57.7598 73.065 57.8148 72.9 57.8398C72.81 57.8548 72.725 57.8648 72.64 57.8648H72.635Z" fill="#07064E"></path>
<path id="Vector_10" d="M72.7897 71.49C70.4097 71.49 68.3197 69.955 67.1147 67.645C67.0897 67.945 67.0747 68.25 67.0747 68.56C67.0747 72.98 69.6347 76.56 72.7897 76.56C75.9447 76.56 78.4997 72.98 78.4997 68.56C78.4997 68.25 78.4847 67.945 78.4597 67.645C77.2597 69.955 75.1697 71.49 72.7847 71.49H72.7897Z" fill="#EBEBEB"></path>
<path id="Vector_11" d="M72.6498 33.9151C82.0648 29.6501 86.6498 38.8551 90.2498 43.8401C88.0248 31.5951 78.2548 26.6751 72.7598 31.8851C66.4448 25.5951 55.9198 33.6601 55.0498 45.3851C59.0098 38.5001 63.6548 29.6851 72.6498 33.9201V33.9151Z" fill="white"></path>
<path id="Vector_12" d="M60.255 80.1102C60.36 84.2352 63.005 88.6752 65.83 92.2702C69.39 96.7952 76.23 96.8402 79.79 92.3152C82.55 88.8052 85.09 84.4102 85.21 80.0202C85.215 79.8202 85.1 79.6302 84.915 79.5452C84.51 79.3602 83.835 79.0902 83.775 79.3402C82.575 84.1852 80.43 87.8552 78.35 90.4802C75.655 93.8852 70.54 94.0352 67.67 90.7802C64.95 87.6952 62.175 83.5252 62.175 79.3402C62.175 78.9702 61.105 79.3952 60.56 79.6352C60.37 79.7202 60.25 79.9052 60.255 80.1102Z" fill="#2BF5BA"></path>
<g id="Group">
<path id="Vector_13" d="M68.615 52.3551C69.02 51.9501 69.275 51.3801 69.275 50.7451C69.275 50.6051 69.165 50.4951 69.025 50.4951C68.885 50.4951 68.775 50.6051 68.775 50.7451C68.775 51.6851 68.075 52.4551 67.215 52.4551C66.355 52.4551 65.655 51.6901 65.655 50.7451C65.655 50.6051 65.545 50.4951 65.405 50.4951C65.265 50.4951 65.155 50.6051 65.155 50.7451C65.155 51.3801 65.41 51.9501 65.815 52.3551L65.055 53.1151C64.955 53.2151 64.955 53.3701 65.055 53.4701C65.105 53.5201 65.17 53.5451 65.23 53.5451C65.29 53.5451 65.36 53.5201 65.405 53.4701L66.21 52.6651C66.44 52.8001 66.69 52.8901 66.96 52.9301V53.9851C66.96 54.1251 67.07 54.2351 67.21 54.2351C67.35 54.2351 67.46 54.1251 67.46 53.9851V52.9301C67.73 52.8951 67.985 52.8051 68.21 52.6651L69.015 53.4701C69.065 53.5201 69.13 53.5451 69.19 53.5451C69.25 53.5451 69.32 53.5201 69.365 53.4701C69.465 53.3701 69.465 53.2151 69.365 53.1151L68.605 52.3551H68.615Z" fill="#07064E"></path>
<path id="Vector_14" d="M80.105 53.1151L79.345 52.3551C79.75 51.9501 80.005 51.3801 80.005 50.7451C80.005 50.6051 79.895 50.4951 79.755 50.4951C79.615 50.4951 79.505 50.6051 79.505 50.7451C79.505 51.6851 78.805 52.4551 77.945 52.4551C77.085 52.4551 76.385 51.6901 76.385 50.7451C76.385 50.6051 76.275 50.4951 76.135 50.4951C75.995 50.4951 75.885 50.6051 75.885 50.7451C75.885 51.3801 76.14 51.9501 76.545 52.3551L75.785 53.1151C75.685 53.2151 75.685 53.3701 75.785 53.4701C75.835 53.5201 75.9 53.5451 75.96 53.5451C76.02 53.5451 76.09 53.5201 76.135 53.4701L76.94 52.6651C77.17 52.8001 77.42 52.8901 77.69 52.9301V53.9851C77.69 54.1251 77.8 54.2351 77.94 54.2351C78.08 54.2351 78.19 54.1251 78.19 53.9851V52.9301C78.46 52.8951 78.715 52.8051 78.94 52.6651L79.745 53.4701C79.795 53.5201 79.86 53.5451 79.92 53.5451C79.98 53.5451 80.05 53.5201 80.095 53.4701C80.195 53.3701 80.195 53.2151 80.095 53.1151H80.105Z" fill="#07064E"></path>
</g>
<path id="Vector_15" d="M63.5796 47.9699C63.4796 47.9699 63.3896 47.9099 63.3496 47.8149C63.2996 47.6849 63.3596 47.5399 63.4846 47.4899C65.6596 46.6049 67.6296 46.2649 70.1796 47.4949C70.3046 47.5549 70.3546 47.7049 70.2946 47.8299C70.2346 47.9549 70.0846 48.0099 69.9596 47.9449C67.5746 46.7949 65.7246 47.1149 63.6746 47.9499C63.6446 47.9649 63.6096 47.9699 63.5796 47.9699Z" fill="#07064E"></path>
<path id="Vector_16" d="M81.8751 47.9701C81.8451 47.9701 81.8101 47.9651 81.7801 47.9501C79.7301 47.1151 77.8751 46.7951 75.4951 47.9451C75.3701 48.0051 75.2201 47.9551 75.1601 47.8301C75.1001 47.7051 75.1501 47.5551 75.2751 47.4951C77.8251 46.2651 79.7951 46.6001 81.9701 47.4901C82.1001 47.5401 82.1601 47.6901 82.1051 47.8151C82.0651 47.9101 81.9701 47.9701 81.8751 47.9701Z" fill="#07064E"></path>
<path id="Vector_17" d="M132.04 81.585C147.286 81.585 159.645 69.2258 159.645 53.98C159.645 38.7342 147.286 26.375 132.04 26.375C116.794 26.375 104.435 38.7342 104.435 53.98C104.435 69.2258 116.794 81.585 132.04 81.585Z" fill="#9FF0D8"></path>
<g id="Group_2">
<path id="Vector_18" d="M123.3 80.1651C126.045 81.0801 128.98 81.5851 132.035 81.5851C134.79 81.5851 137.45 81.1751 139.96 80.4251C137.53 78.6751 136.985 76.3651 137.53 70.8501C132.99 75.1351 129.045 75.1801 125.65 71.3251C125.715 76.9051 124.895 78.8401 123.295 80.1701L123.3 80.1651Z" fill="#BFFCEA"></path>
<path id="Vector_19" d="M129.59 45.6599C127.165 45.4399 125.63 43.9249 124.285 43.6499C124.285 43.6499 120.695 52.1999 120.995 56.2949C121.76 66.6949 125.565 74.1799 131.2 74.1799C136.835 74.1799 141.53 66.4599 141.53 56.5799C141.53 51.6049 141.325 49.3549 139.45 46.1149C137.52 43.1599 132.34 45.6899 129.585 45.6599H129.59Z" fill="#BFFCEA"></path>
<path id="Vector_20" d="M131.24 73.9149C128.77 73.9149 126.635 72.8549 125.625 71.3199C125.605 71.5449 125.595 71.7749 125.595 72.0049C125.595 75.6549 128.225 78.6149 131.465 78.6149C134.705 78.6149 137.335 75.6549 137.335 72.0049C137.335 71.5499 137.295 71.0999 137.215 70.6699C136.43 72.5449 134.055 73.9099 131.245 73.9099L131.24 73.9149Z" fill="#B3F0DE"></path>
<path id="Vector_21" d="M141.425 55.1949C141.285 55.0399 142.26 53.2799 142.055 52.9149C141.905 52.6449 141.465 51.8349 141.315 51.5699C141.12 51.2399 141.855 67.5849 131.165 74.1499C131.245 74.1499 131.325 74.1499 131.41 74.1349C142.45 73.0049 141.43 55.1899 141.43 55.1899L141.425 55.1949Z" fill="#B3F0DE"></path>
<g id="Group_3">
<path id="Vector_22" d="M141.47 55.6299C141.47 54.1299 142.195 53.7349 142.935 53.8349C143.93 53.9699 144.605 54.6399 144.27 56.7849C143.915 59.0599 143.395 60.5049 141.18 62.0349" fill="#B3F0DE"></path>
<path id="Vector_23" d="M141.32 62.235L141.035 61.825C143.12 60.385 143.66 59.035 144.02 56.745C144.185 55.705 144.105 54.96 143.795 54.545C143.605 54.29 143.31 54.135 142.9 54.08C142.59 54.04 142.335 54.1 142.14 54.27C141.865 54.51 141.72 54.98 141.72 55.63H141.22C141.22 54.82 141.42 54.235 141.815 53.895C142.115 53.635 142.515 53.525 142.97 53.59C143.525 53.665 143.925 53.88 144.2 54.25C144.6 54.785 144.705 55.63 144.52 56.825C144.145 59.21 143.55 60.705 141.325 62.24L141.32 62.235Z" fill="#07064E"></path>
</g>
<g id="Group_4">
<path id="Vector_24" d="M121.035 55.6299C121.035 54.1299 120.31 53.7349 119.57 53.8349C118.575 53.9699 117.9 54.6399 118.235 56.7849C118.59 59.0599 119.11 60.5049 121.325 62.0349" fill="#AAFBE3"></path>
<path id="Vector_25" d="M121.185 62.2347C118.96 60.6997 118.365 59.2047 117.99 56.8197C117.805 55.6247 117.905 54.7797 118.31 54.2447C118.585 53.8747 118.99 53.6597 119.54 53.5847C119.995 53.5197 120.395 53.6297 120.695 53.8897C121.09 54.2347 121.29 54.8197 121.29 55.6247H120.79C120.79 54.9747 120.645 54.5047 120.37 54.2647C120.18 54.0997 119.925 54.0347 119.61 54.0747C119.195 54.1297 118.905 54.2847 118.715 54.5397C118.405 54.9597 118.33 55.6997 118.49 56.7397C118.85 59.0347 119.385 60.3797 121.475 61.8197L121.19 62.2297L121.185 62.2347Z" fill="#07064E"></path>
</g>
<path id="Vector_26" d="M131.25 74.3849C125.58 74.3849 121.075 66.9449 120.765 57.0799C120.575 50.9449 124.03 43.6149 124.065 43.5449L124.515 43.7599C124.48 43.8299 121.075 51.0549 121.265 57.0649C121.565 66.6549 125.86 73.8849 131.25 73.8849C136.64 73.8849 141.235 66.3449 141.235 57.0749L141.22 55.6349C141.22 54.8249 141.42 54.2399 141.815 53.8949C142.115 53.6349 142.515 53.5249 142.97 53.5899C143.525 53.6649 143.925 53.8799 144.2 54.2499C144.6 54.7849 144.705 55.6299 144.52 56.8249C144.24 58.6149 143.855 59.8849 142.715 61.0799L142.355 60.7349C143.405 59.6349 143.765 58.4399 144.025 56.7499C144.19 55.7099 144.11 54.9649 143.8 54.5499C143.61 54.2949 143.315 54.1399 142.905 54.0849C142.595 54.0449 142.34 54.1049 142.145 54.2749C141.87 54.5149 141.725 54.9849 141.725 55.6349L141.74 57.0749C141.74 66.6249 137.035 74.3899 131.255 74.3899L131.25 74.3849Z" fill="#114E6F"></path>
<path id="Vector_27" d="M131.265 68.2449C130.125 68.2449 129.045 67.7349 128.135 66.7649L128.5 66.4199C129.31 67.2849 130.265 67.7399 131.265 67.7399C132.26 67.7399 133.22 67.2849 134.035 66.4199L134.4 66.7649C133.485 67.7299 132.405 68.2399 131.265 68.2399V68.2449Z" fill="#114E6F"></path>
<path id="Vector_28" d="M132.577 70.041L129.952 70.0488L129.954 70.5488L132.579 70.541L132.577 70.041Z" fill="#114E6F"></path>
<g id="Group_5">
<path id="Vector_29" d="M121.035 55.6299C121.035 54.1299 120.31 53.7349 119.57 53.8349C118.575 53.9699 117.9 54.6399 118.235 56.7849C118.59 59.0599 119.11 60.5049 121.325 62.0349" fill="#B3F0DE"></path>
<path id="Vector_30" d="M121.185 62.2347C118.96 60.6997 118.365 59.2047 117.99 56.8197C117.805 55.6247 117.905 54.7797 118.31 54.2447C118.585 53.8747 118.99 53.6597 119.54 53.5847C119.995 53.5197 120.395 53.6297 120.695 53.8897C121.09 54.2347 121.29 54.8197 121.29 55.6247H120.79C120.79 54.9747 120.645 54.5047 120.37 54.2647C120.18 54.0997 119.925 54.0347 119.61 54.0747C119.195 54.1297 118.905 54.2847 118.715 54.5397C118.405 54.9597 118.33 55.6997 118.49 56.7397C118.85 59.0347 119.385 60.3797 121.475 61.8197L121.19 62.2297L121.185 62.2347Z" fill="#114E6F"></path>
</g>
<path id="Vector_31" d="M122.485 53.275L122.195 52.87C124.45 51.245 127.475 51.02 129.715 52.31L129.465 52.745C127.39 51.55 124.585 51.76 122.485 53.275Z" fill="#114E6F"></path>
<path id="Vector_32" d="M140.43 53.2751C138.33 51.7601 135.525 51.5451 133.45 52.7451L133.2 52.3101C135.445 51.0201 138.465 51.2401 140.72 52.8701L140.43 53.2751Z" fill="#114E6F"></path>
<path id="Vector_33" d="M138.03 57.2902H137.53C137.53 56.4602 136.915 55.7852 136.155 55.7852C135.395 55.7852 134.78 56.4602 134.78 57.2902H134.28C134.28 56.1852 135.12 55.2852 136.155 55.2852C137.19 55.2852 138.03 56.1852 138.03 57.2902Z" fill="#114E6F"></path>
<path id="Vector_34" d="M128.415 57.2902H127.915C127.915 56.4602 127.3 55.7852 126.54 55.7852C125.78 55.7852 125.165 56.4602 125.165 57.2902H124.665C124.665 56.1852 125.505 55.2852 126.54 55.2852C127.575 55.2852 128.415 56.1852 128.415 57.2902Z" fill="#114E6F"></path>
<path id="Vector_35" d="M131.73 61.5851C131.51 61.5851 131.29 61.5251 131.09 61.4051C130.705 61.1701 130.485 60.7651 130.5 60.3151L130.7 54.6851L131.2 54.7051L131 60.3351C130.99 60.6001 131.12 60.8451 131.35 60.9801C131.575 61.1201 131.85 61.1251 132.085 60.9951L132.33 61.4301C132.14 61.5351 131.935 61.5901 131.73 61.5901V61.5851Z" fill="#114E6F"></path>
<path id="Vector_36" d="M141.81 42.5699C140.145 39.0049 137 36.6699 131.965 36.3899C127.885 36.1599 124.7 37.5199 122.53 40.0199C120.13 40.5899 118.735 43.2399 119.255 48.2499C119.255 48.2499 119.265 48.3249 119.3 48.4299C119.145 50.1049 119.175 51.9099 119.405 53.8199C119.405 53.8199 120.735 53.7999 121 55.1149C121.12 53.2749 121.56 51.2699 122.085 49.4549C122.345 49.3849 126.93 46.6399 126.93 46.6399C126.93 46.6399 135.77 49.7849 140.635 49.2349C141.19 51.9799 141.465 55.6299 141.465 55.6299L141.63 54.5899C141.79 54.1199 142.29 53.9999 142.77 53.8899L143.09 53.8199C143.265 52.2049 143.325 50.6449 143.26 49.1699C143.65 49.1399 144.035 49.1049 144.415 49.0549C145.98 48.8549 147.495 47.1749 147.495 47.1749C144.875 46.9049 143.595 44.7899 141.8 42.5699H141.81Z" fill="#B3F0DE"></path>
<path id="Vector_37" d="M141.5 42.1898C139.165 36.8648 132.94 36.4348 131.97 36.3898C126.785 36.1548 124.87 38.1148 122.535 40.0198C122 40.4548 121.475 40.4398 121.005 40.7848C120.495 41.1548 120.055 41.8898 119.74 42.6198C119.065 44.1898 119.2 46.0798 119.255 48.2548C119.3 50.0048 119.185 51.9698 119.405 53.8248C119.405 53.8248 119.42 53.5798 119.84 53.8248C119.895 49.1198 119.825 42.4398 123.175 40.9398C123.65 40.7298 123.315 40.4948 124.265 39.6848C126.55 37.7248 129.72 37.8598 131.955 37.8398C128.77 38.3848 127.815 39.5998 127.815 39.5998C140.565 37.8298 138.21 48.1548 145.165 48.7448C147.175 48.1898 147.505 47.1848 147.505 47.1848C144.735 46.8998 143.465 44.5548 141.5 42.1998V42.1898Z" fill="#BFFCEA"></path>
<path id="Vector_38" d="M138.275 77.7649C137.89 76.8549 137.305 74.7449 137.705 70.8049L137.205 70.7549C136.81 74.6049 137.32 76.7949 137.81 77.9599C138.24 78.9699 138.91 79.8749 139.64 80.5149C139.835 80.4599 140.03 80.4099 140.225 80.3499C139.46 79.7649 138.715 78.8149 138.27 77.7649H138.275Z" fill="#114E6F"></path>
<path id="Vector_39" d="M125.225 71.2151C125.595 74.8551 125.09 76.6302 124.605 77.7652C124.215 78.6902 123.645 79.5001 123.035 80.0751C123.215 80.1351 123.39 80.2001 123.57 80.2551C124.2 79.6002 124.725 78.7602 125.065 77.9602C125.57 76.7652 126.105 74.9152 125.72 71.1602L125.22 71.2102L125.225 71.2151Z" fill="#114E6F"></path>
<path id="Vector_40" d="M141.405 57.7649L141.245 55.6449C141.245 55.6099 140.98 52.1699 140.465 49.5049C135.81 49.9149 128.06 47.2849 126.99 46.9099C125.685 47.6899 123.005 49.2849 122.325 49.6249C121.735 51.6899 121.38 53.5399 121.28 55.1249L121.16 56.9999L120.785 55.1599C120.565 54.0849 119.505 54.0649 119.44 54.0649H119.215L119.185 53.8449C118.96 51.9649 118.925 50.1499 119.075 48.4499C119.045 48.3499 119.035 48.2849 119.035 48.2849C118.365 41.8599 120.83 40.1999 122.42 39.7899C124.72 37.1749 128.03 35.9099 132.005 36.1349C136.835 36.4049 140.21 38.5249 142.05 42.4299C142.285 42.7199 142.51 43.0099 142.73 43.2899C144.16 45.1199 145.395 46.6949 147.555 46.9199L148.045 46.9699L147.715 47.3349C147.65 47.4049 146.12 49.0849 144.485 49.2949C144.175 49.3349 143.865 49.3649 143.555 49.3899C143.605 50.7949 143.545 52.2899 143.375 53.8399L143.355 54.0199L142.86 54.1299C142.37 54.2399 142.01 54.3399 141.9 54.6649L141.405 57.7649ZM119.66 53.5799C120.025 53.6249 120.51 53.7949 120.865 54.1999C121.03 52.7649 121.37 51.1499 121.88 49.3849L121.92 49.2499L122.055 49.2149C122.295 49.1249 125.12 47.4549 126.84 46.4249L126.94 46.3649L127.05 46.4049C127.14 46.4349 135.89 49.5199 140.64 48.9899L140.87 48.9649L140.915 49.1899C141.25 50.8549 141.49 52.8649 141.62 54.1899C141.915 53.8349 142.39 53.7299 142.755 53.6499L142.9 53.6199C143.06 52.0699 143.11 50.5799 143.05 49.1849L143.04 48.9399L143.28 48.9199C143.665 48.8899 144.045 48.8549 144.425 48.8099C145.455 48.6799 146.49 47.8349 147.005 47.3499C144.94 46.9399 143.73 45.3849 142.34 43.6049C142.115 43.3149 141.885 43.0249 141.645 42.7299L141.615 42.6799C139.865 38.9349 136.625 36.9049 131.985 36.6449C128.14 36.4249 124.95 37.6549 122.755 40.1899L122.705 40.2499L122.625 40.2699C120.165 40.8549 119.07 43.6849 119.54 48.2299C119.54 48.2299 119.55 48.2849 119.575 48.3599L119.59 48.4099V48.4599C119.435 50.0749 119.465 51.7999 119.665 53.5899L119.66 53.5799Z" fill="#114E6F"></path>
</g>
<path id="Vector_41" d="M132.04 81.835C116.68 81.835 104.185 69.34 104.185 53.98C104.185 38.62 116.68 26.125 132.04 26.125C147.4 26.125 159.895 38.62 159.895 53.98C159.895 69.34 147.4 81.835 132.04 81.835ZM132.04 26.625C116.955 26.625 104.685 38.895 104.685 53.98C104.685 69.065 116.955 81.335 132.04 81.335C147.125 81.335 159.395 69.065 159.395 53.98C159.395 38.895 147.125 26.625 132.04 26.625Z" fill="#156678"></path>
<g id="Group_6">
<path id="Vector_42" d="M162.62 37.2999H157.34V32.0199C157.34 30.9099 156.44 30.0049 155.325 30.0049H154.63C153.52 30.0049 152.615 30.9049 152.615 32.0199V37.2999H147.335C146.225 37.2999 145.32 38.1999 145.32 39.3149V40.0099C145.32 41.1199 146.22 42.0249 147.335 42.0249H152.615V47.3049C152.615 48.4149 153.515 49.3199 154.63 49.3199H155.325C156.435 49.3199 157.34 48.4199 157.34 47.3049V42.0249H162.62C163.73 42.0249 164.635 41.1249 164.635 40.0099V39.3149C164.635 38.2049 163.735 37.2999 162.62 37.2999Z" fill="white"></path>
<path id="Vector_43" d="M155.325 49.5601H154.63C153.38 49.5601 152.365 48.5451 152.365 47.2951V42.2651H147.335C146.085 42.2651 145.07 41.2501 145.07 40.0001V39.3051C145.07 38.0551 146.085 37.0401 147.335 37.0401H152.365V32.0101C152.365 30.7601 153.38 29.7451 154.63 29.7451H155.325C156.575 29.7451 157.59 30.7601 157.59 32.0101V37.0401H162.62C163.87 37.0401 164.885 38.0551 164.885 39.3051V40.0001C164.885 41.2501 163.87 42.2651 162.62 42.2651H157.59V47.2951C157.59 48.5451 156.575 49.5601 155.325 49.5601ZM147.34 37.5501C146.37 37.5501 145.575 38.3401 145.575 39.3151V40.0101C145.575 40.9801 146.365 41.7751 147.34 41.7751H152.62C152.76 41.7751 152.87 41.8851 152.87 42.0251V47.3051C152.87 48.2751 153.66 49.0701 154.635 49.0701H155.33C156.3 49.0701 157.095 48.2801 157.095 47.3051V42.0251C157.095 41.8851 157.205 41.7751 157.345 41.7751H162.625C163.595 41.7751 164.39 40.9851 164.39 40.0101V39.3151C164.39 38.3451 163.6 37.5501 162.625 37.5501H157.345C157.205 37.5501 157.095 37.4401 157.095 37.3001V32.0201C157.095 31.0501 156.305 30.2551 155.33 30.2551H154.635C153.665 30.2551 152.87 31.0451 152.87 32.0201V37.3001C152.87 37.4401 152.76 37.5501 152.62 37.5501H147.34Z" fill="#07064E"></path>
</g>
<path id="Vector_44" d="M128.785 116.22H90.5347V62.27H120.205L128.785 70.85V116.22Z" fill="white"></path>
<path id="Vector_45" d="M100.42 90.9248C100.28 90.9248 100.145 90.8698 100.04 90.7748L97.4849 88.3598C97.2649 88.1498 97.2549 87.7998 97.4649 87.5798C97.6749 87.3598 98.0249 87.3498 98.2449 87.5598L100.385 89.5848L104.715 84.7448C104.92 84.5198 105.265 84.4998 105.495 84.6998C105.72 84.9048 105.74 85.2498 105.54 85.4798L100.835 90.7448C100.735 90.8548 100.595 90.9198 100.445 90.9298C100.435 90.9298 100.43 90.9298 100.42 90.9298V90.9248Z" fill="#2BF5BA"></path>
<path id="Vector_46" d="M90.5349 116.22V111.58H51.1299L50.4499 99.5602H90.5349V80.4352L85.4799 79.5552C85.2449 84.4952 82.6849 89.0202 79.9299 92.5102C76.3849 97.0002 69.5649 96.9002 66.0299 92.4052C63.1699 88.7602 60.4649 84.1802 60.3449 79.7752L49.5699 81.5602C43.9249 81.7402 40.6199 86.0402 40.8599 91.6802L41.7249 116.425L104.645 116.465L104.655 116.22H90.5399H90.5349Z" fill="white"></path>
<g id="Group_7">
<path id="Vector_47" d="M120.205 108.165C114.79 113.58 107.66 110.37 94.5252 114.645C91.1252 116.06 90.5952 116.225 90.5952 116.225H128.845V71.7051C125.38 90.3951 127.655 100.46 120.21 108.17L120.205 108.165Z" fill="#EDEDED"></path>
<path id="Vector_48" d="M128.785 72.2049H122.805C121.37 72.2049 120.21 71.0449 120.21 69.6099V63.6299L128.785 70.8549V72.2099V72.2049Z" fill="#EDEDED"></path>
<path id="Vector_49" d="M129.1 70.8499H122.805C121.37 70.8499 120.21 69.6899 120.21 68.2549V62.2749L129.1 70.8499Z" fill="white"></path>
<path id="Vector_50" d="M90.625 116.13H128.695V70.9399H122.805C121.325 70.9399 120.12 69.7349 120.12 68.2549V62.3649H90.63V116.13H90.625ZM120.615 63.2599V68.2549C120.615 69.4599 121.595 70.4399 122.8 70.4399H127.795L120.615 63.2599ZM128.785 116.63H90.535C90.31 116.63 90.125 116.445 90.125 116.22V62.2699C90.125 62.0449 90.31 61.8599 90.535 61.8599H120.245L120.29 61.8749C120.385 61.8949 120.445 61.9349 120.5 61.9849L129.075 70.5599C129.125 70.6099 129.16 70.6699 129.18 70.7449L129.195 70.8499V116.22C129.195 116.445 129.01 116.63 128.785 116.63Z" fill="#07064E"></path>
<path id="Vector_51" d="M103.035 78.5997H98.385C97.895 78.5997 97.5 78.2047 97.5 77.7147V73.0647C97.5 72.5747 97.895 72.1797 98.385 72.1797H103.035C103.525 72.1797 103.92 72.5747 103.92 73.0647V77.7147C103.92 78.2047 103.525 78.5997 103.035 78.5997ZM98.385 72.6797C98.17 72.6797 98 72.8547 98 73.0647V77.7147C98 77.9247 98.175 78.0997 98.385 78.0997H103.035C103.25 78.0997 103.42 77.9247 103.42 77.7147V73.0647C103.42 72.8547 103.245 72.6797 103.035 72.6797H98.385Z" fill="#07064E"></path>
<path id="Vector_52" d="M103.035 92.78H98.3801C97.8951 92.78 97.4951 92.385 97.4951 91.895V87.24C97.4951 86.755 97.8901 86.355 98.3801 86.355H103.035C103.52 86.355 103.92 86.75 103.92 87.24V91.895C103.92 92.38 103.525 92.78 103.035 92.78ZM98.3851 86.86C98.1751 86.86 98.0001 87.03 98.0001 87.245V91.9C98.0001 92.11 98.1701 92.285 98.3851 92.285H103.04C103.25 92.285 103.425 92.115 103.425 91.9V87.245C103.425 87.035 103.255 86.86 103.04 86.86H98.3851Z" fill="#07064E"></path>
<path id="Vector_53" d="M102.895 106.955H98.5201C97.9551 106.955 97.4951 106.495 97.4951 105.93V101.555C97.4951 100.99 97.9551 100.53 98.5201 100.53H102.895C103.46 100.53 103.92 100.99 103.92 101.555V105.93C103.92 106.495 103.46 106.955 102.895 106.955ZM98.5251 101.035C98.2351 101.035 98.0001 101.27 98.0001 101.56V105.935C98.0001 106.225 98.2351 106.46 98.5251 106.46H102.9C103.19 106.46 103.425 106.225 103.425 105.935V101.56C103.425 101.27 103.19 101.035 102.9 101.035H98.5251Z" fill="#07064E"></path>
<path id="Vector_54" d="M121.64 75.6396H107.41C107.27 75.6396 107.16 75.5296 107.16 75.3896C107.16 75.2496 107.27 75.1396 107.41 75.1396H121.64C121.78 75.1396 121.89 75.2496 121.89 75.3896C121.89 75.5296 121.78 75.6396 121.64 75.6396Z" fill="#07064E"></path>
<path id="Vector_55" d="M121.64 89.8198H107.41C107.27 89.8198 107.16 89.7098 107.16 89.5698C107.16 89.4298 107.27 89.3198 107.41 89.3198H121.64C121.78 89.3198 121.89 89.4298 121.89 89.5698C121.89 89.7098 121.78 89.8198 121.64 89.8198Z" fill="#07064E"></path>
<path id="Vector_56" d="M121.64 103.995H107.41C107.27 103.995 107.16 103.885 107.16 103.745C107.16 103.605 107.27 103.495 107.41 103.495H121.64C121.78 103.495 121.89 103.605 121.89 103.745C121.89 103.885 121.78 103.995 121.64 103.995Z" fill="#07064E"></path>
</g>
<path id="Vector_57" d="M90.535 116.22V116.165H51.8L50.72 96.4497C50.71 96.3097 50.595 96.1947 50.455 96.2147C50.315 96.2197 50.21 96.3397 50.22 96.4797L51.3 116.165H41.735L40.83 90.2747C40.83 86.3747 43.595 82.9447 47.395 82.1197L60.1 79.8747C60.1 83.3747 61.915 87.4897 65.485 92.1097C67.27 94.4197 69.97 95.7447 72.895 95.7447H72.925C75.895 95.7347 78.64 94.3697 80.445 92.0047C83.8 87.6047 85.52 83.5097 85.56 79.8297L90.54 80.7097V80.2047L85.525 79.3197H85.515L83.84 79.1047L83.54 79.0347C82.355 78.7697 80.995 77.3247 80.23 75.5197C79.875 74.6847 79.475 73.5797 79.235 72.1597C79.575 72.1747 80.21 72.1947 81.05 72.1947C83.36 72.1947 87.19 72.0397 90.55 71.1897V70.6597C85.9 71.8547 80.18 71.6947 79.16 71.6547C79.01 70.5347 78.965 69.2397 79.12 67.7397C79.12 67.7097 79.12 67.6797 79.11 67.6547C81.11 65.3647 82.985 62.1897 84.075 58.2947C84.125 58.2947 84.18 58.3047 84.23 58.3047C86.545 58.3047 87.685 54.4797 88.165 52.1397C88.495 50.5397 88.135 49.5947 87.775 49.0897C87.42 48.5897 86.895 48.2697 86.3 48.1897C85.925 48.1347 85.575 48.2447 85.29 48.4897C85.16 48.6047 85.045 48.7447 84.95 48.9097C84.925 48.6147 84.895 48.3147 84.855 47.9947C84.35 43.6847 83.62 40.9497 82.625 39.6397C83.1 39.1297 83.345 38.6797 83.345 38.2797C83.345 38.1397 83.235 38.0297 83.095 38.0297C82.955 38.0297 82.845 38.1397 82.845 38.2797C82.845 38.4847 82.72 38.8547 82.125 39.4497C79.65 41.9147 72.315 45.1647 69.235 45.1647H69.22C65.035 45.1497 60.72 43.7897 59.605 42.1297C59.53 42.0147 59.37 41.9847 59.26 42.0597C59.145 42.1347 59.115 42.2897 59.19 42.4047C59.695 43.1597 60.685 43.7997 61.925 44.3097C61.525 45.7547 61.295 47.1847 61.19 48.8497C61.1 48.7097 61 48.5847 60.885 48.4847C60.6 48.2347 60.255 48.1297 59.88 48.1847C59.285 48.2647 58.76 48.5847 58.405 49.0847C58.045 49.5947 57.685 50.5347 58.015 52.1347C58.495 54.4747 59.635 58.2997 61.95 58.2997C61.97 58.2997 61.99 58.2997 62.005 58.2997C62.98 62.2847 64.655 65.5147 66.51 67.8147C66.655 69.2797 66.61 70.5547 66.465 71.6597C65.355 71.7297 52.73 72.4247 49.45 67.9647C48.53 66.7147 48.435 65.1397 49.17 63.2797C49.575 62.2547 50.135 61.1397 50.78 59.8547C52.56 56.3097 54.78 51.8947 55.245 46.2297C56.045 36.5197 61.06 31.6597 65.485 30.3497C68.37 29.4997 71.075 30.1397 72.56 32.0247C72.575 32.0547 72.6 32.0847 72.625 32.1047C72.635 32.1147 72.65 32.1147 72.66 32.1197C72.66 32.1197 72.67 32.1197 72.675 32.1247C72.695 32.1347 72.72 32.1447 72.745 32.1497C72.76 32.1497 72.775 32.1497 72.79 32.1497C72.805 32.1497 72.815 32.1497 72.83 32.1497C72.855 32.1497 72.875 32.1397 72.9 32.1247C72.9 32.1247 72.905 32.1247 72.91 32.1197C72.92 32.1147 72.935 32.1097 72.945 32.1047C72.975 32.0847 72.995 32.0547 73.01 32.0247C74.495 30.1397 77.195 29.4947 80.08 30.3497C84.505 31.6597 89.52 36.5147 90.32 46.2297C90.775 51.7197 92.93 56.0347 94.665 59.5047C95.175 60.5247 95.63 61.4397 96 62.2947H96.545C96.155 61.3747 95.665 60.3847 95.11 59.2847C93.395 55.8547 91.265 51.5847 90.82 46.1897C90 36.2247 84.805 31.2297 80.225 29.8697C77.245 28.9897 74.43 29.6197 72.785 31.5147C71.145 29.6197 68.33 28.9847 65.345 29.8697C60.76 31.2247 55.57 36.2247 54.75 46.1897C54.29 51.7597 52.1 56.1197 50.335 59.6297C49.71 60.8747 49.12 62.0497 48.705 63.0997C47.905 65.1297 48.02 66.8697 49.05 68.2647C51.6 71.7297 59.135 72.2547 63.46 72.2547C64.895 72.2547 65.965 72.1997 66.395 72.1697C66.155 73.5897 65.755 74.6997 65.4 75.5297C64.635 77.3347 63.275 78.7747 62.095 79.0447L47.325 81.6547C43.285 82.5297 40.355 86.1647 40.355 90.3047L41.27 116.445C41.27 116.58 41.385 116.685 41.52 116.685H104.48C104.615 116.685 104.725 116.58 104.73 116.445V116.24H90.565L90.535 116.22ZM66.435 66.9097C64.095 63.7497 62.48 59.5297 61.88 55.0347C61.86 54.8997 61.735 54.8047 61.6 54.8197C61.465 54.8397 61.365 54.9647 61.385 55.0997C61.51 56.0247 61.675 56.9147 61.865 57.7747C59.8 57.6697 58.76 53.3797 58.48 52.0147C58.185 50.5897 58.485 49.7797 58.79 49.3547C59.065 48.9697 59.465 48.7197 59.925 48.6597C60.155 48.6297 60.36 48.6897 60.535 48.8447C60.905 49.1697 61.11 49.8547 61.11 50.7797C61.11 50.7997 61.115 50.8147 61.12 50.8347C61.12 50.8497 61.12 50.8647 61.13 50.8797C61.135 50.8947 61.15 50.9097 61.16 50.9247C61.17 50.9347 61.175 50.9497 61.185 50.9597C61.195 50.9697 61.21 50.9747 61.225 50.9847C61.24 50.9947 61.25 51.0047 61.265 51.0147C61.28 51.0197 61.295 51.0197 61.31 51.0247C61.325 51.0247 61.34 51.0347 61.36 51.0347C61.395 51.0347 61.425 51.0297 61.455 51.0147C61.475 51.0047 61.49 50.9897 61.51 50.9797C61.52 50.9747 61.53 50.9697 61.535 50.9647C61.545 50.9547 61.555 50.9347 61.565 50.9197C61.575 50.9097 61.585 50.8947 61.59 50.8847C61.595 50.8697 61.595 50.8547 61.6 50.8447C61.6 50.8247 61.61 50.8097 61.61 50.7897C61.62 48.2997 61.85 46.3997 62.375 44.4847C64.395 45.2297 66.955 45.6447 69.2 45.6547H69.22C72.31 45.6547 79.545 42.4847 82.26 39.9847C83.175 41.2447 83.86 43.8847 84.35 48.0397C84.475 49.0897 84.53 49.9797 84.535 50.9247C84.535 51.0647 84.65 51.1747 84.785 51.1747C84.925 51.1747 85.035 51.0597 85.035 50.9247C85.035 50.8797 85.035 50.8347 85.035 50.7897C85.035 49.8647 85.24 49.1747 85.61 48.8547C85.785 48.7047 85.99 48.6447 86.22 48.6697C86.675 48.7297 87.08 48.9797 87.355 49.3647C87.66 49.7897 87.96 50.5997 87.665 52.0247C87.38 53.4047 86.31 57.7897 84.2 57.7897C84.425 56.9297 84.61 56.0397 84.75 55.1097C84.77 54.9747 84.675 54.8447 84.54 54.8247C84.405 54.8047 84.275 54.8997 84.255 55.0347C82.77 64.9197 75.81 71.2597 72.67 71.2797H72.65C70.81 71.2797 68.435 69.6097 66.445 66.9147L66.435 66.9097ZM65.825 75.6997C66.46 74.2047 67.25 71.8597 67.04 68.4447C68.965 70.5997 71.015 71.7747 72.64 71.7747H72.66C74.155 71.7647 76.395 70.5147 78.555 68.2297C78.295 71.7647 79.105 74.1747 79.75 75.6997C80.42 77.2747 81.73 78.9997 83.21 79.4547C83.125 83.6247 80.19 87.8247 77.72 90.6347C76.505 92.0197 74.75 92.8097 72.91 92.8097H72.895C71.035 92.8097 69.26 91.9947 68.035 90.5847C65.475 87.6447 62.44 83.3347 62.425 79.4347C63.88 78.9547 65.165 77.2497 65.82 75.6997H65.825ZM61.925 79.5547C61.995 83.5797 65.07 87.9447 67.66 90.9197C68.98 92.4397 70.89 93.3097 72.895 93.3147H72.91C74.895 93.3147 76.785 92.4597 78.095 90.9697C80.6 88.1197 83.575 83.8647 83.71 79.5797L85.045 79.7547C85.025 83.3447 83.34 87.3647 80.03 91.6997C78.315 93.9447 75.72 95.2347 72.905 95.2447H72.875C70.105 95.2447 67.55 93.9897 65.86 91.8047C62.33 87.2347 60.55 83.1947 60.58 79.7897L61.915 79.5547H61.925Z" fill="#07064E"></path>
</g>
</g>
</g>
</g>
<defs>
<clipPath id="clip0_527_239">
<rect width="200" height="140" fill="white"></rect>
</clipPath>
</defs>
</svg>