<svg width="141" height="119" viewBox="0 0 141 119" fill="none" xmlns="http://www.w3.org/2000/svg"><path d="M87.345 20.675h32.06c-2.5-5.98-8.84-9.78-15.52-8.78l-84.02 12.56c-7.89 1.18-13.38 8.6-12.2 16.5l6.22 41.58c1.18 7.89 8.6 13.38 16.5 12.2l48.41-7.24v-58.27c0-4.72 3.84-8.56 8.56-8.56z" fill="#62a9ff"/><path d="M79.785 29.236v58.12l21.14-3.16c3.85-.58 7.72 1 10.06 4.12l17.42 23.14c1.65 2.2 5.14.73 4.74-1.99l-4.4-29.44-6.96-46.56-1.4-9.37c-.13-.84-.34-1.65-.6-2.43h-32.44c-4.17 0-7.56 3.39-7.56 7.56z" fill="#ddd"/><path d="m19.866 20.206 84.02-12.56c7.89-1.18 15.32 4.31 16.5 12.2l1.399 9.37 6.961 46.56 4.4 29.439c.41 2.72-3.08 4.18-4.74 1.99l-17.421-23.14a10.62 10.62 0 0 0-10.06-4.12l-70.55 10.55c-7.89 1.18-15.32-4.31-16.5-12.2l-6.22-41.58c-1.18-7.89 4.31-15.32 12.2-16.5z" fill="#fff"/><path d="M32.825 41.475c-.23 0-.44-.17-.47-.41a.47.47 0 0 1 .4-.54l64.74-9.68c.26-.04.51.14.54.4a.47.47 0 0 1-.4.54l-64.74 9.68h-.07zm1.78 11.89c-.23 0-.44-.17-.47-.41a.47.47 0 0 1 .4-.54l35.85-5.36c.27-.04.51.14.54.4a.47.47 0 0 1-.4.54l-35.85 5.36h-.07zm1.78 11.9c-.23 0-.44-.17-.47-.41a.47.47 0 0 1 .4-.54l42.23-6.31c.26-.04.51.14.54.4a.47.47 0 0 1-.4.54l-42.23 6.31h-.07z" fill="#07064e"/><path d="M86.585 57.775c-.24 0-.46-.18-.49-.43-.04-.27.15-.53.42-.57l8.15-1.22c.27-.04.53.15.57.42s-.15.53-.42.57l-8.15 1.22h-.07z" fill="#62a9ff"/><g fill="#07064e"><path d="M130.495 108.765c-.96 0-1.88-.44-2.49-1.26l-17.42-23.14a10.12 10.12 0 0 0-9.59-3.92l-70.55 10.55c-8.18 1.23-15.84-4.44-17.06-12.63l-6.22-41.58c-1.22-8.19 4.44-15.84 12.63-17.06l84.02-12.56c8.19-1.22 15.84 4.44 17.06 12.63l12.76 85.36c.22 1.45-.55 2.8-1.9 3.37-.41.17-.83.25-1.24.25zm-27.99-29.44c3.46 0 6.76 1.62 8.88 4.44l17.42 23.14c.74.99 1.84.99 2.55.69s1.48-1.08 1.29-2.3l-12.76-85.37c-1.14-7.64-8.29-12.93-15.93-11.78l-84.02 12.56c-7.64 1.14-12.93 8.29-11.78 15.93l6.22 41.58c1.14 7.64 8.29 12.92 15.93 11.78l70.55-10.55q.825-.12 1.65-.12"/><path d="M130.495 108.765c-.96 0-1.88-.44-2.49-1.26l-17.42-23.14a10.12 10.12 0 0 0-9.59-3.92l-70.55 10.55c-8.18 1.23-15.84-4.44-17.06-12.63l-6.22-41.58c-1.22-8.19 4.44-15.84 12.63-17.06l84.02-12.56c8.19-1.22 15.84 4.44 17.06 12.63l12.76 85.36c.22 1.45-.55 2.8-1.9 3.37-.41.17-.83.25-1.24.25zm-27.99-29.44c3.46 0 6.76 1.62 8.88 4.44l17.42 23.14c.74.99 1.84.99 2.55.69s1.48-1.08 1.29-2.3l-12.76-85.37c-1.14-7.64-8.29-12.93-15.93-11.78l-84.02 12.56c-7.64 1.14-12.93 8.29-11.78 15.93l6.22 41.58c1.14 7.64 8.29 12.92 15.93 11.78l70.55-10.55q.825-.12 1.65-.12"/></g></svg>