<svg width="33" height="34" viewBox="0 0 33 34" fill="none" xmlns="http://www.w3.org/2000/svg"><path d="M22.208 27.995c-.312-2.57.347-5.163 1.703-7.363l2.703-4.768c2.041-3.313 1.182-7.647-1.965-9.919a7.336 7.336 0 0 0-9.972 1.298l-3.625 4.101c-1.64 1.996-3.872 3.454-6.394 3.98a7.08 7.08 0 0 0-4.334 2.831l-.166.233 20.603 14.875.166-.233a7.15 7.15 0 0 0 1.281-5.038z" fill="#fff"/><path d="M6.54 22.725a5.056 5.056 0 0 0 1.402 6.635 4.99 4.99 0 0 0 6.654-.733M28.493.687l-.129-.09a1.425 1.425 0 0 0-1.993.33l-3.022 4.23s-.013.025-.022.037c.456.204.9.453 1.319.754q.623.454 1.125 1.006l.025-.028 3.021-4.23A1.443 1.443 0 0 0 28.49.69z" fill="#ededed"/><path d="M22.208 27.996c-.312-2.571.347-5.164 1.703-7.364l2.703-4.768q.445-.727.707-1.505a7.2 7.2 0 0 0-2.01 1.015c-3.856 2.3-5.134 4.978-9.672 6.468-5.046 1.757-8.793-3.171-13.328-3.904a6.1 6.1 0 0 0-1.818-.009q-.087.112-.172.226l-.166.233 20.603 14.875.166-.233a7.15 7.15 0 0 0 1.281-5.038zM28.493.687l-.129-.09a1.425 1.425 0 0 0-1.993.33l-3.022 4.23s-.013.025-.022.037c.456.204.9.453 1.319.754q.623.454 1.125 1.006l.025-.028 3.021-4.23A1.443 1.443 0 0 0 28.49.69z" fill="#ededed"/><path d="M29.858 19.843a.13.13 0 0 1-.003-.182q.441-.46.816-.974a.13.13 0 0 1 .178-.029.135.135 0 0 1 .028.183q-.385.525-.837 1a.13.13 0 0 1-.17.015q-.008-.003-.015-.013zm-1.906-1.773a.13.13 0 0 1 0-.182 7 7 0 0 0 .806-.943l.013-.018c.04-.057.115-.063.172-.02.056.045.062.133.021.19a7.3 7.3 0 0 1-.834.973.13.13 0 0 1-.166.013.04.04 0 0 1-.015-.016z" fill="#fff"/><path d="M29.858 19.843a.13.13 0 0 1-.003-.182q.441-.46.816-.974a.13.13 0 0 1 .178-.029.135.135 0 0 1 .028.183q-.385.525-.837 1a.13.13 0 0 1-.17.015q-.008-.003-.015-.013zM12.336 6.797a.13.13 0 0 1-.04-.16c.184-.387.406-.76.653-1.106.04-.057.128-.082.187-.041.06.04.078.113.038.17l-.013.018c-.237.333-.45.695-.63 1.069a.13.13 0 0 1-.173.06l-.019-.013zM10.061 5.55a.13.13 0 0 1-.037-.164c.2-.387.425-.764.672-1.119a.126.126 0 0 1 .178-.031.13.13 0 0 1 .031.179c-.24.346-.46.713-.656 1.087a.125.125 0 0 1-.172.054c-.006 0-.01-.007-.016-.01z" fill="#fff"/><path d="m14.02 4.544-.02-.02a.13.13 0 0 1 .01-.182 7.3 7.3 0 0 1 5.021-1.879c.072 0 .128.06.125.132 0 .072-.06.129-.131.126a7.03 7.03 0 0 0-4.847 1.813.13.13 0 0 1-.16.01zm15.494 11.059a7.13 7.13 0 0 0 .16-5.198.125.125 0 0 1 .078-.163.123.123 0 0 1 .162.078 7.4 7.4 0 0 1-.162 5.387.13.13 0 0 1-.169.07c-.01-.004-.015-.01-.025-.013a.13.13 0 0 1-.044-.157zm1.96 1.789a9.85 9.85 0 0 0 .172-8.609.13.13 0 0 1 .062-.173.13.13 0 0 1 .172.063 10.1 10.1 0 0 1-.178 8.835.13.13 0 0 1-.172.056c-.006 0-.01-.006-.016-.009a.13.13 0 0 1-.037-.163z" fill="#07064e"/><path d="M29.514 15.603a7.13 7.13 0 0 0 .16-5.198.125.125 0 0 1 .078-.163.123.123 0 0 1 .162.078 7.4 7.4 0 0 1-.162 5.387.13.13 0 0 1-.169.07c-.01-.004-.015-.01-.025-.013a.13.13 0 0 1-.044-.157zm1.96 1.789a9.85 9.85 0 0 0 .172-8.609.13.13 0 0 1 .062-.173.13.13 0 0 1 .172.063 10.1 10.1 0 0 1-.178 8.835.13.13 0 0 1-.172.056c-.006 0-.01-.006-.016-.009a.13.13 0 0 1-.037-.163zM28.583.646l-.128-.09a1.583 1.583 0 0 0-2.212.364l-2.97 4.161a7.45 7.45 0 0 0-8.715 2.15l-3.628 4.104c-1.672 2.034-3.91 3.426-6.303 3.926a7.25 7.25 0 0 0-4.431 2.894l-.166.233a.16.16 0 0 0 .034.22l6.17 4.453a5.185 5.185 0 0 0 1.615 6.515 5.14 5.14 0 0 0 3.015.978 5.13 5.13 0 0 0 3.641-1.521l6.166 4.45q.043.028.09.028c.05 0 .097-.022.128-.066l.166-.232a7.32 7.32 0 0 0 1.331-4.872.2.2 0 0 0-.006-.069c-.006-.069-.006-.138-.016-.207-.297-2.442.3-5.023 1.685-7.267l2.703-4.761a7.61 7.61 0 0 0-.772-9.004l2.969-4.161a1.603 1.603 0 0 0-.363-2.226zM8.033 29.322a4.87 4.87 0 0 1-1.54-6.072l7.756 5.6a4.815 4.815 0 0 1-6.216.472M20.8 33.03l-.075.107L.374 18.444l.075-.103a6.93 6.93 0 0 1 3.956-2.697l17.669 12.757a7 7 0 0 1-1.275 4.632zm7.893-30.34-3.021 4.23a.16.16 0 0 0-.01.223c2.182 2.382 2.519 5.971.819 8.734l-2.703 4.761c-1.397 2.266-2.01 4.871-1.738 7.351L4.802 15.544c2.422-.532 4.681-1.949 6.366-4.001l3.628-4.105c2.384-2.9 6.512-3.495 9.606-1.38.072.05.169.032.215-.04a.154.154 0 0 0-.04-.217 8 8 0 0 0-1.016-.579l2.935-4.114A1.263 1.263 0 0 1 28.27.813l.128.091c.569.412.7 1.213.29 1.785zm-16.988.562s-.01-.006-.016-.013a.13.13 0 0 1-.003-.182A9.97 9.97 0 0 1 19.952.062c.069.01.122.072.112.141a.127.127 0 0 1-.14.113 9.72 9.72 0 0 0-8.053 2.917.124.124 0 0 1-.166.016z" fill="#07064e"/></svg>