<svg width="200" height="140" viewBox="0 0 200 140" fill="none" xmlns="http://www.w3.org/2000/svg">
<g id="Size=Default" clip-path="url(#clip0_548_182)">
<g id="illu_spot_mode-dark_simple">
<g id="background">
<path d="M12.46 29.9099C6.30003 29.8249 1.70503 25.6549 2.19003 20.5999C2.67503 15.5449 8.06503 11.5199 14.225 11.6049C20.385 11.6899 24.98 15.8599 24.495 20.9149C24.01 25.9699 18.62 29.9949 12.46 29.9099Z" fill="#07064E"></path>
<path d="M188.64 57.1249C192.164 57.1249 195.02 54.2685 195.02 50.7449C195.02 47.2214 192.164 44.3649 188.64 44.3649C185.116 44.3649 182.26 47.2214 182.26 50.7449C182.26 54.2685 185.116 57.1249 188.64 57.1249Z" fill="#07064E"></path>
<path d="M190.28 35.4199C191.68 35.4199 192.815 34.285 192.815 32.8849C192.815 31.4849 191.68 30.3499 190.28 30.3499C188.88 30.3499 187.745 31.4849 187.745 32.8849C187.745 34.285 188.88 35.4199 190.28 35.4199Z" fill="#07064E"></path>
<path d="M28.71 8.11494C27.985 9.52494 26.15 10.1349 24.61 9.47494C23.07 8.81494 22.405 7.13994 23.13 5.72994C23.855 4.31994 25.69 3.70994 27.23 4.36994C28.77 5.02994 29.435 6.70494 28.71 8.11494Z" fill="#07064E"></path>
<path d="M38.66 134.695C0.285027 126.165 -3.40997 74.9449 16.575 40.9549C42.33 -2.84506 96.04 1.26494 124.73 4.20994C157.54 7.57494 183.82 8.73494 178.965 36.3449C172.705 71.9549 196.65 57.3149 197.825 92.4199C198.46 111.33 181.84 125.365 151.18 126.815C74.255 130.455 75.825 142.955 38.655 134.695H38.66Z" fill="#07064E"></path>
</g>
<g id="illu_spot_mode-dark_simple_2">
<g id="stroke">
<g id="Group">
<path id="Vector" d="M60.215 20.1652L62.05 25.1252C62.08 25.2002 62.14 25.2652 62.215 25.2902L67.175 27.1252C67.42 27.2152 67.42 27.5602 67.175 27.6502L62.215 29.4852C62.14 29.5152 62.075 29.5752 62.05 29.6502L60.215 34.6102C60.125 34.8552 59.78 34.8552 59.69 34.6102L57.855 29.6502C57.825 29.5752 57.765 29.5102 57.69 29.4852L52.73 27.6502C52.485 27.5602 52.485 27.2152 52.73 27.1252L57.69 25.2902C57.765 25.2602 57.83 25.2002 57.855 25.1252L59.69 20.1652C59.78 19.9202 60.125 19.9202 60.215 20.1652Z" fill="white"></path>
<path id="Vector_2" d="M59.95 35.0501C59.725 35.0501 59.53 34.9151 59.45 34.7051L57.615 29.7451L52.635 27.8901C52.425 27.8101 52.29 27.6151 52.29 27.3901C52.29 27.1651 52.425 26.9701 52.635 26.8951L57.595 25.0601L59.45 20.0801C59.53 19.8701 59.725 19.7351 59.95 19.7351C60.175 19.7351 60.37 19.8701 60.45 20.0801L62.285 25.0401L67.265 26.8951C67.475 26.9751 67.61 27.1701 67.61 27.3901C67.61 27.6151 67.475 27.8101 67.265 27.8901L62.305 29.7251L60.45 34.7051C60.37 34.9151 60.175 35.0501 59.95 35.0501ZM52.81 27.4201L57.77 29.2551C57.915 29.3101 58.03 29.4251 58.085 29.5701L59.92 34.5301L60.21 34.6151L59.975 34.5301L61.81 29.5701C61.865 29.4251 61.98 29.3101 62.125 29.2551L67.085 27.4201V27.3601L62.125 25.5251C61.98 25.4701 61.865 25.3551 61.81 25.2101L59.975 20.2501C59.975 20.2501 59.965 20.2301 59.945 20.2301L58.08 25.2101C58.025 25.3551 57.91 25.4701 57.765 25.5251L52.805 27.3601L52.72 27.6501L52.805 27.4151L52.81 27.4201Z" fill="#07064E"></path>
</g>
<g id="Group_2">
<path id="Vector_3" d="M28.7 40.88L30.535 45.84C30.565 45.915 30.625 45.98 30.7 46.005L35.66 47.84C35.905 47.93 35.905 48.275 35.66 48.365L30.7 50.2C30.625 50.23 30.56 50.29 30.535 50.365L28.7 55.325C28.61 55.57 28.265 55.57 28.175 55.325L26.34 50.365C26.31 50.29 26.25 50.225 26.175 50.2L21.215 48.365C20.97 48.275 20.97 47.93 21.215 47.84L26.175 46.005C26.25 45.975 26.315 45.915 26.34 45.84L28.175 40.88C28.265 40.635 28.61 40.635 28.7 40.88Z" fill="white"></path>
<path id="Vector_4" d="M28.44 55.7651C28.215 55.7651 28.02 55.6301 27.94 55.4201L26.105 50.4601L21.125 48.6051C20.915 48.5251 20.78 48.3301 20.78 48.1051C20.78 47.8801 20.915 47.6851 21.125 47.6051L26.085 45.7701L27.94 40.7901C28.02 40.5801 28.215 40.4451 28.44 40.4451C28.665 40.4451 28.86 40.5801 28.94 40.7901L30.775 45.7501L35.755 47.6051C35.965 47.6851 36.1 47.8801 36.1 48.1051C36.1 48.3301 35.965 48.5251 35.755 48.6051L30.795 50.4401L28.94 55.4201C28.86 55.6301 28.665 55.7651 28.44 55.7651ZM28.44 40.9451L26.575 45.9251C26.52 46.0701 26.41 46.1851 26.26 46.2401L21.3 48.0751V48.1351L26.26 49.9701C26.405 50.0251 26.52 50.1401 26.575 50.2851L28.41 55.2451L28.7 55.3301L28.465 55.2451L30.3 50.2851C30.355 50.1401 30.47 50.0251 30.615 49.9701L35.575 48.1351V48.0751L30.615 46.2401C30.47 46.1851 30.355 46.0701 30.3 45.9251L28.465 40.9651C28.465 40.9651 28.455 40.9451 28.435 40.9451H28.44Z" fill="#07064E"></path>
</g>
<g id="Group_3">
<path id="Vector_5" d="M153.61 74.2853L155.445 79.2453C155.475 79.3203 155.535 79.3853 155.61 79.4103L160.57 81.2453C160.815 81.3353 160.815 81.6803 160.57 81.7703L155.61 83.6053C155.535 83.6353 155.47 83.6953 155.445 83.7703L153.61 88.7303C153.52 88.9753 153.175 88.9753 153.085 88.7303L151.25 83.7703C151.22 83.6953 151.16 83.6303 151.085 83.6053L146.125 81.7703C145.88 81.6803 145.88 81.3353 146.125 81.2453L151.085 79.4103C151.16 79.3803 151.225 79.3203 151.25 79.2453L153.085 74.2853C153.175 74.0403 153.52 74.0403 153.61 74.2853Z" fill="white"></path>
<path id="Vector_6" d="M153.35 89.1702C153.125 89.1702 152.93 89.0352 152.85 88.8252L151.015 83.8652L146.035 82.0102C145.825 81.9302 145.69 81.7352 145.69 81.5152C145.69 81.2902 145.825 81.0952 146.035 81.0152L150.995 79.1802L152.85 74.2002C152.93 73.9902 153.125 73.8552 153.35 73.8552C153.575 73.8552 153.77 73.9902 153.85 74.2002L155.685 79.1602L160.665 81.0152C160.875 81.0952 161.01 81.2902 161.01 81.5152C161.01 81.7402 160.875 81.9352 160.665 82.0102L155.705 83.8452L153.85 88.8252C153.77 89.0352 153.575 89.1702 153.35 89.1702ZM153.35 74.3502L151.485 79.3302C151.43 79.4752 151.32 79.5902 151.175 79.6452L146.215 81.4802V81.5402L151.175 83.3752C151.32 83.4302 151.435 83.5452 151.49 83.6902L153.325 88.6502H153.385L155.22 83.6902C155.275 83.5452 155.39 83.4302 155.535 83.3752L160.495 81.5402L160.58 81.2502L160.495 81.4852L155.535 79.6502C155.39 79.5952 155.275 79.4802 155.22 79.3352L153.385 74.3752C153.385 74.3752 153.38 74.3552 153.355 74.3552L153.35 74.3502Z" fill="#07064E"></path>
</g>
<g id="Group_4">
<path id="Vector_7" d="M59.79 106.705L61.625 111.665C61.655 111.74 61.715 111.805 61.79 111.83L66.75 113.665C66.995 113.755 66.995 114.1 66.75 114.19L61.79 116.025C61.715 116.055 61.65 116.115 61.625 116.19L59.79 121.15C59.7 121.395 59.355 121.395 59.265 121.15L57.43 116.19C57.4 116.115 57.34 116.05 57.265 116.025L52.305 114.19C52.06 114.1 52.06 113.755 52.305 113.665L57.265 111.83C57.34 111.8 57.405 111.74 57.43 111.665L59.265 106.705C59.355 106.46 59.7 106.46 59.79 106.705Z" fill="white"></path>
<path id="Vector_8" d="M59.525 121.59C59.3 121.59 59.105 121.455 59.025 121.245L57.19 116.285L52.21 114.43C52 114.35 51.865 114.155 51.865 113.93C51.865 113.705 52 113.51 52.21 113.43L57.17 111.595L59.025 106.615C59.105 106.405 59.3 106.27 59.525 106.27C59.75 106.27 59.945 106.405 60.025 106.615L61.86 111.575L66.84 113.43C67.05 113.51 67.185 113.705 67.185 113.93C67.185 114.155 67.05 114.35 66.84 114.43L61.88 116.265L60.025 121.245C59.945 121.455 59.75 121.59 59.525 121.59ZM59.525 106.775L57.66 111.755C57.605 111.9 57.49 112.015 57.345 112.07L52.385 113.905V113.965L57.345 115.8C57.49 115.855 57.605 115.97 57.66 116.115L59.495 121.075L59.785 121.16L59.55 121.075L61.385 116.115C61.44 115.97 61.55 115.855 61.695 115.8L66.655 113.965V113.905L61.695 112.07C61.55 112.015 61.435 111.905 61.38 111.755L59.545 106.795C59.545 106.795 59.535 106.775 59.515 106.775H59.525Z" fill="#07064E"></path>
</g>
<g id="Group_5">
<path id="Vector_9" d="M158.68 25.12L160.515 30.08C160.545 30.155 160.605 30.22 160.68 30.245L165.64 32.08C165.885 32.17 165.885 32.515 165.64 32.605L160.68 34.44C160.605 34.47 160.54 34.53 160.515 34.605L158.68 39.565C158.59 39.81 158.245 39.81 158.155 39.565L156.32 34.605C156.29 34.53 156.23 34.465 156.155 34.44L151.195 32.605C150.95 32.515 150.95 32.17 151.195 32.08L156.155 30.245C156.23 30.215 156.295 30.155 156.32 30.08L158.155 25.12C158.245 24.875 158.59 24.875 158.68 25.12Z" fill="white"></path>
<path id="Vector_10" d="M158.415 40.0051C158.19 40.0051 157.995 39.8701 157.915 39.6601L156.08 34.7001L151.1 32.8451C150.89 32.7651 150.755 32.5701 150.755 32.3451C150.755 32.1201 150.89 31.9251 151.1 31.8451L156.06 30.0101L157.915 25.0301C157.995 24.8201 158.19 24.6851 158.415 24.6851C158.64 24.6851 158.835 24.8201 158.915 25.0301L160.75 29.9901L165.73 31.8451C165.94 31.9251 166.075 32.1201 166.075 32.3451C166.075 32.5701 165.94 32.7651 165.73 32.8451L160.77 34.6801L158.915 39.6601C158.835 39.8701 158.64 40.0051 158.415 40.0051ZM158.415 25.1851L156.55 30.1651C156.495 30.3101 156.38 30.4251 156.235 30.4801L151.275 32.3151V32.3751L156.235 34.2101C156.38 34.2651 156.495 34.3801 156.55 34.5251L158.385 39.4851L158.675 39.5701L158.44 39.4851L160.275 34.5251C160.33 34.3801 160.44 34.2651 160.585 34.2101L165.545 32.3751V32.3151L160.585 30.4801C160.44 30.4251 160.325 30.3151 160.27 30.1651L158.435 25.2051C158.435 25.2051 158.425 25.1851 158.405 25.1851H158.415Z" fill="#07064E"></path>
</g>
<g id="Group_6">
<g id="Group_7">
<path id="Vector_11" d="M100 31.3052C78.6651 31.3052 61.3051 48.6652 61.3051 70.0002C61.3051 91.3352 78.6651 108.695 100 108.695C121.335 108.695 138.695 91.3352 138.695 70.0002C138.695 48.6652 121.335 31.3052 100 31.3052Z" fill="#F5F5F5"></path>
<g id="Group_8">
<path id="Vector_12" d="M107.695 42.1101C101.615 42.1101 96.67 47.0551 96.67 53.1351C96.67 59.2151 101.615 64.1601 107.695 64.1601C113.775 64.1601 118.72 59.2151 118.72 53.1351C118.72 47.0551 113.775 42.1101 107.695 42.1101Z" fill="#EDEDED"></path>
<path id="Vector_13" d="M107.695 64.4101C101.475 64.4101 96.42 59.3501 96.42 53.1351C96.42 46.9201 101.48 41.8601 107.695 41.8601C113.91 41.8601 118.97 46.9201 118.97 53.1351C118.97 59.3501 113.91 64.4101 107.695 64.4101ZM107.695 42.3601C101.755 42.3601 96.92 47.1951 96.92 53.1351C96.92 59.0751 101.755 63.9101 107.695 63.9101C113.635 63.9101 118.47 59.0751 118.47 53.1351C118.47 47.1951 113.635 42.3601 107.695 42.3601Z" fill="#07064E"></path>
</g>
<g id="Group_9">
<path id="Vector_14" d="M102.165 84.3604C98.3801 84.3604 95.3051 87.4404 95.3051 91.2204C95.3051 95.0004 98.3851 98.0804 102.165 98.0804C105.945 98.0804 109.025 95.0004 109.025 91.2204C109.025 87.4404 105.945 84.3604 102.165 84.3604Z" fill="#EDEDED"></path>
<path id="Vector_15" d="M102.165 98.3352C98.2451 98.3352 95.0551 95.1452 95.0551 91.2252C95.0551 87.3052 98.2451 84.1152 102.165 84.1152C106.085 84.1152 109.275 87.3052 109.275 91.2252C109.275 95.1452 106.085 98.3352 102.165 98.3352ZM102.165 84.6102C98.5201 84.6102 95.5551 87.5752 95.5551 91.2202C95.5551 94.8652 98.5201 97.8302 102.165 97.8302C105.81 97.8302 108.775 94.8652 108.775 91.2202C108.775 87.5752 105.81 84.6102 102.165 84.6102Z" fill="#07064E"></path>
</g>
<g id="Group_10">
<path id="Vector_16" d="M75.255 71.895C72.5 71.895 70.255 74.14 70.255 76.895C70.255 79.65 72.5 81.895 75.255 81.895C78.01 81.895 80.255 79.65 80.255 76.895C80.255 74.14 78.01 71.895 75.255 71.895Z" fill="#EDEDED"></path>
<path id="Vector_17" d="M75.255 82.1501C72.36 82.1501 70.005 79.7951 70.005 76.9001C70.005 74.0051 72.36 71.6501 75.255 71.6501C78.15 71.6501 80.505 74.0051 80.505 76.9001C80.505 79.7951 78.15 82.1501 75.255 82.1501ZM75.255 72.1451C72.635 72.1451 70.505 74.2751 70.505 76.8951C70.505 79.5151 72.635 81.6451 75.255 81.6451C77.875 81.6451 80.005 79.5151 80.005 76.8951C80.005 74.2751 77.875 72.1451 75.255 72.1451Z" fill="#07064E"></path>
</g>
<g id="Group_11">
<path id="Vector_18" d="M85.255 39.5002C82.5 39.5002 80.255 41.7452 80.255 44.5002C80.255 47.2552 82.5 49.5002 85.255 49.5002C88.01 49.5002 90.255 47.2552 90.255 44.5002C90.255 41.7452 88.01 39.5002 85.255 39.5002Z" fill="#EDEDED"></path>
<path id="Vector_19" d="M85.255 49.7502C82.36 49.7502 80.005 47.3952 80.005 44.5002C80.005 41.6052 82.36 39.2502 85.255 39.2502C88.15 39.2502 90.505 41.6052 90.505 44.5002C90.505 47.3952 88.15 49.7502 85.255 49.7502ZM85.255 39.7502C82.635 39.7502 80.505 41.8802 80.505 44.5002C80.505 47.1202 82.635 49.2502 85.255 49.2502C87.875 49.2502 90.005 47.1202 90.005 44.5002C90.005 41.8802 87.875 39.7502 85.255 39.7502Z" fill="#07064E"></path>
</g>
<g id="Group_12">
<path id="Vector_20" d="M132.545 69.6001C127.53 69.6001 123.45 73.6801 123.45 78.6951C123.45 83.7101 127.53 87.7901 132.545 87.7901C133.2 87.7901 133.835 87.7201 134.45 87.5851C136.875 82.8551 138.365 77.5651 138.645 71.9651C137.03 70.5001 134.895 69.6001 132.545 69.6001Z" fill="#EDEDED"></path>
<path id="Vector_21" d="M132.545 88.0401C127.39 88.0401 123.2 83.8451 123.2 78.6951C123.2 73.5451 127.395 69.3501 132.545 69.3501C134.86 69.3501 137.085 70.2151 138.81 71.7801L138.9 71.8601V71.9801C138.615 77.4851 137.195 82.7751 134.67 87.7051L134.615 87.8101L134.5 87.8351C133.85 87.9751 133.19 88.0451 132.545 88.0451V88.0401ZM132.545 69.8501C127.665 69.8501 123.7 73.8201 123.7 78.6951C123.7 83.5701 127.67 87.5401 132.545 87.5401C133.12 87.5401 133.7 87.4801 134.28 87.3651C136.72 82.5701 138.1 77.4251 138.39 72.0701C136.765 70.6351 134.695 69.8451 132.545 69.8451V69.8501Z" fill="#07064E"></path>
</g>
</g>
<path id="Vector_22" d="M100 108.945C78.5251 108.945 61.0551 91.4752 61.0551 70.0002C61.0551 48.5252 78.5251 31.0552 100 31.0552C121.475 31.0552 138.945 48.5252 138.945 70.0002C138.945 91.4752 121.475 108.945 100 108.945ZM100 31.5552C78.8001 31.5552 61.5551 48.8002 61.5551 70.0002C61.5551 91.2002 78.8001 108.445 100 108.445C121.2 108.445 138.445 91.2002 138.445 70.0002C138.445 48.8002 121.2 31.5552 100 31.5552Z" fill="#07064E"></path>
</g>
<path id="Vector_23" d="M42.445 67.1C43.58 67.1 44.5 66.1799 44.5 65.045C44.5 63.91 43.58 62.99 42.445 62.99C41.3101 62.99 40.39 63.91 40.39 65.045C40.39 66.1799 41.3101 67.1 42.445 67.1Z" fill="white"></path>
<path id="Vector_24" d="M141.855 110.75C142.99 110.75 143.91 109.83 143.91 108.695C143.91 107.56 142.99 106.64 141.855 106.64C140.72 106.64 139.8 107.56 139.8 108.695C139.8 109.83 140.72 110.75 141.855 110.75Z" fill="white"></path>
<path id="Vector_25" d="M160.76 56.1552C161.895 56.1552 162.815 55.2351 162.815 54.1002C162.815 52.9652 161.895 52.0452 160.76 52.0452C159.625 52.0452 158.705 52.9652 158.705 54.1002C158.705 55.2351 159.625 56.1552 160.76 56.1552Z" fill="white"></path>
<path id="Vector_26" d="M126.82 29.4452C127.955 29.4452 128.875 28.5252 128.875 27.3902C128.875 26.2553 127.955 25.3352 126.82 25.3352C125.685 25.3352 124.765 26.2553 124.765 27.3902C124.765 28.5252 125.685 29.4452 126.82 29.4452Z" fill="white"></path>
</g>
</g>
</g>
</g>
<defs>
<clipPath id="clip0_548_182">
<rect width="200" height="140" fill="white"></rect>
</clipPath>
</defs>
</svg>