<svg width="200" height="140" viewBox="0 0 200 140" fill="none" xmlns="http://www.w3.org/2000/svg">
<g id="Size=Default" clip-path="url(#clip0_548_185)">
<g id="illu_spot_mode-bright_simple">
<g id="background">
<path d="M193.046 13.7874C194.338 12.8214 194.769 11.2155 194.01 10.2006C193.25 9.18564 191.588 9.14601 190.297 10.112C189.005 11.0781 188.574 12.6839 189.333 13.6989C190.093 14.7138 191.755 14.7534 193.046 13.7874Z" fill="#2BF5BA"></path>
<path d="M40.1083 133.794C41.3996 132.828 41.8309 131.222 41.0716 130.207C40.3124 129.192 38.6501 129.152 37.3587 130.118C36.0674 131.085 35.6361 132.69 36.3954 133.705C37.1546 134.72 38.817 134.76 40.1083 133.794Z" fill="#2BF5BA"></path>
<path d="M23.325 9.66985C-11.99 30.0448 7.045 112.025 37.135 122.005C74.62 134.44 51.865 106.425 151.565 135.295C184.765 144.91 183.875 130.82 171.69 102.28C158.775 72.0398 194.995 72.3848 195.76 37.9698C196.235 16.5698 177.31 -5.75515 147.62 4.09985C89.42 23.4198 56.57 -9.51016 23.325 9.66985Z" fill="#2BF5BA"></path>
<path d="M9.705 126.12C9.11 123.565 11.07 120.815 14.08 119.985C17.09 119.155 20.01 120.555 20.605 123.11C21.2 125.665 19.24 128.415 16.23 129.245C13.22 130.075 10.3 128.675 9.705 126.12Z" fill="#2BF5BA"></path>
</g>
<g id="illu_spot_mode-bright_simple_2">
<g id="stroke">
<path id="Vector" d="M114.16 69.2601C112.485 58.6201 103.275 50.4851 92.165 50.4851C84.37 50.4851 77.515 54.4951 73.535 60.5551C70.225 56.0501 64.895 53.1251 58.875 53.1251C50.47 53.1251 43.4 58.8301 41.32 66.5801C29.87 67.2751 20.8 76.7801 20.8 88.4051C20.8 100.485 30.59 110.275 42.67 110.275H46.94C50.68 113.125 55.35 114.815 60.415 114.815C65.48 114.815 70.145 113.12 73.89 110.275H103.585C115.665 110.275 125.455 100.485 125.455 88.4051C125.455 80.1651 120.895 72.9951 114.165 69.2651L114.16 69.2601Z" fill="white"></path>
<path id="Vector_2" d="M169.18 20.42C169.205 20.095 169.225 19.77 169.225 19.44C169.225 13.13 164.11 8.02002 157.805 8.02002C152.5 8.02002 148.04 11.64 146.755 16.54C144.825 14.325 141.995 12.92 138.83 12.92C133.98 12.92 129.905 16.205 128.69 20.67C123.125 22.035 118.995 27.05 118.995 33.035C118.995 40.07 124.695 45.77 131.73 45.77H133.125C135.82 49.175 139.985 51.365 144.665 51.365C149.345 51.365 153.515 49.175 156.205 45.77H167.47C174.505 45.77 180.205 40.07 180.205 33.035C180.205 26.58 175.4 21.25 169.175 20.415L169.18 20.42Z" fill="white"></path>
<g id="Group">
<g id="Group_2">
<path id="Vector_3" d="M100 106.715C97.155 106.715 94.39 106.38 91.73 105.765L98.285 119.015C98.99 120.435 101.015 120.435 101.715 119.015L108.27 105.765C105.61 106.38 102.845 106.715 100 106.715Z" fill="white"></path>
<path id="Vector_4" d="M100 120.325C99.17 120.325 98.43 119.865 98.06 119.12L91.275 105.4L91.79 105.52C97.21 106.775 102.79 106.775 108.215 105.52L108.73 105.4L101.945 119.12C101.58 119.865 100.835 120.325 100.005 120.325H100ZM92.19 106.12L98.51 118.9C98.795 119.48 99.355 119.825 100 119.825C100.645 119.825 101.205 119.48 101.49 118.9L107.81 106.12C102.645 107.24 97.35 107.24 92.185 106.12H92.19Z" fill="#07064E"></path>
</g>
<g id="Group_3">
<path id="Vector_5" d="M72.295 94.0502L69.805 108.645C69.54 110.205 71.175 111.4 72.58 110.66L85.66 103.795C80.49 101.595 75.93 98.2302 72.295 94.0452V94.0502Z" fill="white"></path>
<path id="Vector_6" d="M71.69 111.13C71.245 111.13 70.8 110.99 70.42 110.715C69.75 110.23 69.42 109.415 69.56 108.6L72.14 93.4851L72.485 93.8851C76.12 98.0701 80.71 101.415 85.76 103.565L86.245 103.77L72.695 110.875C72.375 111.04 72.03 111.125 71.69 111.125V111.13ZM72.455 94.6051L70.055 108.685C69.945 109.325 70.195 109.93 70.72 110.31C71.245 110.69 71.9 110.735 72.47 110.435L85.09 103.815C80.32 101.7 75.97 98.5301 72.46 94.6051H72.455Z" fill="#07064E"></path>
</g>
<g id="Group_4">
<path id="Vector_7" d="M63.435 73.1851L52.86 83.5101C51.725 84.6151 52.35 86.5451 53.92 86.7751L68.55 88.9151C65.73 84.2451 63.93 78.9001 63.435 73.1851Z" fill="white"></path>
<path id="Vector_8" d="M69.035 89.2401L53.88 87.0251C53.06 86.9051 52.39 86.3401 52.135 85.5501C51.88 84.7601 52.09 83.9101 52.68 83.3351L63.635 72.6401L63.68 73.1651C64.16 78.7451 65.87 84.0051 68.76 88.7851L69.035 89.2401ZM63.235 73.7301L53.035 83.6901C52.57 84.1401 52.415 84.7801 52.615 85.3951C52.815 86.0101 53.315 86.4351 53.955 86.5251L68.065 88.5901C65.39 84.0151 63.765 79.0201 63.235 73.7301Z" fill="#07064E"></path>
</g>
<g id="Group_5">
<path id="Vector_9" d="M127.705 94.05C124.07 98.235 119.51 101.595 114.335 103.8L127.415 110.665C128.82 111.4 130.455 110.21 130.19 108.65L127.7 94.055L127.705 94.05Z" fill="white"></path>
<path id="Vector_10" d="M128.31 111.13C127.965 111.13 127.62 111.045 127.305 110.88L113.755 103.775L114.24 103.57C119.29 101.42 123.88 98.07 127.515 93.89L127.86 93.49L130.44 108.605C130.58 109.42 130.25 110.23 129.58 110.72C129.2 110.995 128.755 111.135 128.31 111.135V111.13ZM114.915 103.815L127.535 110.435C128.11 110.735 128.76 110.685 129.285 110.31C129.81 109.93 130.055 109.32 129.95 108.685L127.55 94.605C124.04 98.53 119.69 101.7 114.92 103.815H114.915Z" fill="#07064E"></path>
</g>
<g id="Group_6">
<path id="Vector_11" d="M147.14 83.5152L136.565 73.1902C136.07 78.9052 134.27 84.2502 131.45 88.9202L146.08 86.7802C147.65 86.5502 148.275 84.6252 147.14 83.5152Z" fill="white"></path>
<path id="Vector_12" d="M130.965 89.2401L131.24 88.7851C134.125 84.0001 135.835 78.7451 136.32 73.1651L136.365 72.6401L147.32 83.3351C147.915 83.9151 148.12 84.7651 147.865 85.5501C147.61 86.3401 146.94 86.9051 146.12 87.0251L130.965 89.2401ZM136.765 73.7301C136.235 79.0201 134.61 84.0151 131.935 88.5901L146.045 86.5251C146.685 86.4301 147.185 86.0101 147.385 85.3951C147.585 84.7801 147.43 84.1451 146.965 83.6901L136.765 73.7301Z" fill="#07064E"></path>
</g>
<g id="Group_7">
<path id="Vector_13" d="M146.08 53.225L131.45 51.085C134.27 55.755 136.07 61.1 136.565 66.815L147.14 56.49C148.275 55.385 147.65 53.455 146.08 53.225Z" fill="white"></path>
<path id="Vector_14" d="M136.36 67.36L136.315 66.835C135.83 61.255 134.125 55.995 131.235 51.215L130.96 50.76L146.115 52.975C146.935 53.095 147.605 53.66 147.86 54.45C148.115 55.24 147.905 56.09 147.315 56.665L136.36 67.36ZM131.935 51.41C134.61 55.985 136.235 60.98 136.765 66.27L146.965 56.31C147.43 55.86 147.585 55.22 147.385 54.605C147.185 53.99 146.685 53.565 146.045 53.475L131.935 51.41Z" fill="#07064E"></path>
</g>
<g id="Group_8">
<path id="Vector_15" d="M127.705 45.9549L130.195 31.3599C130.46 29.7999 128.825 28.6049 127.42 29.3449L114.34 36.2099C119.51 38.4099 124.07 41.7749 127.71 45.9599L127.705 45.9549Z" fill="white"></path>
<path id="Vector_16" d="M127.865 46.5149L127.52 46.1149C123.885 41.9299 119.295 38.5849 114.245 36.4349L113.76 36.2299L127.31 29.1249C128.045 28.7399 128.915 28.8049 129.585 29.2899C130.255 29.7749 130.585 30.5899 130.445 31.4049L127.865 46.5199V46.5149ZM114.915 36.1849C119.685 38.2999 124.035 41.4699 127.545 45.3949L129.945 31.3149C130.055 30.6749 129.805 30.0699 129.28 29.6899C128.755 29.3099 128.105 29.2649 127.53 29.5649L114.91 36.1849H114.915Z" fill="#07064E"></path>
</g>
<g id="Group_9">
<path id="Vector_17" d="M100 33.2852C102.845 33.2852 105.61 33.6202 108.27 34.2352L101.715 20.9852C101.01 19.5652 98.985 19.5652 98.285 20.9852L91.73 34.2352C94.39 33.6202 97.155 33.2852 100 33.2852Z" fill="white"></path>
<path id="Vector_18" d="M91.275 34.6L98.06 20.88C98.425 20.135 99.17 19.675 100 19.675C100.83 19.675 101.57 20.135 101.94 20.88L108.725 34.6L108.21 34.48C102.79 33.225 97.205 33.225 91.785 34.48L91.27 34.6H91.275ZM100 33.035C102.605 33.035 105.23 33.32 107.81 33.875L101.49 21.095C101.205 20.515 100.645 20.17 100 20.17C99.355 20.17 98.795 20.515 98.51 21.095L92.19 33.875C94.775 33.315 97.4 33.035 100 33.035Z" fill="#07064E"></path>
</g>
<g id="Group_10">
<path id="Vector_19" d="M72.295 45.9501C75.93 41.7651 80.49 38.4051 85.66 36.2001L72.58 29.3351C71.175 28.6001 69.54 29.7901 69.805 31.3501L72.295 45.9451V45.9501Z" fill="white"></path>
<path id="Vector_20" d="M72.135 46.515L69.555 31.4C69.415 30.585 69.745 29.775 70.415 29.285C71.085 28.8 71.96 28.735 72.69 29.12L86.24 36.225L85.755 36.43C80.705 38.58 76.115 41.93 72.48 46.11L72.135 46.51V46.515ZM71.685 29.365C71.345 29.365 71.01 29.475 70.71 29.69C70.185 30.07 69.94 30.68 70.045 31.315L72.445 45.395C75.955 41.47 80.305 38.3 85.075 36.185L72.455 29.565C72.205 29.435 71.94 29.37 71.675 29.37L71.685 29.365Z" fill="#07064E"></path>
</g>
<g id="Group_11">
<path id="Vector_21" d="M68.55 51.085L53.92 53.225C52.35 53.455 51.725 55.38 52.86 56.49L63.435 66.815C63.93 61.1 65.73 55.755 68.55 51.085Z" fill="white"></path>
<path id="Vector_22" d="M63.64 67.36L52.685 56.665C52.09 56.085 51.885 55.235 52.14 54.45C52.395 53.66 53.065 53.095 53.885 52.975L69.04 50.76L68.765 51.215C65.875 56 64.17 61.255 63.685 66.835L63.64 67.36ZM68.065 51.41L53.955 53.475C53.315 53.57 52.815 53.99 52.615 54.605C52.415 55.22 52.57 55.855 53.035 56.31L63.235 66.27C63.765 60.98 65.39 55.985 68.065 51.41Z" fill="#07064E"></path>
</g>
<path id="Vector_23" d="M100 39.6101C83.245 39.6101 69.61 53.2401 69.61 70.0001C69.61 86.7601 83.24 100.39 100 100.39C116.76 100.39 130.39 86.7601 130.39 70.0001C130.39 53.2401 116.76 39.6101 100 39.6101Z" fill="#2BF5BA"></path>
<g id="Group_12">
<path id="Vector_24" d="M100 39.6101C83.245 39.6101 69.61 53.2401 69.61 70.0001C69.61 86.7601 83.24 100.39 100 100.39C116.76 100.39 130.39 86.7601 130.39 70.0001C130.39 53.2401 116.76 39.6101 100 39.6101Z" fill="white"></path>
<path id="Vector_25" d="M100 100.64C83.105 100.64 69.36 86.8951 69.36 70.0001C69.36 53.1051 83.105 39.3601 100 39.3601C116.895 39.3601 130.64 53.1051 130.64 70.0001C130.64 86.8951 116.895 100.64 100 100.64ZM100 39.8601C83.38 39.8601 69.86 53.3801 69.86 70.0001C69.86 86.6201 83.38 100.14 100 100.14C116.62 100.14 130.14 86.6201 130.14 70.0001C130.14 53.3801 116.62 39.8601 100 39.8601Z" fill="#07064E"></path>
</g>
</g>
</g>
</g>
</g>
</g>
<defs>
<clipPath id="clip0_548_185">
<rect width="200" height="140" fill="white"></rect>
</clipPath>
</defs>
</svg>