<svg width="34" height="34" viewBox="0 0 34 34" fill="none" xmlns="http://www.w3.org/2000/svg">
<g clip-path="url(#clip0_3471_19589)">
<g clip-path="url(#clip1_3471_19589)">
<circle cx="16" cy="25.9736" r="38" fill="#2AF5BA"/>
<path d="M43.4984 13.8304L27.9178 10.6953C26.6685 10.4436 25.444 11.2639 25.1929 12.513L24.3869 16.543L22.9082 23.9255L21.9751 28.5925C21.8883 29.0244 22.4339 29.2854 22.7129 28.9467L25.6703 25.389C26.0671 24.9105 26.6964 24.6868 27.3071 24.8111L40.758 27.5174C42.0073 27.7691 43.2318 26.9488 43.4829 25.6997L45.3119 16.5647C45.563 15.3125 44.7446 14.0852 43.4984 13.8335V13.8304Z" fill="#38D9AA"/>
<path d="M43.4984 12.5067L27.9178 9.37159C26.6685 9.11991 25.444 9.9402 25.1929 11.1893L24.3869 15.2192L22.9082 22.6018L21.9751 27.2687C21.8883 27.7006 22.4339 27.9616 22.7129 27.6229L25.6703 24.0653C26.0671 23.5868 26.6964 23.3631 27.3071 23.4873L40.758 26.1937C42.0073 26.4453 43.2318 25.6251 43.4829 24.376L45.3119 15.241C45.563 13.9888 44.7446 12.7615 43.4984 12.5098V12.5067Z" fill="white"/>
<path d="M27.6778 9.32742L43.7348 12.5579C44.8563 12.7836 45.5851 13.8809 45.36 15.005L45.2837 15.3858L25.1631 11.3378L25.2393 10.957C25.4644 9.83286 26.5593 9.10239 27.6808 9.32803L27.6778 9.32742Z" fill="#07064E"/>
<path d="M29.9193 14.8629L27.5456 14.3853C26.953 14.2661 26.3762 14.6509 26.2573 15.2448L25.7808 17.624C25.6619 18.2179 26.0458 18.796 26.6384 18.9153L29.0121 19.3928C29.6047 19.512 30.1814 19.1272 30.3004 18.5333L30.7768 16.1541C30.8958 15.5602 30.5119 14.9821 29.9193 14.8629Z" fill="#07064E"/>
<path d="M32.2543 17.771L31.7779 20.1502C31.6589 20.7441 32.0429 21.3222 32.6354 21.4414L35.0091 21.919C35.6017 22.0382 36.1785 21.6534 36.2974 21.0595L36.7739 18.6803C36.8928 18.0864 36.5089 17.5083 35.9163 17.3891L33.5426 16.9115C32.95 16.7923 32.3733 17.1771 32.2543 17.771Z" fill="#EBEBEB"/>
<path d="M32.2559 16.4515L31.7794 18.8307C31.6605 19.4246 32.0444 20.0027 32.637 20.1219L35.0107 20.5995C35.6033 20.7187 36.18 20.3339 36.299 19.74L36.7755 17.3608C36.8944 16.7669 36.5105 16.1888 35.9179 16.0695L33.5442 15.592C32.9516 15.4728 32.3748 15.8576 32.2559 16.4515Z" fill="#2BF5BA"/>
<path d="M41.9094 17.2742L39.5356 16.7966C38.9431 16.6774 38.3663 17.0622 38.2474 17.6561L37.7709 20.0353C37.6519 20.6293 38.0359 21.2074 38.6284 21.3266L41.0022 21.8041C41.5947 21.9234 42.1715 21.5385 42.2904 20.9446L42.7669 18.5654C42.8859 17.9715 42.5019 17.3934 41.9094 17.2742Z" fill="#2BF5BA"/>
<path d="M29.3375 18.5969L29.0368 18.5379C29.0027 18.5317 28.9748 18.5161 28.9562 18.4944C28.9376 18.4726 28.9252 18.4478 28.9221 18.4198L28.7919 17.671L27.5023 17.41L27.0931 18.0532C27.0807 18.0749 27.0621 18.0936 27.0342 18.1091C27.0063 18.1246 26.9784 18.1278 26.9443 18.1215L26.6436 18.0625L28.3703 15.4121L28.764 15.4898L29.3375 18.6031V18.5969ZM28.7423 17.3665L28.5253 16.1019C28.5191 16.0646 28.5129 16.0211 28.5067 15.9714C28.5005 15.9217 28.4974 15.8689 28.4943 15.816C28.4447 15.9186 28.3982 16.0025 28.3548 16.0708L27.6697 17.149L28.7423 17.3634V17.3665Z" fill="white"/>
<path d="M34.468 16.6332C34.6447 16.6674 34.7935 16.7171 34.9144 16.7761C35.0353 16.8352 35.1314 16.9066 35.1996 16.9874C35.2678 17.0682 35.3143 17.1583 35.3329 17.2609C35.3515 17.3634 35.3515 17.469 35.3267 17.5871C35.3112 17.6586 35.2864 17.7238 35.2523 17.786C35.2182 17.845 35.1717 17.9009 35.1159 17.9475C35.0601 17.9941 34.995 18.0345 34.9175 18.0656C34.84 18.0967 34.7532 18.1184 34.6571 18.1278C34.8617 18.2116 35.0043 18.3173 35.088 18.4509C35.1717 18.5814 35.1965 18.7399 35.1593 18.917C35.1345 19.0381 35.0911 19.1469 35.026 19.237C34.9609 19.3271 34.8772 19.4017 34.778 19.4576C34.6788 19.5135 34.561 19.5477 34.4277 19.5601C34.2944 19.5757 34.1456 19.5664 33.9875 19.5322L32.9707 19.3271L33.5473 16.4437L34.4649 16.627L34.468 16.6332ZM33.8759 16.8321L33.6775 17.817L34.1921 17.9196C34.3006 17.9413 34.3998 17.9475 34.4866 17.9413C34.5734 17.932 34.6447 17.9134 34.7067 17.8823C34.7687 17.8512 34.8183 17.8046 34.8555 17.7487C34.8927 17.6928 34.9206 17.6275 34.933 17.556C34.9671 17.3851 34.9423 17.2515 34.8555 17.1521C34.7687 17.0527 34.6199 16.9812 34.406 16.9377L33.8759 16.8321ZM34.0464 19.2215C34.158 19.2432 34.2572 19.2494 34.3409 19.2401C34.4277 19.2308 34.499 19.209 34.561 19.1718C34.623 19.1345 34.6695 19.0879 34.7067 19.0288C34.7439 18.9698 34.7687 18.9014 34.7842 18.8269C34.8152 18.6777 34.7842 18.5503 34.6974 18.4416C34.6106 18.3328 34.4587 18.2583 34.2479 18.2148L33.6248 18.0905L33.4233 19.0941L34.0464 19.2184V19.2215Z" fill="white"/>
<path d="M41.0958 20.3431C41.1175 20.3463 41.133 20.3587 41.1454 20.3804L41.2663 20.5793C41.1206 20.6911 40.9563 20.7688 40.7734 20.8123C40.5905 20.8558 40.3797 20.8527 40.141 20.803C39.9364 20.7626 39.7535 20.688 39.6016 20.5824C39.4466 20.4767 39.3226 20.3463 39.2296 20.194C39.1366 20.0418 39.0746 19.8678 39.0467 19.672C39.0188 19.4794 39.025 19.2712 39.0684 19.0537C39.1118 18.8362 39.1862 18.6435 39.2916 18.4758C39.397 18.308 39.5241 18.1713 39.6729 18.0656C39.8217 17.96 39.9922 17.8885 40.1782 17.8512C40.3642 17.8139 40.5626 17.817 40.7703 17.8574C40.9749 17.8978 41.1485 17.9693 41.2911 18.0656C41.4337 18.1619 41.5546 18.28 41.6507 18.4167L41.4864 18.569C41.4864 18.569 41.4616 18.5907 41.4492 18.5969C41.4337 18.6031 41.4182 18.6031 41.3965 18.5969C41.3717 18.5907 41.3469 18.5721 41.3159 18.541C41.2849 18.5068 41.2477 18.4695 41.1981 18.426C41.1485 18.3825 41.0834 18.339 41.0059 18.2955C40.9253 18.252 40.8261 18.2179 40.7021 18.193C40.5533 18.1619 40.4138 18.1619 40.2805 18.1899C40.1472 18.2179 40.0263 18.2707 39.9178 18.3515C39.8093 18.4323 39.7163 18.5379 39.6388 18.6684C39.5613 18.7989 39.5055 18.9543 39.4683 19.1314C39.4311 19.3085 39.4249 19.4763 39.4497 19.6285C39.4745 19.7808 39.5179 19.9113 39.5892 20.0293C39.6574 20.1443 39.7504 20.2406 39.8589 20.3152C39.9705 20.3898 40.0945 20.4426 40.2371 20.4705C40.3239 20.4892 40.4014 20.4985 40.4727 20.5016C40.544 20.5047 40.6091 20.5016 40.6742 20.4923C40.7362 20.483 40.7951 20.4674 40.854 20.4426C40.9098 20.4208 40.9687 20.3898 41.0276 20.3556C41.0555 20.34 41.0803 20.3338 41.102 20.34L41.0958 20.3431Z" fill="white"/>
<path d="M15.4683 34.1975C11.5561 41.7292 7.04867 41.6453 3.10547 34.1727C4.80117 32.1841 5.12047 30.5435 4.72677 27.2593C8.48707 31.4384 10.9578 30.5218 13.8687 27.2593C13.4688 31.311 13.7633 32.3053 15.4683 34.1975Z" fill="white"/>
<path d="M2.63418 17.7705C2.63418 16.8073 2.19708 16.5618 1.72588 16.627C1.09038 16.714 0.798981 17.5561 1.01288 18.9325C1.23918 20.3929 1.81578 22.6549 2.57528 21.8719L2.63728 17.7705H2.63418Z" fill="white"/>
<path d="M16.0017 17.7705C16.0017 16.8073 16.4388 16.5618 16.91 16.627C17.5455 16.714 17.8369 17.5561 17.623 18.9325C17.3967 20.3929 16.8201 22.6549 16.0606 21.8719L15.7041 21.8035L16.0017 17.7705Z" fill="white"/>
<path d="M13.7725 27.3185C13.7725 29.8291 11.6924 32.7747 9.21242 32.7747C6.73242 32.7747 4.79492 29.8291 4.79492 27.3185C4.79492 24.8079 6.80372 22.7759 9.28372 22.7759C11.7637 22.7759 13.7725 24.8111 13.7725 27.3185Z" fill="#EBEBEB"/>
<path d="M13.804 11.6338C15.2827 13.6659 16.2127 16.7109 16.0422 20.0262C15.8407 23.9567 16.1941 24.69 14.6782 26.3741C14.1109 27.0017 11.6867 29.9597 9.5849 30.1026H9.0331C6.9313 29.9597 4.504 27.0017 3.9398 26.3741C2.4239 24.69 2.7773 23.9567 2.5758 20.0262C2.4239 17.0806 3.1431 14.3525 4.3397 12.3546" fill="white"/>
<path d="M16.222 10.6269L15.7322 10.8382C18.7423 9.33124 13.4568 7.08477 12.9484 6.86416C5.53321 3.67313 -0.595491 10.4685 0.932809 18.0716C0.914209 16.2819 2.28131 16.1203 2.64711 17.3166C2.94161 15.5269 3.51511 13.8366 4.37071 12.2551C5.86801 12.7305 8.63631 13.3177 11.5534 12.4446C12.4214 12.1836 13.3049 11.8573 14.1078 11.5342L13.8288 11.6523C13.8288 11.6523 15.6485 14.0386 15.9678 17.5931C15.9678 17.5931 16.6994 15.2286 17.7813 17.6895C17.7813 17.6895 18.1254 12.979 16.2251 10.6269H16.222Z" fill="#EBEBEB"/>
<path d="M15.8438 11.5746C14.7588 12.0469 13.2925 12.6528 11.8696 13.0785C7.54201 14.3741 3.53681 12.4539 3.53681 12.4539L4.15681 11.3353L14.1853 10.7792L15.8438 11.5746Z" fill="#EBEBEB"/>
<path d="M14.9386 13.762C15.5927 21.3155 13.5839 25.9047 9.73061 30.0994C11.7735 29.5401 14.0706 26.9425 14.61 26.3708C16.2003 24.6867 15.8283 23.9535 16.0422 20.0229C16.1662 17.7205 15.7322 15.5517 14.9386 13.762Z" fill="#EBEBEB"/>
<path d="M14.8854 16.9282V17.938C14.8854 19.1747 13.8841 20.1783 12.6503 20.1783C11.4165 20.1783 10.4152 19.1747 10.4152 17.938V16.9282H14.8885H14.8854Z" fill="#EBEBEB"/>
<path d="M8.12743 16.9282V17.938C8.12743 19.1747 7.12613 20.1783 5.89233 20.1783C4.65853 20.1783 3.65723 19.1747 3.65723 17.938V16.9282H8.13053H8.12743Z" fill="#EBEBEB"/>
<path d="M9.30895 26.0447H9.30585C8.28595 26.0447 7.31255 25.5817 6.49725 24.7117C6.45385 24.6651 6.44455 24.5998 6.46935 24.5439C6.49415 24.488 6.54995 24.4507 6.61195 24.4507H12.009C12.071 24.4507 12.1268 24.488 12.1516 24.5439C12.1764 24.5998 12.164 24.6682 12.1206 24.7117C11.2991 25.5817 10.3288 26.0416 9.30895 26.0416V26.0447ZM6.98705 24.7614C7.68455 25.3984 8.47815 25.7308 9.30585 25.734H9.30895C10.1335 25.734 10.9302 25.3984 11.6277 24.7614H6.98705Z" fill="#07064E"/>
<path d="M8.46885 27.331C8.38205 27.331 8.31385 27.2627 8.31385 27.1757C8.31385 27.0887 8.38205 27.0203 8.46885 27.0203L10.146 27.0141C10.2328 27.0141 10.301 27.0825 10.301 27.1695C10.301 27.2565 10.2328 27.3248 10.146 27.3248L8.46885 27.331Z" fill="#07064E"/>
<path d="M9.09816 22.0489C9.06716 22.0489 9.03926 22.0396 9.01136 22.0209L8.76336 21.8531C8.32316 21.5549 8.18986 20.98 8.44716 20.5171L8.95246 19.6129L8.97726 17.8014C8.97726 17.7175 9.04856 17.6492 9.13226 17.6492C9.21906 17.6492 9.28726 17.7206 9.28416 17.8076L9.25626 19.6564C9.25626 19.6813 9.25006 19.7092 9.23766 19.731L8.71376 20.6693C8.53396 20.9925 8.62696 21.3902 8.93386 21.5984L9.18186 21.7661C9.25316 21.8159 9.27176 21.9122 9.22216 21.9805C9.19116 22.024 9.14466 22.0489 9.09506 22.0489H9.09816Z" fill="#07064E"/>
<path d="M7.79923 16.1515H3.64523C3.55843 16.1515 3.49023 16.0832 3.49023 15.9962C3.49023 15.9092 3.55843 15.8408 3.64523 15.8408H7.79923C7.88603 15.8408 7.95423 15.9092 7.95423 15.9962C7.95423 16.0832 7.88603 16.1515 7.79923 16.1515Z" fill="#07064E"/>
<path d="M14.8301 16.1515H10.6761C10.5893 16.1515 10.5211 16.0832 10.5211 15.9962C10.5211 15.9092 10.5893 15.8408 10.6761 15.8408H14.8301C14.9169 15.8408 14.9851 15.9092 14.9851 15.9962C14.9851 16.0832 14.9169 16.1515 14.8301 16.1515Z" fill="#07064E"/>
<path d="M12.6508 19.2495C11.9936 19.2495 11.4573 18.6746 11.4573 17.9693C11.4573 17.8823 11.5255 17.814 11.6123 17.814C11.6991 17.814 11.7673 17.8823 11.7673 17.9693C11.7673 18.5038 12.1641 18.9388 12.6508 18.9388C13.1375 18.9388 13.5343 18.5038 13.5343 17.9693C13.5343 17.8823 13.6025 17.814 13.6893 17.814C13.7761 17.814 13.8443 17.8823 13.8443 17.9693C13.8443 18.6746 13.308 19.2495 12.6508 19.2495Z" fill="#07064E"/>
<path d="M5.85561 19.2495C5.19841 19.2495 4.66211 18.6746 4.66211 17.9693C4.66211 17.8823 4.73031 17.814 4.81711 17.814C4.90391 17.814 4.97211 17.8823 4.97211 17.9693C4.97211 18.5038 5.36891 18.9388 5.85561 18.9388C6.34231 18.9388 6.73911 18.5038 6.73911 17.9693C6.73911 17.8823 6.80731 17.814 6.89411 17.814C6.98091 17.814 7.04911 17.8823 7.04911 17.9693C7.04911 18.6746 6.51281 19.2495 5.85561 19.2495Z" fill="#07064E"/>
<path d="M1.58635 11.3697C0.733852 13.3272 1.48715 9.44638 5.69695 8.33402C8.60165 7.46091 13.3199 7.94252 16.02 10.6768C18.3729 9.17606 13.4377 7.07563 12.9448 6.86434C7.88245 4.68623 3.42155 7.15952 1.58635 11.3697Z" fill="white"/>
<path d="M23.9872 35.4747L16.4697 34.1417L15.549 33.9801C14.4516 33.1288 13.3015 30.5219 14.1075 27.247C14.3121 27.0232 14.4888 26.8213 14.6283 26.6659C14.6965 26.5882 14.7523 26.5261 14.7957 26.4764C16.0326 25.103 16.0636 24.3387 16.1256 22.1108C16.2155 22.1637 16.3023 22.1854 16.3767 22.1854C16.4294 22.1854 16.4759 22.1761 16.5162 22.1637C17.2416 21.9337 17.6415 19.8426 17.781 18.954C17.8306 18.6402 17.8523 18.3543 17.8523 18.0933C17.8585 18.0809 17.8647 18.0653 17.8647 18.0498C18.1065 15.8282 17.8647 12.5595 16.4201 10.5647C16.6805 10.3223 16.8169 10.0582 16.8169 9.76616C16.8169 8.48913 14.1664 7.2152 13.0132 6.72116C9.83261 5.35402 6.59311 5.72066 4.12241 7.73409C1.29211 10.0365 -0.0160907 14.1068 0.786809 18.0995C0.786809 18.1088 0.793009 18.1151 0.796109 18.1244C0.796109 18.3761 0.817808 18.6526 0.867408 18.954C1.00691 19.8426 1.40681 21.9337 2.13221 22.1637C2.17251 22.1761 2.21901 22.1854 2.27171 22.1854C2.33991 22.1854 2.42051 22.1668 2.50111 22.1233C2.56001 24.3418 2.59411 25.1061 3.83101 26.4764C3.87441 26.5261 3.93331 26.5913 3.99841 26.6659C4.12861 26.8151 4.29601 27.0015 4.48511 27.2128C5.30351 30.5126 4.13171 33.1412 3.02501 33.977L-5.44109 35.4778C-7.76299 35.9811 -9.44629 38.0753 -9.44629 40.4616L-8.92239 55.4816C-8.92239 55.5655 -8.85109 55.6307 -8.76739 55.6307H9.18781C9.21571 55.6711 9.25911 55.6991 9.31181 55.6991C9.36451 55.6991 9.40791 55.6711 9.43581 55.6307H27.3228C27.4065 55.6307 27.4747 55.5655 27.4778 55.4816L28.0017 40.4554C28.0017 38.0753 26.3184 35.9811 23.9903 35.4778L23.9872 35.4747ZM17.626 16.9872C17.595 16.9312 17.564 16.8784 17.5299 16.8318C17.378 16.6267 17.1703 16.5025 16.9316 16.4714C16.6464 16.431 16.3984 16.4962 16.2155 16.6578C16.1628 16.7044 16.1194 16.7635 16.076 16.8256C16.0574 16.8194 16.0419 16.8132 16.0202 16.8132H16.014C15.6978 14.8961 15.0158 13.1157 14.0455 11.7143C14.5291 11.5217 15.0375 11.3104 15.58 11.0743C15.8094 10.9748 16.0016 10.8661 16.169 10.7542C17.1765 12.1556 17.7159 14.5077 17.6229 16.9841L17.626 16.9872ZM2.46081 21.7628C2.32441 21.9027 2.24691 21.8778 2.21591 21.8685C1.85011 21.7504 1.41611 20.5355 1.16501 18.9074C1.02861 18.0374 1.09681 17.3662 1.35411 17.0182C1.45641 16.8815 1.58661 16.8007 1.74471 16.779C1.94001 16.751 2.09811 16.7914 2.21591 16.894C2.38021 17.04 2.47011 17.329 2.47631 17.7236C2.39881 18.4848 2.38021 19.2585 2.41741 20.0322C2.45151 20.6878 2.47011 21.2471 2.48251 21.7473C2.47631 21.7535 2.46701 21.7566 2.46081 21.7628ZM2.57241 16.8163C2.57241 16.8163 2.56001 16.8163 2.55691 16.8194C2.51661 16.7603 2.47321 16.7044 2.42051 16.6578C2.23761 16.4962 1.98961 16.431 1.70441 16.4714C1.46571 16.5025 1.25801 16.6298 1.10611 16.8318C1.04101 16.9188 0.988309 17.0245 0.941809 17.1394C0.510909 13.5569 1.77881 10.0334 4.30841 7.97334C6.68611 6.03759 9.81401 5.68338 12.8954 7.01324C14.6345 7.76206 16.4945 8.87752 16.4976 9.76927C16.4976 10.1483 16.1504 10.4932 15.4591 10.7946C13.906 11.472 12.6102 11.9598 11.5035 12.2923C7.28751 13.5569 3.32261 11.6957 3.28231 11.6771C3.20481 11.6398 3.11181 11.6739 3.07461 11.7516C3.03741 11.8293 3.07151 11.9225 3.14901 11.9598C3.18931 11.9785 7.25961 13.8893 11.5934 12.5906C12.2444 12.3948 12.9636 12.1431 13.7541 11.8355C14.712 13.1933 15.3847 14.9396 15.7009 16.8163H2.91031C3.05291 15.9618 3.26681 15.1322 3.55821 14.3461C3.58921 14.2653 3.54581 14.1752 3.46831 14.1472C3.38771 14.1162 3.29781 14.1597 3.26991 14.2373C2.96611 15.0576 2.74601 15.9245 2.60031 16.8163H2.57551H2.57241ZM14.7306 17.127V17.938C14.7306 19.0876 13.7975 20.0228 12.6505 20.0228C11.5035 20.0228 10.5704 19.0876 10.5704 17.938V17.127H14.7337H14.7306ZM7.97261 17.127V17.938C7.97261 19.0876 7.03951 20.0228 5.89251 20.0228C4.74551 20.0228 3.81241 19.0876 3.81241 17.938V17.127H7.97571H7.97261ZM4.05421 26.2682C2.88241 24.9694 2.86381 24.2921 2.80491 22.0487C2.78941 21.4708 2.77081 20.8121 2.73051 20.0166C2.69331 19.2833 2.70881 18.5532 2.77701 17.8323C2.78631 17.8137 2.78941 17.7919 2.78941 17.7702C2.78941 17.7577 2.78941 17.7484 2.78941 17.736C2.81111 17.5309 2.84211 17.329 2.87001 17.127H3.50241V17.938C3.50241 19.2585 4.57501 20.3336 5.89251 20.3336C7.21001 20.3336 8.28261 19.2585 8.28261 17.938V17.127H10.2573V17.938C10.2573 19.2585 11.3299 20.3336 12.6474 20.3336C13.9649 20.3336 15.0375 19.2585 15.0375 17.938V17.127H15.7474C15.8342 17.7142 15.89 18.3139 15.9024 18.9167C15.9024 19.0006 15.9737 19.069 16.0574 19.069H16.0605C16.1473 19.069 16.2124 18.9975 16.2124 18.9105C16.2031 18.5407 16.1814 18.1741 16.1473 17.8106C16.1504 17.7981 16.1566 17.7857 16.1566 17.7702C16.1566 17.3476 16.2465 17.0431 16.4201 16.894C16.5379 16.7914 16.696 16.7541 16.8913 16.779C17.0494 16.8007 17.1796 16.8815 17.2819 17.0182C17.5392 17.3662 17.6074 18.0343 17.471 18.9074C17.2168 20.5355 16.7859 21.7535 16.4201 21.8685C16.3891 21.8778 16.3116 21.9027 16.1752 21.7628C16.1628 21.7504 16.1504 21.7411 16.1349 21.7349L16.1442 21.362C16.1442 21.275 16.0791 21.2036 15.9954 21.2005C15.9117 21.1942 15.8373 21.2657 15.8342 21.3496L15.8156 22.0487C15.7536 24.2889 15.735 24.9663 14.5663 26.2682C14.5198 26.3179 14.464 26.3832 14.3958 26.4608C13.6673 27.2905 11.4477 29.8197 9.58771 29.944H9.04831C7.17591 29.8166 4.95631 27.2905 4.22781 26.4608C4.15961 26.3832 4.10381 26.3179 4.05731 26.2682H4.05421ZM9.15371 55.32H-8.62169L-9.14249 40.4554C-9.14249 38.2214 -7.56149 36.2546 -5.38839 35.7823L2.99401 34.2971C3.01881 34.3157 3.04671 34.3219 3.07461 34.3219L3.28541 34.5083C4.98111 36.0029 7.06431 36.761 9.15061 36.7983V55.32H9.15371ZM3.49311 34.2722L3.32881 34.1293C4.57191 33.0728 5.42751 30.4846 4.89121 27.654C5.95451 28.757 7.54791 30.1583 9.03281 30.2578H9.59391C11.0602 30.1583 12.6319 28.785 13.6952 27.6851C13.162 30.5188 14.0207 33.1008 15.2638 34.1541C11.9313 37.2178 6.90311 37.283 3.49001 34.2753L3.49311 34.2722ZM27.1678 55.32H9.46371V36.7983C11.6585 36.761 13.8378 35.9252 15.5614 34.2971L16.417 34.4493L23.9283 35.7792C26.1076 36.2546 27.6886 38.2183 27.6886 40.4492L27.1678 55.32Z" fill="#07064E"/>
</g>
</g>
<defs>
<clipPath id="clip0_3471_19589">
<rect width="34" height="34" rx="17" fill="white"/>
</clipPath>
<clipPath id="clip1_3471_19589">
<rect width="124" height="87" fill="white" transform="translate(-52 -4.02637)"/>
</clipPath>
</defs>
</svg>
