<svg width="200" height="140" viewBox="0 0 200 140" fill="none" xmlns="http://www.w3.org/2000/svg">
<g id="Size=Default" clip-path="url(#clip0_527_238)">
<g id="illu_bg_vote-yourself">
<g id="background">
<path d="M194.435 123.935C193.12 121.385 189.385 120.695 186.09 122.395C182.795 124.095 181.195 127.54 182.51 130.085C183.825 132.635 187.56 133.325 190.855 131.625C194.15 129.925 195.75 126.48 194.435 123.935Z" fill="#2BF5BA"></path>
<path d="M193.01 114.675C193.7 114.32 193.97 113.47 193.615 112.78C193.26 112.09 192.41 111.82 191.72 112.175C191.03 112.53 190.76 113.38 191.115 114.07C191.47 114.76 192.32 115.03 193.01 114.675Z" fill="#2BF5BA"></path>
<path d="M21.4299 25.0035C27.6019 22.6195 31.2219 17.1056 29.5154 12.6878C27.809 8.27012 21.4223 6.62149 15.2504 9.00551C9.07845 11.3895 5.45845 16.9035 7.16488 21.3212C8.87131 25.7389 15.258 27.3875 21.4299 25.0035Z" fill="#2BF5BA"></path>
<path d="M145.225 16.3101C108.15 -1.30991 57.7598 5.67009 44.9898 13.5051C14.3598 32.2901 31.0998 47.6701 17.7948 65.2451C-2.94519 92.6451 5.39481 148.365 90.6748 131.61C122.015 125.455 167.335 145.915 183.315 111.675C200.665 74.5001 185.14 35.2651 145.23 16.3051L145.225 16.3101Z" fill="#2BF5BA"></path>
</g>
<g id="illu_bg_vote-yourself_2">
<g id="stroke">
<path id="Vector" d="M134.04 116.41H39.7354V118.285H134.04V116.41Z" fill="#2AEDB4"></path>
<path id="Vector_2" d="M62.2953 76.8146L56.8603 77.7846V116.375H53.3653V78.4096L54.7353 78.1646L48.6153 79.2596C42.6003 79.4496 39.0753 84.0346 39.3303 90.0496L40.2503 116.425L95.3653 116.46V78.5646L93.6603 78.2496V116.375H90.1653V77.6046L85.4953 76.7446C85.4653 76.7996 85.4353 76.8496 85.4103 76.9046L87.8153 77.4446C85.8453 82.4346 80.0553 89.7196 73.6803 89.9696H73.4453C67.0753 89.7196 61.3003 82.4896 59.3353 77.4996L62.0553 76.8946" fill="white"></path>
<path id="Vector_3" d="M80.8102 64.5651C80.2452 65.1001 79.6852 65.5751 79.1402 65.9951C82.9452 62.4801 85.5702 55.6351 85.5702 47.5851C85.5702 41.6651 85.3252 38.9901 83.1002 35.1351C80.8002 31.6201 74.6402 34.6301 71.3602 34.5951C68.4752 34.3351 66.6452 32.5301 65.0502 32.2051C65.0502 32.2051 60.7802 42.3801 61.1352 47.2501C61.9552 58.4501 65.7452 66.8051 71.4302 68.2901C69.7552 67.8851 68.1752 66.8251 66.6802 65.1301C66.7802 73.6401 65.1452 75.0251 62.0552 76.8951C69.3852 90.7551 77.8452 90.8151 85.1152 76.8401C81.0252 74.6001 80.0702 72.0851 80.8102 64.5701V64.5651ZM71.6202 68.3351C71.5652 68.3251 71.5152 68.3151 71.4602 68.3001C71.5152 68.3151 71.5652 68.3201 71.6202 68.3351Z" fill="white"></path>
<path id="Vector_4" d="M73.3201 68.21C70.3801 68.21 67.8451 66.95 66.6401 65.125C66.6151 65.395 66.6001 65.665 66.6001 65.94C66.6001 70.285 69.7251 73.805 73.5851 73.805C77.4451 73.805 80.5701 70.285 80.5701 65.94C80.5701 65.395 80.5201 64.865 80.4301 64.355C79.4951 66.59 76.6701 68.21 73.3251 68.21H73.3201Z" fill="#EBEBEB"></path>
<path id="Vector_5" d="M85.4352 45.9399C85.2702 45.7549 86.4252 43.66 86.1802 43.2299C86.0002 42.91 85.4752 41.94 85.2952 41.63C85.0652 41.235 85.9352 60.685 73.2202 68.495C73.3152 68.49 73.4152 68.49 73.5102 68.48C86.6452 67.135 85.4302 45.9399 85.4302 45.9399H85.4352Z" fill="#EBEBEB"></path>
<path id="Vector_6" d="M85.4851 46.4547C85.4851 44.6697 86.3451 44.1997 87.2251 44.3147C88.4101 44.4747 89.2101 45.2697 88.8151 47.8247C88.3901 50.5297 87.7701 52.2497 85.1401 54.0697" fill="white"></path>
<path id="Vector_7" d="M61.18 46.4547C61.18 44.6697 60.32 44.1997 59.44 44.3147C58.255 44.4747 57.455 45.2697 57.85 47.8247C58.275 50.5297 58.895 52.2497 61.525 54.0697" fill="white"></path>
<path id="Vector_8" d="M73.3299 68.725C66.6099 68.725 61.2699 59.895 60.8999 48.185C60.6699 40.9 64.7799 32.19 64.8199 32.1C64.8649 32 64.9699 31.945 65.0799 31.96C67.1899 32.24 68.9749 32.365 72.6849 31.455C72.8199 31.425 72.9549 31.505 72.9849 31.64C73.0199 31.775 72.9349 31.91 72.7999 31.94C69.1199 32.845 67.2199 32.74 65.1899 32.48C64.6299 33.71 61.1849 41.55 61.3949 48.17C61.7549 59.605 66.8799 68.23 73.3249 68.23C79.7699 68.23 85.2549 59.235 85.2549 48.18L85.2349 46.465C85.2349 45.515 85.4649 44.83 85.9249 44.43C86.2699 44.125 86.7349 44.005 87.2599 44.075C87.9049 44.16 88.3749 44.415 88.6949 44.84C89.1649 45.47 89.2849 46.46 89.0649 47.87C88.7349 49.99 88.2799 51.49 86.9299 52.905C86.8349 53.005 86.6749 53.01 86.5749 52.915C86.4749 52.82 86.4699 52.66 86.5649 52.56C87.8199 51.24 88.2499 49.815 88.5649 47.79C88.7599 46.535 88.6699 45.645 88.2899 45.135C88.0549 44.82 87.6949 44.635 87.1899 44.565C86.9249 44.53 86.5499 44.54 86.2499 44.8C85.9099 45.095 85.7299 45.67 85.7299 46.455L85.7499 48.17C85.7499 59.505 80.1749 68.725 73.3199 68.725H73.3299Z" fill="#07064E"></path>
<path id="Vector_9" d="M73.3451 61.4197C72.0051 61.4197 70.7301 60.8147 69.6551 59.6747C69.5601 59.5747 69.5651 59.4147 69.6651 59.3197C69.7651 59.2247 69.9251 59.2297 70.0201 59.3297C70.9951 60.3647 72.1451 60.9147 73.3451 60.9147C74.5451 60.9147 75.6952 60.3647 76.6752 59.3297C76.7702 59.2297 76.9301 59.2247 77.0301 59.3197C77.1301 59.4147 77.1351 59.5747 77.0401 59.6747C75.9651 60.8147 74.6851 61.4197 73.3451 61.4197Z" fill="#07064E"></path>
<path id="Vector_10" d="M71.7852 64.1648C71.6452 64.1648 71.5352 64.0548 71.5352 63.9148C71.5352 63.7748 71.6452 63.6648 71.7852 63.6648L74.9052 63.6548C75.0452 63.6548 75.1552 63.7648 75.1552 63.9048C75.1552 64.0448 75.0452 64.1548 74.9052 64.1548L71.7852 64.1648Z" fill="#07064E"></path>
<path id="Vector_11" d="M61.525 54.3197C61.475 54.3197 61.425 54.3047 61.385 54.2747C58.755 52.4547 58.045 50.6897 57.605 47.8647C57.385 46.4547 57.505 45.4647 57.975 44.8347C58.295 44.4047 58.765 44.1547 59.41 44.0697C59.935 43.9997 60.395 44.1197 60.745 44.4247C61.205 44.8247 61.435 45.5097 61.435 46.4547C61.435 46.5947 61.325 46.7047 61.185 46.7047C61.045 46.7047 60.935 46.5947 60.935 46.4547C60.935 45.6697 60.755 45.0947 60.415 44.7997C60.12 44.5397 59.74 44.5297 59.475 44.5647C58.97 44.6347 58.61 44.8197 58.375 45.1347C57.995 45.6447 57.905 46.5347 58.1 47.7897C58.53 50.5347 59.17 52.1397 61.67 53.8697C61.785 53.9497 61.81 54.1047 61.735 54.2197C61.685 54.2897 61.61 54.3297 61.53 54.3297L61.525 54.3197Z" fill="#07064E"></path>
<path id="Vector_12" d="M62.725 43.6648C62.645 43.6648 62.57 43.6298 62.52 43.5598C62.44 43.4498 62.465 43.2898 62.575 43.2098C65.245 41.2848 68.82 41.0198 71.475 42.5448C71.595 42.6148 71.635 42.7648 71.565 42.8848C71.495 43.0048 71.345 43.0448 71.225 42.9748C68.74 41.5398 65.38 41.7948 62.87 43.6098C62.825 43.6398 62.775 43.6548 62.725 43.6548V43.6648Z" fill="#07064E"></path>
<path id="Vector_13" d="M84.4252 43.6648C84.3752 43.6648 84.3252 43.6498 84.2802 43.6198C81.7702 41.8098 78.4102 41.5548 75.9252 42.9848C75.8052 43.0548 75.6552 43.0098 75.5852 42.8948C75.5152 42.7748 75.5552 42.6248 75.6752 42.5548C78.3302 41.0248 81.9052 41.2898 84.5752 43.2198C84.6852 43.2998 84.7102 43.4548 84.6302 43.5698C84.5802 43.6348 84.5052 43.6748 84.4252 43.6748V43.6648Z" fill="#07064E"></path>
<path id="Vector_14" d="M79.1702 46.0947C80.3752 46.0947 81.3502 47.1447 81.3502 48.4297C81.3502 48.5697 81.2402 48.6797 81.1002 48.6797C80.9602 48.6797 80.8502 48.5697 80.8502 48.4297C80.8502 47.4147 80.0952 46.5947 79.1702 46.5947C78.2452 46.5947 77.4902 47.4197 77.4902 48.4297C77.4902 48.5697 77.3802 48.6797 77.2402 48.6797C77.1002 48.6797 76.9902 48.5697 76.9902 48.4297C76.9902 47.1397 77.9702 46.0947 79.1702 46.0947Z" fill="#07064E"></path>
<path id="Vector_15" d="M67.7303 46.0947C68.9353 46.0947 69.9103 47.1447 69.9103 48.4297C69.9103 48.5697 69.8003 48.6797 69.6603 48.6797C69.5203 48.6797 69.4103 48.5697 69.4103 48.4297C69.4103 47.4147 68.6553 46.5947 67.7303 46.5947C66.8053 46.5947 66.0503 47.4197 66.0503 48.4297C66.0503 48.5697 65.9403 48.6797 65.8003 48.6797C65.6603 48.6797 65.5503 48.5697 65.5503 48.4297C65.5503 47.1397 66.5303 46.0947 67.7303 46.0947Z" fill="#07064E"></path>
<path id="Vector_16" d="M73.9052 53.4948C73.6502 53.4948 73.4002 53.4248 73.1702 53.2848C72.7302 53.0148 72.4752 52.5448 72.4952 52.0298L72.7302 45.3298C72.7302 45.1898 72.8652 45.0898 72.9902 45.0898C73.1302 45.0898 73.2352 45.2098 73.2302 45.3498L72.9952 52.0498C72.9852 52.3848 73.1452 52.6898 73.4352 52.8598C73.7202 53.0348 74.0652 53.0398 74.3552 52.8748C74.4752 52.8048 74.6302 52.8498 74.6952 52.9698C74.7652 53.0898 74.7202 53.2448 74.6002 53.3098C74.3802 53.4348 74.1452 53.4948 73.9052 53.4948Z" fill="#07064E"></path>
<path id="Vector_17" d="M85.8953 30.915C83.9153 26.67 80.1754 23.9 74.1854 23.56C69.3304 23.29 65.5404 24.9 62.9604 27.875C60.1054 28.555 58.4454 31.705 59.0654 37.665C59.0654 37.665 59.0804 37.75 59.1204 37.88C58.9354 39.875 58.9704 42.02 59.2454 44.29C59.2454 44.29 60.8254 44.27 61.1454 45.83C61.2854 43.64 61.8154 41.255 62.4354 39.1C62.7404 39.015 68.2003 35.75 68.2003 35.75C68.2003 35.75 78.7204 39.495 84.5054 38.84C85.1653 42.105 85.4954 46.45 85.4954 46.45L85.6954 45.21C85.8854 44.655 86.4804 44.505 87.0554 44.38L87.4354 44.295C87.6453 42.375 87.7154 40.52 87.6404 38.76C88.1004 38.725 88.5604 38.685 89.0154 38.625C90.8754 38.385 92.6754 36.39 92.6754 36.39C89.5604 36.065 88.0354 33.555 85.9004 30.91L85.8953 30.915Z" fill="#EDEDED"></path>
<path id="Vector_18" d="M85.5254 30.4649C82.7454 24.1299 75.3404 23.6149 74.1854 23.5649C68.0154 23.2849 65.7404 25.6199 62.9604 27.8799C62.3254 28.3999 61.7004 28.3799 61.1404 28.7899C60.5354 29.2299 60.0054 30.1049 59.6354 30.9699C58.8354 32.8349 58.9954 35.0899 59.0604 37.6699C59.1154 39.7499 58.9754 42.0899 59.2404 44.2949C59.2404 44.2949 59.2554 43.9999 59.7604 44.2899C59.8254 38.6899 59.7404 30.7399 63.7254 28.9599C64.2904 28.7049 63.8954 28.4349 65.0204 27.4649C67.7354 25.1299 71.5104 25.2949 74.1704 25.2699C70.3804 25.9199 69.2454 27.3599 69.2454 27.3599C84.4154 25.2549 81.6154 37.5399 89.8854 38.2399C92.2754 37.5799 92.6704 36.3849 92.6704 36.3849C89.3754 36.0449 87.8654 33.2599 85.5254 30.4549V30.4649Z" fill="white"></path>
<path id="Vector_19" d="M59.24 44.5501C59.115 44.5501 59.005 44.4551 58.99 44.3301C58.71 42.0051 58.655 39.7951 58.825 37.7701L58.815 37.7201C58.235 32.1301 59.595 28.5901 62.645 27.7151C65.225 24.7901 68.905 23.3101 73.585 23.3101C79.525 23.3101 83.85 25.8951 86.105 30.7801C86.385 31.1301 86.655 31.4751 86.925 31.8151C88.63 34.0001 90.105 35.8801 92.7 36.1501C92.79 36.1601 92.865 36.2151 92.905 36.3001C92.94 36.3851 92.93 36.4801 92.875 36.5501C92.815 36.6301 91.34 38.5501 89.05 38.8801C88.695 38.9301 88.32 38.9751 87.89 39.0151C87.955 40.7051 87.89 42.4901 87.685 44.3301C87.67 44.4651 87.545 44.5651 87.41 44.5501C87.275 44.5351 87.175 44.4101 87.19 44.2751C87.4 42.3751 87.46 40.5351 87.38 38.8001C87.375 38.6651 87.475 38.5501 87.61 38.5401C88.135 38.4951 88.575 38.4451 88.98 38.3851C90.51 38.1651 91.67 37.1251 92.185 36.5801C89.67 36.1301 88.21 34.2651 86.535 32.1201C86.265 31.7751 85.99 31.4201 85.7 31.0651C85.685 31.0501 85.675 31.0301 85.665 31.0101C83.475 26.2251 79.41 23.8001 73.585 23.8001C69.03 23.8001 65.46 25.2451 62.975 28.0901C62.945 28.1251 62.9 28.1551 62.85 28.1651C60.015 28.9301 58.755 32.2951 59.31 37.6401L59.32 37.6901C59.325 37.7151 59.33 37.7401 59.325 37.7701C59.155 39.7701 59.21 41.9551 59.485 44.2651C59.5 44.4001 59.405 44.5251 59.265 44.5451C59.255 44.5451 59.245 44.5451 59.235 44.5451L59.24 44.5501Z" fill="#07064E"></path>
<path id="Vector_20" d="M85.4902 46.705H85.4802C85.3552 46.7 85.2502 46.6 85.2402 46.475C85.2402 46.435 84.9202 42.305 84.3002 39.12C78.7452 39.635 69.4102 36.45 68.2252 36.035C66.9452 36.8 63.4352 38.89 62.6402 39.285C61.9302 41.755 61.5102 43.965 61.3902 45.855C61.3802 45.98 61.2852 46.08 61.1602 46.09C61.0402 46.105 60.9252 46.015 60.9002 45.89C60.6302 44.555 59.3002 44.545 59.2502 44.55C59.1252 44.55 59.0152 44.455 59.0002 44.33C58.7302 42.095 58.6902 39.935 58.8702 37.915C58.8352 37.795 58.8202 37.715 58.8202 37.715C58.2302 32.03 59.6502 28.465 62.8252 27.66C65.5502 24.555 69.4852 23.05 74.2002 23.315C79.9302 23.635 83.9352 26.15 86.1102 30.785C86.3902 31.13 86.6602 31.475 86.9202 31.81C88.6252 33.995 90.1002 35.88 92.6952 36.145C92.7902 36.155 92.8702 36.215 92.9052 36.305C92.9402 36.395 92.9202 36.495 92.8552 36.56C92.7802 36.645 90.9702 38.63 89.0402 38.875C88.6902 38.92 88.3202 38.96 87.8902 38.995C87.9502 40.68 87.8802 42.47 87.6752 44.325C87.6652 44.43 87.5852 44.52 87.4802 44.54L87.1002 44.625C86.5202 44.755 86.0652 44.885 85.9252 45.295L85.7352 46.495C85.7152 46.615 85.6102 46.705 85.4902 46.705ZM59.4652 44.06C59.9202 44.11 60.5502 44.325 60.9752 44.87C61.1652 43.14 61.5702 41.18 62.1902 39.035C62.2152 38.95 62.2802 38.885 62.3652 38.865C62.6402 38.765 66.0102 36.77 68.0702 35.54C68.1352 35.5 68.2102 35.495 68.2802 35.52C68.3852 35.56 78.8152 39.24 84.4752 38.595C84.6052 38.585 84.7202 38.665 84.7502 38.795C85.1602 40.825 85.4452 43.285 85.6002 44.86C85.9302 44.375 86.5352 44.24 86.9952 44.14L87.2002 44.095C87.3952 42.24 87.4552 40.45 87.3802 38.78C87.3752 38.645 87.4752 38.53 87.6102 38.52C88.1352 38.48 88.5702 38.435 88.9752 38.385C90.2602 38.22 91.5452 37.14 92.1402 36.575C89.6452 36.115 88.1902 34.255 86.5252 32.12C86.2552 31.775 85.9852 31.43 85.7002 31.075C85.6852 31.06 85.6752 31.04 85.6702 31.025C83.5802 26.55 79.7152 24.125 74.1702 23.815C69.5852 23.565 65.7702 25.02 63.1502 28.045C63.1152 28.085 63.0702 28.11 63.0202 28.125C60.0652 28.83 58.7502 32.21 59.3152 37.65C59.3152 37.65 59.3302 37.72 59.3602 37.815C59.3702 37.845 59.3752 37.88 59.3702 37.915C59.1902 39.85 59.2252 41.92 59.4702 44.065L59.4652 44.06Z" fill="#07064E"></path>
<path id="Vector_21" d="M133.61 116.23H95.3604V62.2798H125.035L133.61 70.8548V116.23Z" fill="white"></path>
<path id="Vector_22" d="M125.035 108.17C119.62 113.585 112.49 110.375 99.3553 114.65C95.9553 116.065 95.4253 116.23 95.4253 116.23H133.675V71.71C130.21 90.4 132.485 100.465 125.04 108.175L125.035 108.17Z" fill="#EDEDED"></path>
<path id="Vector_23" d="M133.61 72.2098H127.63C126.195 72.2098 125.035 71.0498 125.035 69.6148V63.6348L133.61 70.8598V72.2148V72.2098Z" fill="#EDEDED"></path>
<path id="Vector_24" d="M133.925 70.8548H127.63C126.195 70.8548 125.035 69.6948 125.035 68.2598V62.2798L133.925 70.8548Z" fill="white"></path>
<path id="Vector_25" d="M133.61 116.66H95.3602C95.1202 116.66 94.9302 116.465 94.9302 116.23V62.2801C94.9302 62.0401 95.1252 61.8501 95.3602 61.8501H125.07L125.12 61.8651C125.22 61.8901 125.285 61.9251 125.34 61.9801L133.915 70.5551C133.965 70.6051 134.005 70.6751 134.025 70.7501L134.04 70.8601V116.23C134.04 116.47 133.845 116.66 133.61 116.66ZM95.4752 116.115H133.5V70.9701H127.635C126.14 70.9701 124.925 69.7551 124.925 68.2601V62.3901H95.4802V116.115H95.4752ZM125.465 63.3251V68.2651C125.465 69.4601 126.435 70.4301 127.63 70.4301H132.57L125.47 63.3301L125.465 63.3251Z" fill="#07064E"></path>
<path id="Vector_26" d="M107.86 78.6297H103.21C102.71 78.6297 102.3 78.2197 102.3 77.7197V73.0697C102.3 72.5697 102.705 72.1597 103.21 72.1597H107.86C108.36 72.1597 108.77 72.5647 108.77 73.0697V77.7197C108.77 78.2197 108.365 78.6297 107.86 78.6297ZM103.215 72.7097C103.015 72.7097 102.855 72.8747 102.855 73.0697V77.7197C102.855 77.9197 103.02 78.0847 103.215 78.0847H107.865C108.065 78.0847 108.23 77.9197 108.23 77.7197V73.0697C108.23 72.8697 108.065 72.7097 107.865 72.7097H103.215Z" fill="#07064E"></path>
<path id="Vector_27" d="M107.865 92.8097H103.21C102.71 92.8097 102.305 92.4047 102.305 91.9047V87.2497C102.305 86.7497 102.71 86.3447 103.21 86.3447H107.865C108.365 86.3447 108.77 86.7497 108.77 87.2497V91.9047C108.77 92.4047 108.365 92.8097 107.865 92.8097ZM103.21 86.8897C103.01 86.8897 102.85 87.0497 102.85 87.2497V91.9047C102.85 92.1047 103.01 92.2647 103.21 92.2647H107.865C108.065 92.2647 108.225 92.1047 108.225 91.9047V87.2497C108.225 87.0497 108.065 86.8897 107.865 86.8897H103.21Z" fill="#07064E"></path>
<path id="Vector_28" d="M107.725 106.99H103.35C102.775 106.99 102.305 106.52 102.305 105.945V101.57C102.305 100.995 102.775 100.525 103.35 100.525H107.725C108.3 100.525 108.77 100.995 108.77 101.57V105.945C108.77 106.52 108.3 106.99 107.725 106.99ZM103.35 101.07C103.075 101.07 102.85 101.295 102.85 101.57V105.945C102.85 106.22 103.075 106.445 103.35 106.445H107.725C108 106.445 108.225 106.22 108.225 105.945V101.57C108.225 101.295 108 101.07 107.725 101.07H103.35Z" fill="#07064E"></path>
<path id="Vector_29" d="M126.47 75.6696H112.24C112.09 75.6696 111.965 75.5496 111.965 75.3946C111.965 75.2396 112.085 75.1196 112.24 75.1196H126.47C126.62 75.1196 126.745 75.2396 126.745 75.3946C126.745 75.5496 126.625 75.6696 126.47 75.6696Z" fill="#07064E"></path>
<path id="Vector_30" d="M126.47 89.8498H112.24C112.09 89.8498 111.965 89.7298 111.965 89.5748C111.965 89.4198 112.085 89.2998 112.24 89.2998H126.47C126.62 89.2998 126.745 89.4198 126.745 89.5748C126.745 89.7298 126.625 89.8498 126.47 89.8498Z" fill="#07064E"></path>
<path id="Vector_31" d="M126.47 104.03H112.24C112.09 104.03 111.965 103.91 111.965 103.755C111.965 103.6 112.085 103.48 112.24 103.48H126.47C126.62 103.48 126.745 103.6 126.745 103.755C126.745 103.91 126.625 104.03 126.47 104.03Z" fill="#07064E"></path>
<path id="Vector_32" d="M104.335 91.9297C104.195 91.9297 104.06 91.8747 103.955 91.7797L101.4 89.3647C101.18 89.1547 101.17 88.8047 101.38 88.5847C101.59 88.3647 101.94 88.3547 102.16 88.5647L104.3 90.5897L108.63 85.7497C108.835 85.5247 109.18 85.5047 109.41 85.7047C109.635 85.9097 109.655 86.2547 109.455 86.4847L104.75 91.7497C104.65 91.8597 104.51 91.9247 104.36 91.9347C104.35 91.9347 104.345 91.9347 104.335 91.9347V91.9297Z" fill="#2BF5BA"></path>
<path id="Vector_33" d="M95.36 116.52V116.16H50.935L49.785 95.1297C49.78 94.9897 49.655 94.8847 49.52 94.8947C49.38 94.8997 49.275 95.0197 49.285 95.1597L50.435 116.16H40.245L39.28 88.5497C39.28 84.3847 42.235 80.7247 46.29 79.8447L61.86 77.0897C63.615 81.4347 68.59 87.4747 73.52 87.6647H73.615C78.53 87.4697 83.505 81.4347 85.26 77.0897L86.84 77.3697L95.36 78.8747V78.3647L85.315 76.5897C85.315 76.5897 85.305 76.5897 85.305 76.5847C84.01 76.2947 82.435 74.6747 81.645 72.8097C81.185 71.7247 80.485 69.2047 80.965 64.5047C80.98 64.3697 80.88 64.2447 80.74 64.2297C80.605 64.2197 80.48 64.3147 80.465 64.4547C80 69.0247 80.6 71.6247 81.185 73.0047C81.965 74.8447 83.425 76.4197 84.78 76.9397C83.06 81.1547 78.285 86.9747 73.6 87.1597H73.525C68.845 86.9797 64.08 81.1797 62.35 76.9647C63.88 76.4347 65.23 74.6397 65.925 73.0047C66.525 71.5897 67.155 69.3947 66.7 64.9397C66.685 64.8047 66.565 64.7047 66.425 64.7147C66.29 64.7297 66.19 64.8497 66.2 64.9897C66.645 69.3297 66.035 71.4497 65.46 72.8097C64.645 74.7297 63.2 76.2697 61.935 76.5647L46.185 79.3497C41.89 80.2797 38.77 84.1497 38.77 88.5547L39.745 116.415C39.745 116.55 39.86 116.655 39.995 116.655H107.105C107.205 116.655 107.285 116.6 107.33 116.515H95.36V116.52Z" fill="#07064E"></path>
</g>
</g>
</g>
</g>
<defs>
<clipPath id="clip0_527_238">
<rect width="200" height="140" fill="white"></rect>
</clipPath>
</defs>
</svg>