<svg width="297" height="241" viewBox="0 0 297 241" fill="none" xmlns="http://www.w3.org/2000/svg">
<g id="illu_spot_automatic-voting-start-v2" clip-path="url(#clip0_1092_53)">
<g id="illu_spot_automatic-voting-start-v2_2">
<g id="background">
<path d="M59.5442 202.204C62.6762 197.468 62.0111 191.51 58.0588 188.896C54.1064 186.282 48.3634 188.002 45.2314 192.738C42.0995 197.473 42.7645 203.431 46.7169 206.045C50.6693 208.659 56.4123 206.939 59.5442 202.204Z" fill="#2BF5BA"></path>
<path d="M77.9075 202.868C79.0546 201.665 78.6785 199.444 77.0675 197.909C75.4565 196.373 73.2207 196.103 72.0736 197.307C70.9266 198.51 71.3027 200.73 72.9137 202.266C74.5247 203.802 76.7605 204.071 77.9075 202.868Z" fill="#2BF5BA"></path>
<path d="M270.75 0H41.55C31.32 17.86 30.26 46.94 41.79 93C53 137.79 95.31 245.76 217.86 203.71C251.82 192.06 277.81 190.88 296.6 192.98V25.85C296.6 11.57 285.03 0 270.75 0Z" fill="#2BF5BA"></path>
</g>
<g id="illu_spot_automatic-voting-start-v2_3">
<g id="stroke">
<g id="Group">
<path id="Vector" d="M250.26 163.08H112.15C107.45 163.08 103.65 159.27 103.65 154.58V51.52C103.28 52.79 258.49 51.17 258.77 51.52V154.58C258.77 159.28 254.96 163.08 250.27 163.08H250.26Z" fill="#2AEDB4"></path>
<path id="Vector_2" d="M250.26 158.83H112.15C107.45 158.83 103.65 155.02 103.65 150.33V47.27C103.28 48.54 258.49 46.92 258.77 47.27V150.33C258.77 155.03 254.96 158.83 250.27 158.83H250.26Z" fill="white"></path>
<path id="Vector_3" d="M250.26 36.0298H226.65V39.1798C227.87 39.8798 228.69 41.1698 228.69 42.6698C228.69 44.8998 226.88 46.7098 224.65 46.7098C222.42 46.7098 220.61 44.8998 220.61 42.6698C220.61 41.1698 221.44 39.8698 222.65 39.1798V36.0298H133.09V39.1798C134.3 39.8798 135.13 41.1698 135.13 42.6698C135.13 44.8998 133.32 46.7098 131.09 46.7098C128.86 46.7098 127.05 44.8998 127.05 42.6698C127.05 41.1698 127.88 39.8698 129.09 39.1798V36.0298H112.15C107.45 36.0298 103.65 39.8398 103.65 44.5298V51.4698H258.77V44.5298C258.77 39.8298 254.96 36.0298 250.27 36.0298H250.26Z" fill="#07064E"></path>
<path id="Vector_4" d="M224.65 44.14C223.55 44.14 222.65 43.24 222.65 42.14V19C222.65 17.9 223.55 17 224.65 17C225.75 17 226.65 17.9 226.65 19V42.14C226.65 43.24 225.75 44.14 224.65 44.14Z" fill="white"></path>
<path id="Vector_5" d="M131.09 44.14C129.99 44.14 129.09 43.24 129.09 42.14V19C129.09 17.9 129.99 17 131.09 17C132.19 17 133.09 17.9 133.09 19V42.14C133.09 43.24 132.19 44.14 131.09 44.14Z" fill="white"></path>
<g id="Group_2">
<path id="Vector_6" d="M158.89 64.71H145.16C143.597 64.71 142.33 65.977 142.33 67.54V82.65C142.33 84.2129 143.597 85.48 145.16 85.48H158.89C160.453 85.48 161.72 84.2129 161.72 82.65V67.54C161.72 65.977 160.453 64.71 158.89 64.71Z" fill="#2BF5BA"></path>
<path id="Vector_7" d="M184.74 64.71H171.01C169.447 64.71 168.18 65.977 168.18 67.54V82.65C168.18 84.2129 169.447 85.48 171.01 85.48H184.74C186.303 85.48 187.57 84.2129 187.57 82.65V67.54C187.57 65.977 186.303 64.71 184.74 64.71Z" fill="#2BF5BA"></path>
<path id="Vector_8" d="M210.58 64.71H196.85C195.287 64.71 194.02 65.977 194.02 67.54V82.65C194.02 84.2129 195.287 85.48 196.85 85.48H210.58C212.143 85.48 213.41 84.2129 213.41 82.65V67.54C213.41 65.977 212.143 64.71 210.58 64.71Z" fill="#2BF5BA"></path>
<path id="Vector_9" d="M236.43 64.71H222.7C221.137 64.71 219.87 65.977 219.87 67.54V82.65C219.87 84.2129 221.137 85.48 222.7 85.48H236.43C237.993 85.48 239.26 84.2129 239.26 82.65V67.54C239.26 65.977 237.993 64.71 236.43 64.71Z" fill="#2BF5BA"></path>
<path id="Vector_10" d="M133.04 93.6001H119.31C117.747 93.6001 116.48 94.8671 116.48 96.4301V111.54C116.48 113.103 117.747 114.37 119.31 114.37H133.04C134.603 114.37 135.87 113.103 135.87 111.54V96.4301C135.87 94.8671 134.603 93.6001 133.04 93.6001Z" fill="#2BF5BA"></path>
<path id="Vector_11" d="M158.89 96.4399H145.16C143.597 96.4399 142.33 97.707 142.33 99.2699V114.38C142.33 115.943 143.597 117.21 145.16 117.21H158.89C160.453 117.21 161.72 115.943 161.72 114.38V99.2699C161.72 97.707 160.453 96.4399 158.89 96.4399Z" fill="#EDEDED"></path>
<path id="Vector_12" d="M158.89 93.6001H145.16C143.597 93.6001 142.33 94.8671 142.33 96.4301V111.54C142.33 113.103 143.597 114.37 145.16 114.37H158.89C160.453 114.37 161.72 113.103 161.72 111.54V96.4301C161.72 94.8671 160.453 93.6001 158.89 93.6001Z" fill="#07064E"></path>
<path id="Vector_13" d="M184.74 93.6001H171.01C169.447 93.6001 168.18 94.8671 168.18 96.4301V111.54C168.18 113.103 169.447 114.37 171.01 114.37H184.74C186.303 114.37 187.57 113.103 187.57 111.54V96.4301C187.57 94.8671 186.303 93.6001 184.74 93.6001Z" fill="#2BF5BA"></path>
<path id="Vector_14" d="M210.58 93.6001H196.85C195.287 93.6001 194.02 94.8671 194.02 96.4301V111.54C194.02 113.103 195.287 114.37 196.85 114.37H210.58C212.143 114.37 213.41 113.103 213.41 111.54V96.4301C213.41 94.8671 212.143 93.6001 210.58 93.6001Z" fill="#2BF5BA"></path>
<path id="Vector_15" d="M133.04 122.5H119.31C117.747 122.5 116.48 123.767 116.48 125.33V140.44C116.48 142.003 117.747 143.27 119.31 143.27H133.04C134.603 143.27 135.87 142.003 135.87 140.44V125.33C135.87 123.767 134.603 122.5 133.04 122.5Z" fill="#2BF5BA"></path>
<path id="Vector_16" d="M158.89 122.5H145.16C143.597 122.5 142.33 123.767 142.33 125.33V140.44C142.33 142.003 143.597 143.27 145.16 143.27H158.89C160.453 143.27 161.72 142.003 161.72 140.44V125.33C161.72 123.767 160.453 122.5 158.89 122.5Z" fill="#2BF5BA"></path>
<path id="Vector_17" d="M184.74 122.5H171.01C169.447 122.5 168.18 123.767 168.18 125.33V140.44C168.18 142.003 169.447 143.27 171.01 143.27H184.74C186.303 143.27 187.57 142.003 187.57 140.44V125.33C187.57 123.767 186.303 122.5 184.74 122.5Z" fill="#2BF5BA"></path>
<path id="Vector_18" d="M228.15 96.1699L230.43 93.6099H222.71C221.14 93.6099 219.88 94.8799 219.88 96.4399V103.67C222.97 101.6 225.76 99.0699 228.16 96.1699H228.15Z" fill="#2BF5BA"></path>
</g>
</g>
<path id="Vector_19" d="M228.15 96.1699L230.43 93.6099H222.71C221.14 93.6099 219.88 94.8799 219.88 96.4399V103.67C222.97 101.6 225.76 99.0699 228.16 96.1699H228.15Z" fill="#2BF5BA"></path>
<path id="Vector_20" d="M213.71 132.37C209.57 139.43 211.42 148.61 218.2 153.48C224.92 158.3 234.1 157.18 239.49 151.15" fill="#EDEDED"></path>
<path id="Vector_21" d="M283.96 62.2501L283.55 61.9601C281.5 60.4901 278.64 60.9601 277.17 63.0101L267.5 76.4701C267.5 76.4701 267.46 76.5501 267.43 76.5901C268.89 77.2401 270.31 78.0301 271.65 78.9901C272.98 79.9501 274.18 81.0201 275.25 82.1901C275.28 82.1601 275.31 82.1301 275.33 82.1001L285 68.6401C286.47 66.5901 286 63.7301 283.95 62.2601L283.96 62.2501Z" fill="#EDEDED"></path>
<path id="Vector_22" d="M263.85 149.14C262.85 140.96 264.96 132.71 269.3 125.71L277.95 110.54C284.48 99.9999 281.73 86.2099 271.66 78.9799C261.59 71.7499 247.64 73.5599 239.75 83.1099L228.15 96.1599C222.9 102.51 215.76 107.15 207.69 108.82C202.29 109.94 197.29 113 193.82 117.83L193.29 118.57L259.22 165.9L259.75 165.16C263.22 160.33 264.52 154.6 263.85 149.13V149.14Z" fill="white"></path>
<path id="Vector_23" d="M237.65 74.52C237.65 74.52 237.6 74.4801 237.58 74.4601C237.43 74.2901 237.44 74.03 237.61 73.88C242.04 69.92 247.75 67.7901 253.68 67.9001C253.91 67.9001 254.09 68.0901 254.08 68.3201C254.08 68.5501 253.89 68.7301 253.66 68.7201C247.93 68.6201 242.43 70.66 238.15 74.49C238 74.62 237.79 74.63 237.64 74.52H237.65Z" fill="#07064E"></path>
<path id="Vector_24" d="M287.23 109.71C289.49 104.43 289.67 98.5601 287.74 93.1701C287.66 92.9601 287.77 92.7201 287.99 92.6501C288.2 92.5701 288.44 92.6801 288.51 92.9001C290.51 98.4901 290.32 104.57 287.99 110.04C287.9 110.25 287.66 110.35 287.45 110.26C287.42 110.25 287.4 110.23 287.37 110.22C287.22 110.11 287.15 109.91 287.23 109.72V109.71Z" fill="#07064E"></path>
<path id="Vector_25" d="M288.33 123.2C288.17 123.04 288.16 122.78 288.32 122.62C289.26 121.65 290.13 120.61 290.93 119.52C291.06 119.34 291.32 119.3 291.5 119.43C291.68 119.57 291.72 119.83 291.59 120.01C290.77 121.12 289.87 122.19 288.91 123.19C288.77 123.34 288.54 123.36 288.37 123.24C288.35 123.23 288.34 123.22 288.32 123.2H288.33Z" fill="white"></path>
<path id="Vector_26" d="M263.85 149.14C262.85 140.96 264.96 132.71 269.3 125.71L277.95 110.54C278.9 109 279.65 107.4 280.21 105.75C277.68 106.54 275.39 107.81 273.78 108.98C261.44 116.3 257.35 124.82 242.83 129.56C226.68 135.15 214.69 119.47 200.18 117.14C198.19 116.82 196.26 116.85 194.36 117.11C194.18 117.35 193.99 117.59 193.81 117.83L193.28 118.57L259.21 165.9L259.74 165.16C263.21 160.33 264.51 154.6 263.84 149.13L263.85 149.14Z" fill="#EDEDED"></path>
<path id="Vector_27" d="M283.96 62.2501L283.55 61.9601C281.5 60.4901 278.64 60.9601 277.17 63.0101L267.5 76.4701C267.5 76.4701 267.46 76.5501 267.43 76.5901C268.89 77.2401 270.31 78.0301 271.65 78.9901C272.98 79.9501 274.18 81.0201 275.25 82.1901C275.28 82.1601 275.31 82.1301 275.33 82.1001L285 68.6401C286.47 66.5901 286 63.7301 283.95 62.2601L283.96 62.2501Z" fill="#EDEDED"></path>
<path id="Vector_28" d="M282.23 117.56C282.07 117.4 282.07 117.14 282.23 116.98C283.18 116.06 284.04 115.05 284.81 113.98L284.85 113.92C284.98 113.74 285.22 113.72 285.4 113.86C285.58 114 285.6 114.28 285.47 114.46C284.68 115.56 283.78 116.61 282.8 117.56C282.66 117.7 282.43 117.71 282.27 117.6C282.25 117.59 282.23 117.57 282.22 117.55L282.23 117.56Z" fill="white"></path>
<path id="Vector_29" d="M287.23 109.71C289.49 104.43 289.67 98.5601 287.74 93.1701C287.66 92.9601 287.77 92.7201 287.99 92.6501C288.2 92.5701 288.44 92.6801 288.51 92.9001C290.51 98.4901 290.32 104.57 287.99 110.04C287.9 110.25 287.66 110.35 287.45 110.26C287.42 110.25 287.4 110.23 287.37 110.22C287.22 110.11 287.15 109.91 287.23 109.72V109.71Z" fill="#07064E"></path>
<path id="Vector_30" d="M288.33 123.2C288.17 123.04 288.16 122.78 288.32 122.62C289.26 121.65 290.13 120.61 290.93 119.52C291.06 119.34 291.32 119.3 291.5 119.43C291.68 119.57 291.72 119.83 291.59 120.01C290.77 121.12 289.87 122.19 288.91 123.19C288.77 123.34 288.54 123.36 288.37 123.24C288.35 123.23 288.34 123.22 288.32 123.2H288.33Z" fill="white"></path>
<path id="Vector_31" d="M284.25 62.1202L283.84 61.8302C281.57 60.2002 278.4 60.7202 276.76 62.9902L267.26 76.2302C257.63 72.1302 246.28 74.7002 239.37 83.0702L227.76 96.1302C222.41 102.6 215.25 107.03 207.59 108.62C201.86 109.8 196.83 113.08 193.41 117.83L192.88 118.57C192.8 118.68 192.77 118.81 192.79 118.94C192.81 119.07 192.88 119.19 192.99 119.27L212.73 133.44C209.15 140.66 211.25 149.39 217.9 154.17C220.82 156.26 224.19 157.28 227.55 157.28C231.81 157.28 236.01 155.62 239.2 152.44L258.93 166.6C259.02 166.66 259.12 166.69 259.22 166.69C259.38 166.69 259.53 166.62 259.63 166.48L260.16 165.74C263.4 161.23 264.88 155.75 264.42 150.24C264.43 150.17 264.42 150.09 264.4 150.02C264.38 149.8 264.38 149.58 264.35 149.36C263.4 141.59 265.31 133.38 269.74 126.24L278.39 111.09C283.99 102.06 282.95 90.3502 275.92 82.4402L285.42 69.2002C287.05 66.9302 286.53 63.7502 284.26 62.1202H284.25ZM218.49 153.36C212.29 148.91 210.3 140.79 213.56 134.04L238.38 151.86C233.03 157.1 224.66 157.8 218.49 153.36ZM259.34 165.16L259.1 165.5L193.98 118.75L194.22 118.42C197.3 114.13 201.78 111.12 206.88 109.84L215.81 116.25L263.42 150.43C263.84 155.67 262.42 160.87 259.34 165.17V165.16ZM284.6 68.6202L274.93 82.0802C274.73 82.2702 274.71 82.5802 274.9 82.7902C281.88 90.3702 282.96 101.79 277.52 110.58L268.87 125.73C264.4 132.94 262.44 141.23 263.31 149.12L216.5 115.51L208.15 109.52C215.9 107.83 223.13 103.32 228.52 96.7902L240.13 83.7302C247.76 74.5002 260.97 72.6102 270.87 79.3402C271.1 79.5002 271.41 79.4402 271.56 79.2102C271.72 78.9802 271.66 78.6702 271.43 78.5202C270.38 77.8102 269.29 77.2102 268.18 76.6802L277.57 63.5902C278.36 62.4802 279.61 61.8902 280.88 61.8902C281.7 61.8902 282.53 62.1402 283.25 62.6502L283.66 62.9402C285.48 64.2502 285.9 66.8002 284.59 68.6202H284.6Z" fill="#07064E"></path>
<path id="Vector_32" d="M232.26 81.7002C232.1 81.5902 232.04 81.3702 232.13 81.1902C232.72 79.9602 233.43 78.7702 234.22 77.6702C234.35 77.4902 234.63 77.4102 234.82 77.5402C235.01 77.6702 235.07 77.9002 234.94 78.0802L234.9 78.1402C234.14 79.2002 233.46 80.3502 232.88 81.5402C232.78 81.7402 232.54 81.8302 232.33 81.7302C232.31 81.7202 232.29 81.7102 232.27 81.6902L232.26 81.7002Z" fill="white"></path>
<path id="Vector_33" d="M224.98 77.7201C224.82 77.6001 224.76 77.3801 224.86 77.2001C225.5 75.9701 226.22 74.7701 227.01 73.6401C227.14 73.4501 227.4 73.4101 227.58 73.5401C227.76 73.6701 227.81 73.9301 227.68 74.1101C226.91 75.2101 226.21 76.3801 225.58 77.5701C225.48 77.7701 225.23 77.8501 225.03 77.7401C225.01 77.7401 225 77.7201 224.98 77.7101V77.7201Z" fill="white"></path>
<path id="Vector_34" d="M230.24 70.4102C230.24 70.4102 230.21 70.3902 230.19 70.3702C230.03 70.2102 230.02 69.9502 230.18 69.7902C237 62.7202 246.89 59.1602 256.63 60.2602C256.85 60.2902 257.02 60.4902 256.99 60.7102C256.96 60.9402 256.76 61.1002 256.54 61.0702C247.05 60.0002 237.42 63.4702 230.77 70.3502C230.63 70.5002 230.4 70.5202 230.24 70.4002V70.4102Z" fill="#07064E"></path>
<g id="Group_3">
<path id="Vector_35" d="M294.25 87.47C294.04 87.57 293.96 87.81 294.05 88.02C295.31 90.72 296.16 93.57 296.6 96.47V92.57C296.14 90.9 295.54 89.26 294.79 87.67C294.69 87.47 294.45 87.38 294.24 87.47H294.25Z" fill="#07064E"></path>
<path id="Vector_36" d="M296.6 105.74C296.1 109.08 295.08 112.35 293.5 115.4C293.41 115.58 293.46 115.81 293.62 115.92C293.64 115.93 293.65 115.94 293.67 115.95C293.87 116.05 294.12 115.98 294.22 115.77C295.23 113.82 296.01 111.77 296.59 109.68V105.73L296.6 105.74Z" fill="#07064E"></path>
</g>
</g>
</g>
</g>
</g>
<defs>
<clipPath id="clip0_1092_53">
<rect width="296.6" height="240.59" fill="white"></rect>
</clipPath>
</defs>
</svg>